<svg width="177" height="85" xmlns="http://www.w3.org/2000/svg"><defs><linearGradient x1="50%" y1="0%" x2="50%" y2="98.211%" id="a"><stop stop-color="#02F375" stop-opacity=".646" offset="0%"/><stop stop-color="#036045" stop-opacity=".701" offset="14.134%"/><stop stop-color="#007146" stop-opacity=".521" offset="47.666%"/><stop stop-color="#0B4531" stop-opacity=".675" offset="88.402%"/><stop stop-color="#02F374" stop-opacity=".669" offset="100%"/></linearGradient><linearGradient x1="99.74%" y1="50.26%" x2=".26%" y2="50.26%" id="b"><stop stop-color="#32BAF6" stop-opacity="0" offset="0%"/><stop stop-color="#41B8DE" offset="49.76%"/><stop stop-color="#4EB7CB" stop-opacity="0" offset="99.907%"/></linearGradient><linearGradient x1="0%" y1="50%" x2="100%" y2="50%" id="c"><stop stop-color="#71DDF3" stop-opacity="0" offset="0%"/><stop stop-color="#A3FFE9" offset="100%"/></linearGradient></defs><g fill="none" fill-rule="evenodd"><path d="m167.932.375 8.693 11.165v61.952l-8.693 11.133H9.124L.375 73.435V12.313L9.555.375h158.377Z" stroke="#64FCDE" stroke-width=".75" fill="url(#a)"/><path stroke="url(#b)" stroke-width=".75" d="M3.601 74.734h37.656l6.428 8.727h81.604l6.171-10.262h38.193"/><path d="m40.216 77.047 4.304 5.428h-1.801l-4.304-5.428h1.8Zm-3.302 0 4.304 5.428h-1.8l-4.304-5.428h1.8Zm-3.3 0 4.303 5.428h-1.8l-4.305-5.428h1.801Zm-13.506 0 4.304 5.428h-1.8l-4.305-5.428h1.8Zm3.301 0 4.304 5.428h-1.8l-4.305-5.428h1.801Zm3.602 0 4.304 5.428h-1.801l-4.304-5.428h1.8Zm3.3 0 4.305 5.428h-1.8l-4.305-5.428h1.8Zm-16.806 0 4.304 5.428h-1.8l-4.304-5.428h1.8Zm3.302 0 4.304 5.428H19.31l-4.304-5.428h1.8Z" fill="url(#c)"/><path d="m161.274 77.047 4.304 5.428h-1.8l-4.305-5.428h1.8Zm-3.301 0 4.303 5.428h-1.8l-4.304-5.428h1.8Zm-3.302 0 4.304 5.428h-1.8l-4.304-5.428h1.8Zm-13.505 0 4.304 5.428h-1.8l-4.305-5.428h1.8Zm3.301 0 4.304 5.428h-1.8l-4.304-5.428h1.8Zm3.602 0 4.304 5.428h-1.801l-4.304-5.428h1.8Zm3.3 0 4.305 5.428h-1.8l-4.305-5.428h1.8Zm-16.806 0 4.304 5.428h-1.8l-4.304-5.428h1.8Zm3.302 0 4.304 5.428h-1.801l-4.304-5.428h1.8Z" fill="url(#c)" transform="matrix(-1 0 0 1 298.34 0)"/><path stroke="url(#b)" stroke-width=".75" transform="matrix(1 0 0 -1 0 14.11)" d="M3.601 3.459h37.656l6.428 8.727h81.604l6.171-10.262h38.193"/><path d="m40.216 2.91 4.304 5.428h-1.801L38.415 2.91h1.8Zm-3.302 0 4.304 5.428h-1.8L35.114 2.91h1.8Zm-3.3 0 4.303 5.428h-1.8L31.811 2.91h1.801Zm-13.506 0 4.304 5.428h-1.8L18.306 2.91h1.8Zm3.301 0 4.304 5.428h-1.8L21.607 2.91h1.801Zm3.602 0 4.304 5.428h-1.801L25.21 2.91h1.8Zm3.3 0 4.305 5.428h-1.8L28.51 2.91h1.8Zm-16.806 0 4.304 5.428h-1.8L11.705 2.91h1.8Zm3.302 0 4.304 5.428H19.31L15.006 2.91h1.8Z" fill="url(#c)" transform="matrix(1 0 0 -1 0 11.247)"/><path d="m161.274 2.91 4.304 5.428h-1.8l-4.305-5.428h1.8Zm-3.301 0 4.303 5.428h-1.8l-4.304-5.428h1.8Zm-3.302 0 4.304 5.428h-1.8L152.87 2.91h1.8Zm-13.505 0 4.304 5.428h-1.8l-4.305-5.428h1.8Zm3.301 0 4.304 5.428h-1.8l-4.304-5.428h1.8Zm3.602 0 4.304 5.428h-1.801l-4.304-5.428h1.8Zm3.3 0 4.305 5.428h-1.8l-4.305-5.428h1.8Zm-16.806 0 4.304 5.428h-1.8l-4.304-5.428h1.8Zm3.302 0 4.304 5.428h-1.801l-4.304-5.428h1.8Z" fill="url(#c)" transform="rotate(180 149.17 5.624)"/><path fill="#64FCD8" d="M50.42 5.13h76.64l1.801 2.3H48.62zM50.42 79.856h76.64l1.801-2.3H48.62z"/></g></svg>