<?xml version="1.0" encoding="UTF-8"?>
<svg width="177px" height="85px" viewBox="0 0 177 85" version="1.1" xmlns="http://www.w3.org/2000/svg" xmlns:xlink="http://www.w3.org/1999/xlink">
    <title>编组 2备份 2</title>
    <defs>
        <linearGradient x1="50%" y1="0%" x2="50%" y2="98.2107736%" id="linearGradient-1">
            <stop stop-color="#02F375" stop-opacity="0.645705857" offset="0%"></stop>
            <stop stop-color="#036045" stop-opacity="0.700885052" offset="14.133861%"></stop>
            <stop stop-color="#007146" stop-opacity="0.520733173" offset="47.6658088%"></stop>
            <stop stop-color="#0B4531" stop-opacity="0.674524694" offset="88.4015569%"></stop>
            <stop stop-color="#02F374" stop-opacity="0.668651661" offset="100%"></stop>
        </linearGradient>
        <linearGradient x1="99.7404939%" y1="50.2595061%" x2="0.259506119%" y2="50.2595061%" id="linearGradient-2">
            <stop stop-color="#32BAF6" stop-opacity="0" offset="0%"></stop>
            <stop stop-color="#41B8DE" offset="49.7596154%"></stop>
            <stop stop-color="#4EB7CB" stop-opacity="0" offset="99.9071241%"></stop>
        </linearGradient>
        <linearGradient x1="0%" y1="50%" x2="100%" y2="50%" id="linearGradient-3">
            <stop stop-color="#71DDF3" stop-opacity="0" offset="0%"></stop>
            <stop stop-color="#A3FFE9" offset="100%"></stop>
        </linearGradient>
    </defs>
    <g id="页面-1" stroke="none" stroke-width="1" fill="none" fill-rule="evenodd">
        <g id="中间件监控可视化大屏" transform="translate(-667.000000, -490.000000)">
            <g id="编组-2备份-2" transform="translate(667.000000, 490.000000)">
                <path d="M167.932112,0.375 L176.625,11.5401084 L176.625,73.4923485 L167.932435,84.625 L9.1236814,84.625 L0.375,73.4345383 L0.375,12.3132691 L9.5552108,0.375 L167.932112,0.375 Z" id="矩形" stroke="#64FCDE" stroke-width="0.75" fill="url(#linearGradient-1)"></path>
                <polyline id="路径-73" stroke="url(#linearGradient-2)" stroke-width="0.75" points="3.60141358 74.7335146 41.256565 74.7335146 47.6847511 83.4607465 129.28943 83.4607465 135.460488 73.1990562 173.652555 73.1990562"></polyline>
                <path d="M40.215785,77.04719 L44.5197436,82.4750274 L42.7190368,82.4750274 L38.4150782,77.04719 L40.215785,77.04719 Z M36.9144892,77.04719 L41.2184478,82.4750274 L39.417741,82.4750274 L35.1137824,77.04719 L36.9144892,77.04719 Z M33.6131934,77.04719 L37.917152,82.4750274 L36.1164452,82.4750274 L31.8124866,77.04719 L33.6131934,77.04719 Z M20.1078925,77.04719 L24.4118511,82.4750274 L22.6111443,82.4750274 L18.3071857,77.04719 L20.1078925,77.04719 Z M23.4091883,77.04719 L27.7131469,82.4750274 L25.9124401,82.4750274 L21.6084815,77.04719 L23.4091883,77.04719 Z M27.0106018,77.04719 L31.3145605,82.4750274 L29.5138537,82.4750274 L25.2098951,77.04719 L27.0106018,77.04719 Z M30.3118976,77.04719 L34.6158563,82.4750274 L32.8151495,82.4750274 L28.5111908,77.04719 L30.3118976,77.04719 Z M13.5053009,77.04719 L17.8092596,82.4750274 L16.0085528,82.4750274 L11.7045941,77.04719 L13.5053009,77.04719 Z M16.8065967,77.04719 L21.1105553,82.4750274 L19.3098485,82.4750274 L15.0058899,77.04719 L16.8065967,77.04719 Z" id="形状结合" fill="url(#linearGradient-3)"></path>
                <path d="M161.273827,77.04719 L165.577786,82.4750274 L163.777079,82.4750274 L159.473121,77.04719 L161.273827,77.04719 Z M157.972532,77.04719 L162.27649,82.4750274 L160.475783,82.4750274 L156.171825,77.04719 L157.972532,77.04719 Z M154.671236,77.04719 L158.975194,82.4750274 L157.174488,82.4750274 L152.870529,77.04719 L154.671236,77.04719 Z M141.165935,77.04719 L145.469894,82.4750274 L143.669187,82.4750274 L139.365228,77.04719 L141.165935,77.04719 Z M144.467231,77.04719 L148.771189,82.4750274 L146.970483,82.4750274 L142.666524,77.04719 L144.467231,77.04719 Z M148.068644,77.04719 L152.372603,82.4750274 L150.571896,82.4750274 L146.267937,77.04719 L148.068644,77.04719 Z M151.36994,77.04719 L155.673899,82.4750274 L153.873192,82.4750274 L149.569233,77.04719 L151.36994,77.04719 Z M134.563343,77.04719 L138.867302,82.4750274 L137.066595,82.4750274 L132.762637,77.04719 L134.563343,77.04719 Z M137.864639,77.04719 L142.168598,82.4750274 L140.367891,82.4750274 L136.063932,77.04719 L137.864639,77.04719 Z" id="形状结合" fill="url(#linearGradient-3)" transform="translate(149.170211, 79.761109) scale(-1, 1) translate(-149.170211, -79.761109) "></path>
                <polyline id="路径-73" stroke="url(#linearGradient-2)" stroke-width="0.75" transform="translate(88.626984, 7.054912) scale(1, -1) translate(-88.626984, -7.054912) " points="3.60141358 3.45852528 41.256565 3.45852528 47.6847511 12.1857572 129.28943 12.1857572 135.460488 1.92406692 173.652555 1.92406692"></polyline>
                <path d="M40.215785,2.90978594 L44.5197436,8.33762334 L42.7190368,8.33762334 L38.4150782,2.90978594 L40.215785,2.90978594 Z M36.9144892,2.90978594 L41.2184478,8.33762334 L39.417741,8.33762334 L35.1137824,2.90978594 L36.9144892,2.90978594 Z M33.6131934,2.90978594 L37.917152,8.33762334 L36.1164452,8.33762334 L31.8124866,2.90978594 L33.6131934,2.90978594 Z M20.1078925,2.90978594 L24.4118511,8.33762334 L22.6111443,8.33762334 L18.3071857,2.90978594 L20.1078925,2.90978594 Z M23.4091883,2.90978594 L27.7131469,8.33762334 L25.9124401,8.33762334 L21.6084815,2.90978594 L23.4091883,2.90978594 Z M27.0106018,2.90978594 L31.3145605,8.33762334 L29.5138537,8.33762334 L25.2098951,2.90978594 L27.0106018,2.90978594 Z M30.3118976,2.90978594 L34.6158563,8.33762334 L32.8151495,8.33762334 L28.5111908,2.90978594 L30.3118976,2.90978594 Z M13.5053009,2.90978594 L17.8092596,8.33762334 L16.0085528,8.33762334 L11.7045941,2.90978594 L13.5053009,2.90978594 Z M16.8065967,2.90978594 L21.1105553,8.33762334 L19.3098485,8.33762334 L15.0058899,2.90978594 L16.8065967,2.90978594 Z" id="形状结合" fill="url(#linearGradient-3)" transform="translate(28.112169, 5.623705) scale(1, -1) translate(-28.112169, -5.623705) "></path>
                <path d="M161.273827,2.90978594 L165.577786,8.33762334 L163.777079,8.33762334 L159.473121,2.90978594 L161.273827,2.90978594 Z M157.972532,2.90978594 L162.27649,8.33762334 L160.475783,8.33762334 L156.171825,2.90978594 L157.972532,2.90978594 Z M154.671236,2.90978594 L158.975194,8.33762334 L157.174488,8.33762334 L152.870529,2.90978594 L154.671236,2.90978594 Z M141.165935,2.90978594 L145.469894,8.33762334 L143.669187,8.33762334 L139.365228,2.90978594 L141.165935,2.90978594 Z M144.467231,2.90978594 L148.771189,8.33762334 L146.970483,8.33762334 L142.666524,2.90978594 L144.467231,2.90978594 Z M148.068644,2.90978594 L152.372603,8.33762334 L150.571896,8.33762334 L146.267937,2.90978594 L148.068644,2.90978594 Z M151.36994,2.90978594 L155.673899,8.33762334 L153.873192,8.33762334 L149.569233,2.90978594 L151.36994,2.90978594 Z M134.563343,2.90978594 L138.867302,8.33762334 L137.066595,8.33762334 L132.762637,2.90978594 L134.563343,2.90978594 Z M137.864639,2.90978594 L142.168598,8.33762334 L140.367891,8.33762334 L136.063932,2.90978594 L137.864639,2.90978594 Z" id="形状结合" fill="url(#linearGradient-3)" transform="translate(149.170211, 5.623705) scale(-1, -1) translate(-149.170211, -5.623705) "></path>
                <polygon id="矩形" fill="#64FCD8" points="50.4197901 5.13084513 127.060398 5.13084513 128.861105 7.43084513 48.6190833 7.43084513"></polygon>
                <polygon id="矩形" fill="#64FCD8" transform="translate(88.740094, 78.705834) scale(1, -1) translate(-88.740094, -78.705834) " points="50.4197901 77.5558344 127.060398 77.5558344 128.861105 79.8558344 48.6190833 79.8558344"></polygon>
            </g>
        </g>
    </g>
</svg>