<svg width="80" height="80" viewBox="0 0 51 80" xmlns="http://www.w3.org/2000/svg" xmlns:xlink="http://www.w3.org/1999/xlink"><defs><path d="M0 13.71V63.43c0 .193.102.372.269.469l23.913 13.907a2.012 2.012 0 0 0 2.022 0L50.081 63.92a.613.613 0 0 0 .305-.53V13.71L26.204.272a2.009 2.009 0 0 0-2.022 0L0 13.71Z" id="a"/><path id="d" d="M0 0h50.386v29.745H0z"/><path d="M19.344.22.4 11.296a.816.816 0 0 0 0 1.404L19.344 23.78a1.6 1.6 0 0 0 1.62 0l18.945-11.078a.816.816 0 0 0 0-1.404L20.963.219a1.602 1.602 0 0 0-1.619 0" id="f"/><path d="M14.831.17.307 8.752a.635.635 0 0 0 0 1.088L14.83 18.42c.384.227.857.227 1.241 0L30.597 9.84a.635.635 0 0 0 0-1.088L16.072.171a1.215 1.215 0 0 0-1.24 0" id="h"/><path d="M0 1.045v36.843c0 .768.41 1.478 1.073 1.86l15.845 9.124a1.04 1.04 0 0 0 1.557-.907V11.122c0-.768-.41-1.477-1.073-1.86L1.557.14A1.033 1.033 0 0 0 1.04 0C.497 0 0 .436 0 1.045" id="k"/><path d="M0 1.043v36.845c0 .768.412 1.478 1.081 1.86l15.97 9.124c.525.3 1.147.09 1.424-.373a1.04 1.04 0 0 1-.572-.136l-15.97-9.124a2.143 2.143 0 0 1-1.082-1.86V.534c0-.2.054-.38.146-.534A1.045 1.045 0 0 0 0 1.043" id="n"/><linearGradient x1="41.844%" y1="46.144%" x2="53.109%" y2="46.144%" id="b"><stop stop-color="#638FD9" offset="0%"/><stop stop-color="#A3BCE8" offset="100%"/></linearGradient><linearGradient x1="50%" y1="0%" x2="50%" y2="100%" id="i"><stop stop-color="#01A1E8" offset="0%"/><stop stop-color="#0D79E9" offset="100%"/></linearGradient><linearGradient x1="-.002%" y1="50%" x2="98.385%" y2="50%" id="l"><stop stop-color="#244683" offset="0%"/><stop stop-color="#2455B7" offset="100%"/></linearGradient><linearGradient x1="50.556%" y1="97.448%" x2="44.574%" y2="-.973%" id="o"><stop stop-color="#D3DAED" offset="0%"/><stop stop-color="#99A7D8" offset="100%"/></linearGradient><linearGradient x1="50%" y1="0%" x2="50%" y2="100%" id="q"><stop stop-color="#01A1E8" offset="0%"/><stop stop-color="#0D79E9" offset="100%"/></linearGradient></defs><g fill="none" fill-rule="evenodd"><g transform="translate(.162 1.524)"><mask id="c" fill="#fff"><use xlink:href="#a"/></mask><path d="M0 13.71V63.43c0 .193.102.372.269.469l23.913 13.907a2.012 2.012 0 0 0 2.022 0L50.081 63.92a.613.613 0 0 0 .305-.53V13.71L26.204.272a2.009 2.009 0 0 0-2.022 0L0 13.71Z" fill="url(#b)" mask="url(#c)"/></g><g transform="translate(.162 .51)"><mask id="e" fill="#fff"><use xlink:href="#d"/></mask><path d="M24.181.272.5 14.002a1.007 1.007 0 0 0 0 1.74l23.681 13.73a2.015 2.015 0 0 0 2.024 0l23.68-13.73a1.007 1.007 0 0 0 0-1.74L26.206.273a2.015 2.015 0 0 0-2.024 0" fill="#CBD3F1" mask="url(#e)"/></g><g transform="translate(5.2 3.214)"><mask id="g" fill="#fff"><use xlink:href="#f"/></mask><path d="M19.344.22.4 11.296a.816.816 0 0 0 0 1.404L19.344 23.78a1.6 1.6 0 0 0 1.62 0l18.945-11.078a.816.816 0 0 0 0-1.404L20.963.219a1.602 1.602 0 0 0-1.619 0" fill="#5D7092" mask="url(#g)"/></g><path d="M45.112 15.503 26.164 26.517a1.61 1.61 0 0 1-1.62 0L5.598 15.503a.79.79 0 0 1-.36-.458.803.803 0 0 0 .36.936l18.948 11.013a1.61 1.61 0 0 0 1.619 0l18.948-11.013a.802.802 0 0 0 .36-.936.787.787 0 0 1-.36.458" fill="#48486A"/><g transform="translate(9.903 5.918)"><mask id="j" fill="#fff"><use xlink:href="#h"/></mask><path d="M14.831.17.307 8.752a.635.635 0 0 0 0 1.088L14.83 18.42c.384.227.857.227 1.241 0L30.597 9.84a.635.635 0 0 0 0-1.088L16.072.171a1.215 1.215 0 0 0-1.24 0" fill="url(#i)" mask="url(#j)"/></g><path d="m10.208 15.469 14.526-8.475a1.23 1.23 0 0 1 1.24 0l14.527 8.475a.61.61 0 0 1 .237.252.622.622 0 0 0-.237-.822L25.975 6.425a1.228 1.228 0 0 0-1.241 0l-14.526 8.474a.622.622 0 0 0-.237.822c.051-.1.129-.189.237-.252" fill="#48486A"/><g transform="translate(2.513 21.467)"><mask id="m" fill="#fff"><use xlink:href="#k"/></mask><path d="M0 1.045v36.843c0 .768.41 1.478 1.073 1.86l15.845 9.124a1.04 1.04 0 0 0 1.557-.907V11.122c0-.768-.41-1.477-1.073-1.86L1.557.14A1.033 1.033 0 0 0 1.04 0C.497 0 0 .436 0 1.045" fill="url(#l)" mask="url(#m)"/></g><g transform="translate(2.513 21.467)"><mask id="p" fill="#fff"><use xlink:href="#n"/></mask><path d="M0 1.043v36.845c0 .768.412 1.478 1.081 1.86l15.97 9.124c.525.3 1.147.09 1.424-.373a1.04 1.04 0 0 1-.572-.136l-15.97-9.124a2.143 2.143 0 0 1-1.082-1.86V.534c0-.2.054-.38.146-.534A1.045 1.045 0 0 0 0 1.043" fill="url(#o)" mask="url(#p)"/></g><g fill="#5D7092"><path d="M4.864 23.157v36.678l.53.321V23.478zM8.126 25.106v36.679l.53.321V25.427zM11.388 27.056v36.678l.53.322V27.377z"/></g><g fill="#5D7092"><path d="M14.605 28.903v36.923l.565.323V29.227zM18.072 30.866v36.922l.564.324V31.189z"/></g><g fill="#FFF"><path d="m27.37 33.056 4.03-2.125v1.063l-4.03 2.131zM27.37 34.932l4.03-2.125v1.062l-4.03 2.132z"/></g><path d="M4.367 49.652v6.195c0 .187.116.36.306.455l.684.344c.304.154.69-.032.69-.332V50.12a.519.519 0 0 0-.307-.456l-.683-.344a.511.511 0 0 0-.233-.055c-.238 0-.457.161-.457.387" fill="url(#q)" transform="translate(.162 .51)"><animateTransform id="s" attributeName="transform" type="translate" from="0 3.5" to="0 -27" begin="0s;r.end" dur="1.1s"/><animateTransform id="r" attributeName="transform" type="translate" from="0 -27" to="0 3.5" begin="s.end" dur="1s"/></path><path d="M7.39 57.684c0 .186.116.36.305.454l.685.345c.304.153.69-.033.69-.332v-6.196a.52.52 0 0 0-.307-.455l-.683-.344a.517.517 0 0 0-.233-.055c-.238 0-.457.16-.457.387v6.196Z" fill="url(#q)" transform="translate(.162 .51)"><animateTransform id="u" attributeName="transform" type="translate" from="0 3.5" to="0 -27" begin="0s;t.end" dur="1.22s"/><animateTransform id="t" attributeName="transform" type="translate" from="0 -27" to="0 3.5" begin="u.end" dur="0.73s"/></path><path d="M10.749 59.578c0 .187.116.36.305.454l.684.345c.305.153.69-.033.69-.332V53.85a.52.52 0 0 0-.305-.455l-.684-.345a.523.523 0 0 0-.233-.054c-.238 0-.457.16-.457.386v6.196Z" fill="url(#q)" transform="translate(.162 .51)"><animateTransform id="w" attributeName="transform" type="translate" from="0 -27" to="0 3.5" begin="0s;v.end" dur="0.88s"/><animateTransform id="v" attributeName="transform" type="translate" from="0 3.5" to="0 -27" begin="w.end" dur="1.32s"/></path><path d="M14.108 61.62c0 .186.116.36.307.455l.683.344c.304.153.69-.032.69-.332V55.89a.518.518 0 0 0-.306-.454l-.684-.345a.512.512 0 0 0-.232-.054c-.238 0-.458.16-.458.386v6.196Z" fill="url(#q)" transform="translate(.162 .51)"><animateTransform id="y" attributeName="transform" type="translate" from="0 -27" to="0 3.5" begin="0s;x.end" dur="1.44s"/><animateTransform id="x" attributeName="transform" type="translate" from="0 3.5" to="0 -27" begin="y.end" dur="0.85s"/></path><path d="M17.467 63.451c0 .187.116.36.306.455l.684.344c.304.153.69-.032.69-.332v-6.195a.52.52 0 0 0-.306-.455l-.685-.344a.513.513 0 0 0-.232-.055c-.238 0-.457.16-.457.387v6.195Z" fill="url(#q)" transform="translate(.162 .51)"><animateTransform id="A" attributeName="transform" type="translate" from="0 3.5" to="0 -27" begin="0s;z.end" dur="0.8s"/><animateTransform id="z" attributeName="transform" type="translate" from="0 -27" to="0 3.5" begin="A.end" dur="0.95s"/></path></g></svg>