<svg width="28" height="26" xmlns="http://www.w3.org/2000/svg"><path d="M0 2.291v16.905c0 1.162 1.169 2.275 2.333 2.275h5.838c.605 0 1.174.498 1.172 1.134-.01.627-.535 1.131-1.182 1.134H7.023c-1.56 0-1.56 2.261-.016 2.261h14.001c1.55 0 1.55-2.26-.007-2.26H19.83c-.6 0-1.162-.512-1.162-1.123 0-.61.582-1.146 1.176-1.146h5.827c1.173 0 2.329-1.1 2.329-2.247V2.282C28 1.142 26.822 0 25.663 0H2.335C1.147 0 0 1.146 0 2.291Zm24.51 16.904H3.515c-.677 0-1.206-.517-1.206-1.091 0-.573-.05-14.025 0-14.7.051-.676.585-1.15 1.196-1.15h20.989c.583 0 1.19.6 1.19 1.144V18.1c0 .605-.579 1.096-1.172 1.096Z" fill="#E86452" fill-rule="nonzero"/></svg>