<?xml version="1.0" encoding="UTF-8"?>
<svg width="26px" height="26px" viewBox="0 0 26 26" version="1.1" xmlns="http://www.w3.org/2000/svg" xmlns:xlink="http://www.w3.org/1999/xlink">
    <title>azone</title>
    <defs>
        <linearGradient x1="50%" y1="1.50273485%" x2="50%" y2="100%" id="linearGradient-1">
            <stop stop-color="#FFFFFF" offset="0%"></stop>
            <stop stop-color="#FFFFFF" stop-opacity="0.35" offset="100%"></stop>
        </linearGradient>
    </defs>
    <g id="页面-1" stroke="none" stroke-width="1" fill="none" fill-rule="evenodd">
        <g id="画板" transform="translate(-614.000000, -348.000000)" fill="url(#linearGradient-1)" fill-rule="nonzero">
            <g id="添加新的分区" transform="translate(614.000000, 348.000000)">
                <path d="M23.4,0 L5.2,0 L5.2,2.6 L23.4,2.6 L23.4,20.8 L26,20.8 L26,0 L23.4,0 Z M0,26 L20.8,26 L20.8,5.2 L0,5.2 L0,26 Z M3.9,14.3 L9.1,14.3 L9.1,9.1 L11.7,9.1 L11.7,14.3 L16.9,14.3 L16.9,16.9 L11.7,16.9 L11.7,22.1 L9.1,22.1 L9.1,16.9 L3.9,16.9 L3.9,14.3 Z" id="形状"></path>
            </g>
        </g>
    </g>
</svg>