<?xml version="1.0" encoding="UTF-8"?>
<svg width="29px" height="26px" viewBox="0 0 29 26" version="1.1" xmlns="http://www.w3.org/2000/svg" xmlns:xlink="http://www.w3.org/1999/xlink">
    <title>browser</title>
    <defs>
        <linearGradient x1="50%" y1="1.50273485%" x2="50%" y2="100%" id="linearGradient-1">
            <stop stop-color="#FFFFFF" offset="0%"></stop>
            <stop stop-color="#FFFFFF" stop-opacity="0.35" offset="100%"></stop>
        </linearGradient>
        <linearGradient x1="50%" y1="1.50273485%" x2="50%" y2="100%" id="linearGradient-2">
            <stop stop-color="#FFFFFF" offset="0%"></stop>
            <stop stop-color="#FFFFFF" stop-opacity="0.35" offset="100%"></stop>
        </linearGradient>
        <linearGradient x1="50%" y1="1.50273485%" x2="50%" y2="100%" id="linearGradient-3">
            <stop stop-color="#FFFFFF" offset="0%"></stop>
            <stop stop-color="#FFFFFF" stop-opacity="0.35" offset="100%"></stop>
        </linearGradient>
    </defs>
    <g id="页面-1" stroke="none" stroke-width="1" fill="none" fill-rule="evenodd">
        <g id="画板" transform="translate(-240.000000, -305.000000)" fill-rule="nonzero">
            <g id="browser" transform="translate(240.000000, 305.000000)">
                <path d="M27.2941176,0 C28.2362505,0 29,0.751006226 29,1.67741935 L29,24.3225806 C29,25.2489938 28.2362505,26 27.2941176,26 L1.70588235,26 C0.763749544,26 0,25.2489938 0,24.3225806 L0,1.67741935 C0,0.751006226 0.763749544,0 1.70588235,0 L27.2941176,0 Z M26.014,9.64 L2.985,9.64 L2.98529412,23.0645161 L26.0147059,23.0645161 L26.014,9.64 Z M26.0147059,2.93548387 L2.98529412,2.93548387 L2.985,7.124 L26.014,7.124 L26.0147059,2.93548387 Z" id="形状结合" fill="url(#linearGradient-1)"></path>
                <path d="M14.5,10.4825411 C15.549634,10.4825411 16.4516585,11.9325832 16.8463055,14.0072154 C18.9213943,14.4021419 20.3709677,15.3040444 20.3709677,16.3535088 C20.3709677,17.4029732 18.9213943,18.3048758 16.8472993,18.699623 C16.4516585,20.7744344 15.549634,22.2244766 14.5,22.2244766 C13.450366,22.2244766 12.5483415,20.7744344 12.1536945,18.6998023 C10.0790764,18.3051686 8.62903226,17.4031436 8.62903226,16.3535088 C8.62903226,15.3038741 10.0790764,14.401849 12.1537108,14.0072025 C12.5483415,11.9325832 13.450366,10.4825411 14.5,10.4825411 Z M15.0568362,18.9022625 C14.8685606,18.9085915 14.6852826,18.9123324 14.5,18.9123324 C14.3119724,18.9123324 14.1260094,18.9084799 13.9425037,18.9009462 C14.0314331,19.2492872 14.1374743,19.5662499 14.2585918,19.8441421 C14.3238589,19.993891 14.3905873,20.1250847 14.4558591,20.2361404 L14.5,20.3068387 L14.5441409,20.2361404 C14.5876554,20.1621033 14.6318173,20.0791159 14.6757621,19.9876473 L14.7414082,19.8441421 C14.8625257,19.5662499 14.9685669,19.2492872 15.0568362,18.9022625 Z M14.5,15.5005676 C14.2201116,15.5005676 13.9447117,15.5103382 13.6762104,15.5291582 C13.6568407,15.7979019 13.6470588,16.0734585 13.6470588,16.3535088 C13.6470588,16.6332108 13.6568164,16.9084302 13.6756118,17.1767619 C13.9447117,17.1966794 14.2201116,17.20645 14.5,17.20645 C14.7798884,17.20645 15.0552883,17.1966794 15.3237896,17.1778594 C15.3431836,16.9084302 15.3529412,16.6332108 15.3529412,16.3535088 C15.3529412,16.0734585 15.3431593,15.7979019 15.3243179,15.5292533 C15.0552883,15.5103382 14.7798884,15.5005676 14.5,15.5005676 Z M11.9525215,15.7970171 L11.7309296,15.8562577 C11.4692749,15.931399 11.2273055,16.0171134 11.0093668,16.1121006 C10.8596178,16.1773678 10.7284241,16.2440961 10.6173685,16.309368 L10.5466701,16.3535088 L10.6173685,16.3976497 C10.6914056,16.4411643 10.7743929,16.4853262 10.8658615,16.5292709 L11.0093668,16.594917 C11.2872116,16.7160139 11.6041136,16.8220396 11.9510689,16.9102999 C11.9450153,16.7268384 11.9411765,16.5412022 11.9411765,16.3535088 C11.9411765,16.1658244 11.9450149,15.9801969 11.9525215,15.7970171 Z M17.0489311,15.7967178 C17.0550827,15.9849482 17.0588235,16.1682262 17.0588235,16.3535088 C17.0588235,16.5412022 17.0549847,16.7268384 17.0474775,16.9100267 C17.3958864,16.8220396 17.7127884,16.7160139 17.9906332,16.594917 C18.1403822,16.5296499 18.2715759,16.4629215 18.3826315,16.3976497 L18.454025,16.3535088 L18.3826315,16.309368 C18.2715759,16.2440961 18.1403822,16.1773678 17.9906332,16.1121006 C17.7127884,15.9910038 17.3958864,15.884978 17.0489311,15.7967178 Z M14.5,12.3994839 L14.4558591,12.4708773 C14.3905873,12.5819329 14.3238589,12.7131266 14.2585918,12.8628756 C14.1373768,13.1409915 14.0312623,13.4582408 13.9429507,13.8055933 C14.1260094,13.7985378 14.3119724,13.7946853 14.5,13.7946853 C14.6876934,13.7946853 14.8733296,13.7985241 15.0565179,13.8060314 C14.9687377,13.4582408 14.8626232,13.1409915 14.7414082,12.8628756 C14.6761411,12.7131266 14.6094127,12.5819329 14.5441409,12.4708773 L14.5,12.3994839 Z" id="形状结合" fill="url(#linearGradient-2)"></path>
                <ellipse id="椭圆形备份-9" fill="url(#linearGradient-3)" cx="5.11764706" cy="5.02353255" rx="1.27941176" ry="1.25806452"></ellipse>
                <ellipse id="椭圆形备份-10" fill="url(#linearGradient-3)" cx="8.52941176" cy="5.02353255" rx="1.27941176" ry="1.25806452"></ellipse>
                <ellipse id="椭圆形备份-11" fill="url(#linearGradient-3)" cx="11.9411765" cy="5.02353255" rx="1.27941176" ry="1.25806452"></ellipse>
            </g>
        </g>
    </g>
</svg>