<?xml version="1.0" encoding="UTF-8"?>
<svg width="33px" height="33px" viewBox="0 0 33 33" version="1.1" xmlns="http://www.w3.org/2000/svg" xmlns:xlink="http://www.w3.org/1999/xlink">
    <title>container</title>
    <defs>
        <linearGradient x1="50%" y1="1.50273485%" x2="50%" y2="100%" id="linearGradient-1">
            <stop stop-color="#FFFFFF" offset="0%"></stop>
            <stop stop-color="#FFFFFF" stop-opacity="0.35" offset="100%"></stop>
        </linearGradient>
    </defs>
    <g id="页面-1" stroke="none" stroke-width="1" fill="none" fill-rule="evenodd">
        <g id="画板" transform="translate(-138.000000, -344.000000)" fill-rule="nonzero">
            <g id="容器服务" transform="translate(138.000000, 344.000000)">
                <rect id="矩形" fill="#000000" opacity="0" x="0" y="0" width="33" height="33"></rect>
                <path d="M22,19.6625 L22,13.3375 L16.5,10.10625 L11,13.3375 L11,19.6625 L16.5,22.89375 L22,19.6625 Z M16.5,7.63125 L21.10625,4.95 L17.875,3.09375 C16.98125,2.61250001 15.95,2.61250001 15.05625,3.09375 L11.825,4.95 L16.5,7.63125 L16.5,7.63125 Z M23.2375,6.1875 L18.63125,8.86875 L23.1,11.48125 L24.13125,12.1 L24.13125,18.49375 L28.7375,15.8125 L28.7375,11.06875 C28.7375,10.0375 28.1875,9.14375002 27.29375,8.59375001 L23.2375,6.1875 Z M12.58125,9.9 L14.36875,8.86875 L9.76249999,6.1875 L5.63749999,8.59375001 C4.74375,9.075 4.19374999,10.0375 4.19374999,11.06875 L4.19374999,15.8125 L8.80000001,18.49375 L8.80000001,12.1 L9.83125001,11.48125 L12.58125,9.9 L12.58125,9.9 Z M16.5,25.36875 L15.46875,24.75 L11.55,22.48125 L11,22.1375 L11,27.5 L15.125,29.90625 C16.01875,30.3875 17.05,30.3875 17.94375,29.90625 L22.06875,27.5 L22.06875,22.1375 L17.53125,24.75 L16.5,25.36875 Z M5.63749999,24.40625 L8.86875,26.2625 L8.86875,20.9 L4.26250001,18.21875 L4.26250001,21.93125 C4.19375002,22.9625 4.74375,23.925 5.63749999,24.40625 Z M24.13125,26.2625 L27.3625,24.40625 C28.25625,23.925 28.80625,22.9625 28.80625,21.93125 L28.80625,18.21875 L24.2,20.9 L24.2,26.2625 L24.13125,26.2625 Z" id="形状" fill="url(#linearGradient-1)"></path>
            </g>
        </g>
    </g>
</svg>