<?xml version="1.0" encoding="UTF-8"?>
<svg width="28px" height="26px" viewBox="0 0 28 26" version="1.1" xmlns="http://www.w3.org/2000/svg" xmlns:xlink="http://www.w3.org/1999/xlink">
    <title>csharp</title>
    <defs>
        <linearGradient x1="50%" y1="0.763647697%" x2="50%" y2="99.1333861%" id="linearGradient-1">
            <stop stop-color="#FFFFFF" offset="0%"></stop>
            <stop stop-color="#FFFFFF" stop-opacity="0.35" offset="100%"></stop>
        </linearGradient>
        <linearGradient x1="50%" y1="0.763647697%" x2="50%" y2="99.1333861%" id="linearGradient-2">
            <stop stop-color="#FFFFFF" offset="0%"></stop>
            <stop stop-color="#FFFFFF" stop-opacity="0.35" offset="100%"></stop>
        </linearGradient>
    </defs>
    <g id="页面-1" stroke="none" stroke-width="1" fill="none" fill-rule="evenodd">
        <g id="画板" transform="translate(-307.000000, -304.000000)" fill-rule="nonzero">
            <g id="csharp" transform="translate(307.000000, 304.000000)">
                <path d="M23.6251,14.7332343 L25.3757001,14.7332343 L25.3757001,12.9993066 L23.6251,12.9993066 L23.6251,14.7332343 Z M28,13.0000991 L28,11.5807825 L26.8078638,11.5807825 L26.8078638,10.4 L25.3757001,10.4 L25.3757001,11.5807825 L23.6251,11.5807825 L23.6251,10.4 L22.1921363,10.4 L22.1921363,11.5807825 L21,11.5807825 L21,13.0000991 L22.1921363,13.0000991 L22.1921363,14.7332343 L21,14.7332343 L21,16.1517583 L22.1921363,16.1517583 L22.1921363,17.3333333 L23.6251,17.3333333 L23.6251,16.1517583 L25.3757001,16.1517583 L25.3757001,17.3333333 L26.8078638,17.3333333 L26.8078638,16.1517583 L28,16.1517583 L28,14.7332343 L26.8078638,14.7332343 L26.8078638,13.0000991 L28,13.0000991 Z" id="Fill-25" fill="url(#linearGradient-1)"></path>
                <path d="M18.2375839,17.3333333 C16.9918344,18.8297981 15.1142058,19.7833739 13.0134228,19.7833739 C9.26286355,19.7833739 6.22326618,16.7466378 6.22326618,12.9996089 C6.22326618,9.25336222 9.26286355,6.21662608 13.0134228,6.21662608 C15.7225951,6.21662608 18.0606264,7.80148631 19.1505592,10.0942925 L24.5,6.88624121 C22.3099552,2.78797724 17.9878076,0 13.0134228,0 C5.82628631,0 0,5.82001989 0,12.9996089 C0,20.1799801 5.82628631,26 13.0134228,26 C17.4326622,26 21.338255,23.7995006 23.6895973,20.4334326 L18.2375839,17.3333333 Z" id="Fill-27" fill="url(#linearGradient-2)"></path>
            </g>
        </g>
    </g>
</svg>