<?xml version="1.0" encoding="UTF-8"?>
<svg width="34px" height="22px" viewBox="0 0 34 22" version="1.1" xmlns="http://www.w3.org/2000/svg" xmlns:xlink="http://www.w3.org/1999/xlink">
    <title>db2</title>
    <defs>
        <linearGradient x1="50%" y1="0.763647697%" x2="50%" y2="99.1333861%" id="linearGradient-1">
            <stop stop-color="#FFFFFF" offset="0%"></stop>
            <stop stop-color="#FFFFFF" stop-opacity="0.35" offset="100%"></stop>
        </linearGradient>
        <linearGradient x1="50%" y1="0.763647697%" x2="50%" y2="99.1333861%" id="linearGradient-2">
            <stop stop-color="#FFFFFF" offset="0%"></stop>
            <stop stop-color="#FFFFFF" stop-opacity="0.35" offset="100%"></stop>
        </linearGradient>
        <linearGradient x1="50%" y1="0.763647697%" x2="50%" y2="99.1333861%" id="linearGradient-3">
            <stop stop-color="#FFFFFF" offset="0%"></stop>
            <stop stop-color="#FFFFFF" stop-opacity="0.35" offset="100%"></stop>
        </linearGradient>
    </defs>
    <g id="页面-1" stroke="none" stroke-width="1" fill="none" fill-rule="evenodd">
        <g id="画板" transform="translate(-439.000000, -306.000000)" fill-rule="nonzero">
            <g id="db2" transform="translate(439.000000, 306.000000)">
                <path d="M6.08453174,18.057765 L6.08453174,4.0672665 C6.08453174,3.54468473 5.92448388,3.19953123 5.60438816,3.03180607 C5.43484586,2.94863653 5.12560086,2.90566558 4.67800934,2.90566558 L4.67800934,19.2179797 C5.16900364,19.2179797 5.47689236,19.1860981 5.60438816,19.1251071 C5.92448388,18.9573819 6.08453174,18.6025253 6.08453174,18.057765 L6.08453174,18.057765 Z M10.7937369,17.682116 C10.7937369,18.8894602 10.3854792,19.8874944 9.57032013,20.6789908 C8.67378073,21.5592016 7.45985835,22 5.93262187,22 L0,22 L0,0.1250315 L5.90142608,0.1250315 C7.43001892,0.1250315 8.64258503,0.556126817 9.53912434,1.41554518 C10.3759848,2.20565556 10.7937369,3.21616515 10.7937369,4.44430158 L10.7937369,17.682116 Z" id="Fill-58" fill="url(#linearGradient-1)"></path>
                <path d="M17.7333041,18.057765 L17.7333041,12.5048138 C17.7333041,11.9614396 17.6166591,11.6315338 17.3820125,11.5164827 C17.1460098,11.4014315 16.8069253,11.3432128 16.3566211,11.3432128 L16.3566211,19.2179797 C16.8286267,19.2179797 17.1256647,19.1860981 17.2531605,19.1251071 C17.5732562,18.9573819 17.7333041,18.6025253 17.7333041,18.057765 L17.7333041,18.057765 Z M17.7333041,7.78217147 L17.7333041,4.06172186 C17.7333041,3.52111998 17.6166591,3.1926004 17.3820125,3.07754929 C17.1460098,2.96388428 16.8069253,2.90566558 16.3566211,2.90566558 L16.3566211,8.93822774 C16.8286267,8.93822774 17.1256647,8.90634608 17.2531605,8.84396893 C17.5732562,8.67624377 17.7333041,8.32415953 17.7333041,7.78217147 L17.7333041,7.78217147 Z M22.289243,17.682116 C22.289243,18.9130248 21.9121811,19.9138313 21.1580572,20.6859217 C20.3225531,21.5605878 19.1411828,22 17.6112337,22 L11.6813244,22 L11.6813244,0.1250315 L17.2138267,0.1250315 C18.7627645,0.1250315 19.9712616,0.478501925 20.8366051,1.18682896 C21.7033051,1.89376981 22.1359769,2.83081306 22.1359769,3.99380007 L22.1359769,7.02117038 C22.1359769,7.68791274 22.0057685,8.23960381 21.7412825,8.67485758 C21.3167488,9.34159985 20.5368545,9.87249863 19.4056687,10.2675538 C20.5992461,10.5794395 21.4198304,11.0604365 21.8647093,11.7063865 C22.1481839,12.1236201 22.289243,12.6974898 22.289243,13.4266092 L22.289243,17.682116 Z" id="Fill-59" fill="url(#linearGradient-2)"></path>
                <path d="M34,21.9997228 L23.2686546,21.9997228 L23.2686546,19.1248299 L28.5841429,9.17914213 C28.9517104,8.4902213 29.1890695,7.84704369 29.2907949,7.2496094 C29.3938766,6.65494729 29.4454174,5.93830334 29.4454174,5.10106355 L29.4454174,4.25412066 C29.4454174,3.96025502 29.3586118,3.73708353 29.1836441,3.57906147 C29.0100329,3.42381169 28.7821681,3.34480062 28.4973372,3.34480062 C28.2328513,3.34480062 28.0022739,3.42381169 27.8096739,3.58044757 C27.6143613,3.73708353 27.5180612,3.96302738 27.5180612,4.25689303 L27.5180612,7.96902563 L23.2686546,7.96902563 L23.2686546,4.21946672 C23.2686546,2.8651898 23.7067518,1.82279854 24.5829461,1.09367912 C25.4591403,0.365945892 26.7951332,0 28.5882119,0 C30.5237061,0 31.9410791,0.480997 32.8389748,1.44021872 C33.6134437,2.25389386 34,3.40163313 34,4.88205052 L34,6.57316394 C34,7.03198247 33.9294705,7.54347495 33.7856986,8.10764148 C33.7450085,8.29477293 33.6622719,8.54566763 33.5402015,8.85893947 L28.2220006,19.2177025 L34,19.2177025 L34,21.9997228 Z" id="Fill-60" fill="url(#linearGradient-3)"></path>
            </g>
        </g>
    </g>
</svg>