<?xml version="1.0" encoding="UTF-8"?>
<svg width="30px" height="25px" viewBox="0 0 30 25" version="1.1" xmlns="http://www.w3.org/2000/svg" xmlns:xlink="http://www.w3.org/1999/xlink">
    <title>go</title>
    <defs>
        <linearGradient x1="50%" y1="0.763647697%" x2="50%" y2="99.1333861%" id="linearGradient-1">
            <stop stop-color="#FFFFFF" offset="0%"></stop>
            <stop stop-color="#FFFFFF" stop-opacity="0.35" offset="100%"></stop>
        </linearGradient>
        <linearGradient x1="50%" y1="0.763647697%" x2="50%" y2="99.1333861%" id="linearGradient-2">
            <stop stop-color="#FFFFFF" offset="0%"></stop>
            <stop stop-color="#FFFFFF" stop-opacity="0.35" offset="100%"></stop>
        </linearGradient>
    </defs>
    <g id="页面-1" stroke="none" stroke-width="1" fill="none" fill-rule="evenodd">
        <g id="画板" transform="translate(-508.000000, -305.000000)" fill-rule="nonzero">
            <g id="go" transform="translate(508.000000, 305.000000)">
                <path d="M18.685894,11.4320107 C17.7638648,11.4320107 17.016526,10.6854914 17.016526,9.76447316 C17.016526,8.84438802 17.7638648,8.09693553 18.685894,8.09693553 C19.6079232,8.09693553 20.355262,8.84438802 20.355262,9.76447316 C20.355262,10.6854914 19.6079232,11.4320107 18.685894,11.4320107 M20.7578908,5.6567504 C18.5364262,5.6567504 16.7288005,7.46146093 16.7288005,9.68142288 C16.7288005,11.9004516 18.5364262,13.7070285 20.7578908,13.7070285 C22.9802895,13.7070285 24.7879152,11.9004516 24.7879152,9.68142288 C24.7879152,7.46146093 22.9802895,5.6567504 20.7578908,5.6567504" id="Fill-1" fill="url(#linearGradient-1)"></path>
                <path d="M7.06486927,11.4320107 C6.14284005,11.4320107 5.39550126,10.6854914 5.39550126,9.76447316 C5.39550126,8.84438802 6.14284005,8.09693553 7.06486927,8.09693553 C7.9868985,8.09693553 8.73423731,8.84438802 8.73423731,9.76447316 C8.73423731,10.6854914 7.9868985,11.4320107 7.06486927,11.4320107 M9.13686609,5.6567504 C6.91446734,5.6567504 5.10777583,7.46146093 5.10777583,9.68142288 C5.10777583,11.9004516 6.91446734,13.7070285 9.13686609,13.7070285 C11.3592648,13.7070285 13.1668905,11.9004516 13.1668905,9.68142288 C13.1668905,7.46146093 11.3592648,5.6567504 9.13686609,5.6567504" id="Fill-3" fill="url(#linearGradient-1)"></path>
                <path d="M20.758171,14.2706506 C18.0210427,14.2706506 15.7949073,12.0460229 15.7949073,9.31282894 C15.7949073,6.5787018 18.0210427,4.35407412 20.758171,4.35407412 C23.4952994,4.35407412 25.7214347,6.5787018 25.7214347,9.31282894 C25.7214347,12.0460229 23.4952994,14.2706506 20.758171,14.2706506 M17.4511969,17.1904744 L16.261994,17.1904744 L16.261994,18.5752678 L14.0293195,18.5752678 L14.0293195,17.1904744 L12.7140031,17.1904744 C11.9704011,17.1904744 11.3622541,16.5829943 11.3622541,15.8402075 C11.3622541,15.0983539 11.9704011,14.4899406 12.7140031,14.4899406 L13.0830017,14.4899406 C13.0830017,14.4731439 13.079265,14.461013 13.079265,14.4432832 C13.079265,13.8395357 13.6874119,13.3468329 14.431014,13.3468329 L15.6650572,13.3468329 C16.4086593,13.3468329 17.0168062,13.8395357 17.0168062,14.4432832 C17.0168062,14.461013 17.0140037,14.4731439 17.0130696,14.4899406 L17.4511969,14.4899406 C18.194799,14.4899406 18.8029459,15.0983539 18.8029459,15.8402075 C18.8029459,16.5829943 18.194799,17.1904744 17.4511969,17.1904744 M4.17378918,9.31282894 C4.17378918,6.5787018 6.39992458,4.35407412 9.13705291,4.35407412 C11.8741812,4.35407412 14.1012508,6.5787018 14.1012508,9.31282894 C14.1012508,12.0460229 11.8741812,14.2706506 9.13705291,14.2706506 C6.39992458,14.2706506 4.17378918,12.0460229 4.17378918,9.31282894 M24.2491773,3.96495091 L23.698015,4.1525139 L23.4112238,3.64768019 C23.3271481,3.50304206 21.2887816,0.0989138145 15.5043793,0.00186629838 L15.0653178,0 L14.425409,0.00559889515 L14.425409,0.00279944757 C8.69705714,0.127841439 6.67550576,3.50304206 6.59049598,3.65047964 L6.30183637,4.14784816 L5.75441071,3.96495091 C5.71143873,3.94908738 1.27318051,2.47004591 0.262404803,5.15471613 C-0.779198631,7.92430294 1.60948297,9.28576763 1.71130788,9.34268966 L2.07283301,9.54238361 L2.07283301,25 L27.9316892,25 L27.9316892,9.54238361 L28.2922802,9.34268966 C28.3913026,9.28576763 30.7734449,7.89910791 29.7411832,5.15471613 C28.7304075,2.46911276 24.2930834,3.94908738 24.2491773,3.96495091" id="Fill-5" fill="url(#linearGradient-2)"></path>
            </g>
        </g>
    </g>
</svg>