<?xml version="1.0" encoding="UTF-8"?>
<svg width="27px" height="27px" viewBox="0 0 27 27" version="1.1" xmlns="http://www.w3.org/2000/svg" xmlns:xlink="http://www.w3.org/1999/xlink">
    <title>host</title>
    <defs>
        <linearGradient x1="50%" y1="1.50273485%" x2="50%" y2="100%" id="linearGradient-1">
            <stop stop-color="#FFFFFF" offset="0%"></stop>
            <stop stop-color="#FFFFFF" stop-opacity="0.35" offset="100%"></stop>
        </linearGradient>
    </defs>
    <g id="页面-1" stroke="none" stroke-width="1" fill="none" fill-rule="evenodd">
        <g id="画板" transform="translate(-206.000000, -347.000000)" fill-rule="nonzero">
            <g id="服务器主机,电脑主机" transform="translate(206.000000, 347.000000)">
                <rect id="矩形" fill="#000000" opacity="0" x="0" y="0" width="26.2548" height="26.2548"></rect>
                <path d="M19.6911,0 L6.5637,0 C5.6586273,0 4.922775,0.733288359 4.922775,1.640925 L4.922775,25.4343375 C4.922775,25.8881558 5.28941918,26.2548 5.7432375,26.2548 L20.5115625,26.2548 C20.9653808,26.2548 21.332025,25.8881558 21.332025,25.4343375 L21.332025,1.640925 C21.332025,0.733288359 20.5961727,0 19.6911,0 Z M13.9991414,21.3192053 C13.78377,21.5345767 13.4837884,21.6704658 13.1556034,21.6704658 L13.1017605,21.6704658 C12.4428266,21.6704658 11.906962,21.1346012 11.906962,20.4756673 C11.906962,20.1449183 12.0402872,19.8475007 12.2582225,19.6321293 C12.4761579,19.4167579 12.7710116,19.2808687 13.1017605,19.2808687 L13.1556034,19.2808687 C13.8145373,19.2808687 14.3504019,19.8167333 14.3504019,20.4756673 C14.347838,20.8064162 14.2145128,21.1038339 13.9991414,21.3192053 L13.9991414,21.3192053 Z M12.2889899,17.2297125 C12.2889899,17.0040853 12.3812919,16.7989697 12.5300007,16.6502609 C12.6787096,16.501552 12.8838252,16.40925 13.1094524,16.40925 L13.1453476,16.40925 C13.5991659,16.40925 13.9658101,16.7758942 13.9658101,17.2297125 C13.9658101,17.4553397 13.8735081,17.6604553 13.7247993,17.8091641 C13.5760904,17.957873 13.3709748,18.050175 13.1453476,18.050175 L13.1094524,18.050175 C12.6556341,18.050175 12.2889899,17.6835308 12.2889899,17.2297125 L12.2889899,17.2297125 Z M18.0399192,14.3580938 C18.0399192,14.5837209 17.8553152,14.768325 17.629688,14.768325 L8.60972836,14.768325 C8.38410117,14.768325 8.19949711,14.5837209 8.19949711,14.3580938 L8.19949711,10.2557813 C8.19949711,10.0301541 8.38410117,9.84555 8.60972836,9.84555 L17.629688,9.84555 C17.8553152,9.84555 18.0399192,10.0301541 18.0399192,10.2557813 L18.0399192,14.3580938 Z M18.0399192,7.79439375 C18.0399192,8.02002094 17.8553152,8.204625 17.629688,8.204625 L8.60972836,8.204625 C8.38410117,8.204625 8.19949711,8.02002094 8.19949711,7.79439375 L8.19949711,6.97393125 C8.19949711,6.74830406 8.38410117,6.5637 8.60972836,6.5637 L17.629688,6.5637 C17.8553152,6.5637 18.0399192,6.74830406 18.0399192,6.97393125 L18.0399192,7.79439375 Z M18.050175,4.51254375 C18.050175,4.73817094 17.8655709,4.922775 17.6399438,4.922775 L8.61998414,4.922775 C8.39435695,4.922775 8.20975289,4.73817094 8.20975289,4.51254375 L8.20975289,3.69208125 C8.20975289,3.46645406 8.39435695,3.28185 8.61998414,3.28185 L17.6399438,3.28185 C17.8655709,3.28185 18.050175,3.46645406 18.050175,3.69208125 L18.050175,4.51254375 Z" id="形状" fill="url(#linearGradient-1)"></path>
                <path d="M16.3989942,11.5890328 L16.3989942,13.0248422 C16.3989942,13.081249 16.3528432,13.1274 16.2964364,13.1274 L9.94297992,13.1274 C9.88657313,13.1274 9.84042211,13.081249 9.84042211,13.0248422 L9.84042211,11.5890328 C9.84042211,11.532626 9.88657313,11.486475 9.94297992,11.486475 L16.2964364,11.486475 C16.3528432,11.486475 16.3989942,11.532626 16.3989942,11.5890328 Z" id="路径" fill="#B4B4B4"></path>
            </g>
        </g>
    </g>
</svg>