<?xml version="1.0" encoding="UTF-8"?>
<svg width="24px" height="31px" viewBox="0 0 24 31" version="1.1" xmlns="http://www.w3.org/2000/svg" xmlns:xlink="http://www.w3.org/1999/xlink">
    <title>java</title>
    <defs>
        <linearGradient x1="50%" y1="0.763647697%" x2="50%" y2="99.1333861%" id="linearGradient-1">
            <stop stop-color="#FFFFFF" offset="0%"></stop>
            <stop stop-color="#FFFFFF" stop-opacity="0.35" offset="100%"></stop>
        </linearGradient>
    </defs>
    <g id="页面-1" stroke="none" stroke-width="1" fill="none" fill-rule="evenodd">
        <g id="画板" transform="translate(-646.000000, -302.000000)" fill="url(#linearGradient-1)" fill-rule="nonzero">
            <g id="java" transform="translate(646.000000, 302.000000)">
                <path d="M13.95,0 C15.6324,3.94581786 7.9176,6.36291447 7.2,9.65169224 C6.5436,12.6697839 11.7708,16.2101687 11.7756,16.2101687 C10.9776,14.9616732 10.3968,13.9087397 9.6,11.9614684 C8.25,8.67269062 17.826,5.70587438 13.95,0 Z M19.05,5.47811643 C19.05,5.47811643 12.3048,5.90143624 11.9628,10.2848833 C11.8068,12.2369244 13.7436,13.2612391 13.8,14.6826399 C13.848,15.8417014 12.6372,16.8052013 12.6372,16.8052013 C12.6372,16.8052013 14.808,16.4152701 15.4872,14.6444814 C16.2372,12.6793234 14.0256,11.3378169 14.25,9.76259017 C14.466,8.25891037 19.05,5.47811643 19.05,5.47811643 Z M20.7,15.5757851 C19.992,15.5435889 19.1952,15.8047355 18.4872,16.3210665 C19.884,16.0146068 21.0756,16.8850955 21.0756,17.8867536 C21.0756,20.1321374 17.85,22.2463517 17.85,22.2463517 C17.85,22.2463517 22.8372,21.6918624 22.8372,17.9988439 C22.8372,16.4748925 21.8772,15.6318302 20.7,15.5757851 L20.7,15.5757851 Z M7.4628,15.6139435 C5.7228,15.673566 2.25,15.9585616 2.25,17.2905286 C2.25,19.1447886 10.3404,19.2890751 16.1256,18.1479003 C16.1256,18.1479003 17.7,17.0580007 18.1128,16.6573375 C14.3208,17.4395848 5.6628,17.5612147 5.6628,16.8803256 C5.6628,16.2566742 8.4372,15.6139435 8.4372,15.6139435 C8.4372,15.6139435 8.0436,15.5948643 7.4628,15.6139435 Z M6.9372,19.042238 C5.9856,19.042238 4.5744,19.7779797 4.5744,20.4946423 C4.5744,21.9386996 11.7384,23.0476783 17.0256,20.9418112 L15.1872,19.8244853 C11.6016,20.9895092 4.9776,20.6019628 6.9372,19.042238 Z M7.8372,22.2833177 C6.5388,22.2833177 5.7,23.0989537 5.7,23.6999486 C5.7,25.5482465 13.458,25.7306914 16.5372,23.8490049 L14.5872,22.5814303 C12.2904,23.5652017 6.5112,23.7094882 7.8372,22.2833177 Z M3.4872,23.9610952 C1.3692,23.9193595 0,24.8733196 0,25.6734537 C0,29.9352709 21.7128,29.7313619 21.7128,25.3753412 C21.7128,24.6539088 20.8548,24.3092906 20.55,24.145925 C22.3224,28.3099612 2.8128,27.9844223 2.8128,25.5243975 C2.8128,24.9663307 4.2564,24.4070716 5.5872,24.6682182 L4.4628,24.0338346 C4.13967883,23.9870965 3.81371674,23.9623947 3.4872,23.9599027 L3.4872,23.9610952 Z M24,26.8301305 C20.7,30.0020481 12.348,31.1384532 3.9372,29.178065 C12.3468,32.6719442 23.958,30.7282504 24,26.8301305 Z" id="示例1"></path>
            </g>
        </g>
    </g>
</svg>