<?xml version="1.0" encoding="UTF-8"?>
<svg width="28px" height="28px" viewBox="0 0 28 28" version="1.1" xmlns="http://www.w3.org/2000/svg" xmlns:xlink="http://www.w3.org/1999/xlink">
    <title>loadbalance</title>
    <defs>
        <linearGradient x1="50%" y1="1.50273485%" x2="50%" y2="100%" id="linearGradient-1">
            <stop stop-color="#FFFFFF" offset="0%"></stop>
            <stop stop-color="#FFFFFF" stop-opacity="0.35" offset="100%"></stop>
        </linearGradient>
    </defs>
    <g id="页面-1" stroke="none" stroke-width="1" fill="none" fill-rule="evenodd">
        <g id="画板" transform="translate(-410.000000, -347.000000)" fill-rule="nonzero">
            <g id="负载均衡" transform="translate(410.000000, 347.000000)">
                <rect id="矩形" fill="#000000" opacity="0" x="0" y="0" width="27.3" height="27.3"></rect>
                <path d="M23.205,17.574375 C22.693125,17.574375 22.18125,17.745 21.669375,17.915625 L16.550625,8.53125 C17.40375,7.678125 18.08625,6.654375 18.08625,5.289375 C18.08625,2.900625 16.209375,1.02375 13.820625,1.02375 C11.431875,1.02375 9.555,3.07125 9.555,5.289375 C9.555,6.313125 9.89625,7.336875 10.57875,8.19 L5.289375,17.745 C4.948125,17.745 4.606875,17.574375 4.265625,17.574375 C1.876875,17.574375 -1.51545443e-15,19.45125 -1.51545443e-15,21.84 C-1.51545443e-15,24.22875 1.876875,26.105625 4.265625,26.105625 C6.313125,26.105625 8.019375,24.57 8.360625,22.5225 L18.939375,22.5225 C19.280625,24.57 20.986875,26.105625 23.034375,26.105625 C25.423125,26.105625 27.3,24.22875 27.3,21.84 C27.3,19.45125 25.59375,17.574375 23.205,17.574375 L23.205,17.574375 Z M12.114375,9.21375 C12.62625,9.555 13.30875,9.555 13.820625,9.555 C14.161875,9.555 14.67375,9.555 15.015,9.384375 L20.304375,18.76875 C19.7925,19.280625 19.45125,19.963125 19.280625,20.81625 L8.53125,20.81625 C8.360625,19.7925 7.678125,18.939375 6.995625,18.4275 L12.114375,9.21375 L12.114375,9.21375 Z" id="形状" fill="url(#linearGradient-1)"></path>
            </g>
        </g>
    </g>
</svg>