<?xml version="1.0" encoding="UTF-8"?>
<svg width="34px" height="34px" viewBox="0 0 34 34" version="1.1" xmlns="http://www.w3.org/2000/svg" xmlns:xlink="http://www.w3.org/1999/xlink">
    <title>machine</title>
    <defs>
        <linearGradient x1="50%" y1="1.50273485%" x2="50%" y2="100%" id="linearGradient-1">
            <stop stop-color="#FFFFFF" offset="0%"></stop>
            <stop stop-color="#FFFFFF" stop-opacity="0.35" offset="100%"></stop>
        </linearGradient>
    </defs>
    <g id="页面-1" stroke="none" stroke-width="1" fill="none" fill-rule="evenodd">
        <g id="画板" transform="translate(-272.000000, -344.000000)" fill-rule="nonzero">
            <g id="PC虚拟机" transform="translate(272.000000, 344.000000)">
                <rect id="矩形" fill="#000000" opacity="0" x="0" y="0" width="33.7428" height="33.7428"></rect>
                <path d="M27.416025,7.73272501 L10.544625,7.73272501 C8.99808001,7.73272501 7.73272501,8.99808001 7.73272501,10.544625 L7.73272501,21.792225 C7.73272501,23.33877 8.99808001,24.604125 10.544625,24.604125 L16.168425,24.604125 L15.46545,28.119 L13.0050375,28.119 C12.4426575,28.119 11.950575,28.6110825 11.950575,29.1734625 C11.950575,29.7358425 12.4426575,30.227925 13.0050375,30.227925 L24.9556125,30.227925 C25.5179925,30.227925 26.010075,29.7358425 26.010075,29.1734625 C26.010075,28.6110825 25.5179925,28.119 24.9556125,28.119 L22.4952,28.119 L21.792225,24.604125 L27.416025,24.604125 C28.96257,24.604125 30.227925,23.33877 30.227925,21.792225 L30.227925,10.544625 C30.227925,8.99808001 28.96257,7.73272501 27.416025,7.73272501 L27.416025,7.73272501 Z M21.792225,20.386275 L15.5357475,20.386275 C13.918905,20.386275 12.65355,19.12092 12.65355,17.5040775 C12.65355,15.887235 13.918905,14.62188 15.5357475,14.62188 C15.5357475,12.7238475 17.0822925,11.1773025 18.980325,11.1773025 C20.52687,11.1773025 21.792225,12.1614675 22.21401,13.49712 C23.90115,13.7080125 25.2368025,15.18426 25.2368025,16.9416975 C25.2368025,18.83973 23.6902575,20.386275 21.792225,20.386275 L21.792225,20.386275 Z M3.51487501,15.46545 L5.62380001,15.46545 L5.62380001,13.356525 L3.51487501,13.356525 L3.51487501,15.46545 Z M3.51487501,18.980325 C3.51487501,18.980325 3.51487501,19.0506225 3.51487501,18.980325 C3.51487501,20.386275 5.62380001,20.3159775 5.62380001,18.980325 L5.62380001,17.574375 L3.51487501,17.574375 L3.51487501,18.980325 Z M3.51487501,11.2476 L5.62380001,11.2476 L5.62380001,9.13867499 L3.51487501,9.13867499 L3.51487501,11.2476 Z M23.9714475,3.51487501 C23.9714475,3.51487501 23.90115,3.51487501 23.9714475,3.51487501 L22.4952,3.51487501 L22.4952,5.62380001 L23.90115,5.62380001 C25.2368025,5.62380001 25.3071,3.51487501 23.9714475,3.51487501 L23.9714475,3.51487501 Z M14.0595,5.62380001 L16.168425,5.62380001 L16.168425,3.51487501 L14.0595,3.51487501 L14.0595,5.62380001 L14.0595,5.62380001 Z M18.27735,5.62380001 L20.386275,5.62380001 L20.386275,3.51487501 L18.27735,3.51487501 L18.27735,5.62380001 L18.27735,5.62380001 Z M3.51487501,6.326775 L3.51487501,7.02974999 L5.62380001,7.02974999 L5.62380001,6.326775 C5.62380001,5.90499 5.90499,5.62380001 6.326775,5.62380001 L7.73272501,5.62380001 L7.73272501,3.51487501 L6.326775,3.51487501 C4.78023001,3.51487501 3.51487501,4.78023001 3.51487501,6.326775 Z M9.84165001,5.62380001 L11.950575,5.62380001 L11.950575,3.51487501 L9.84165001,3.51487501 L9.84165001,5.62380001 L9.84165001,5.62380001 Z" id="形状" fill="url(#linearGradient-1)"></path>
            </g>
        </g>
    </g>
</svg>