<?xml version="1.0" encoding="UTF-8"?>
<svg width="25px" height="25px" viewBox="0 0 25 25" version="1.1" xmlns="http://www.w3.org/2000/svg" xmlns:xlink="http://www.w3.org/1999/xlink">
    <title>memcached</title>
    <defs>
        <linearGradient x1="50%" y1="0.763647697%" x2="50%" y2="99.1333861%" id="linearGradient-1">
            <stop stop-color="#FFFFFF" offset="0%"></stop>
            <stop stop-color="#FFFFFF" stop-opacity="0.35" offset="100%"></stop>
        </linearGradient>
    </defs>
    <g id="页面-1" stroke="none" stroke-width="1" fill="none" fill-rule="evenodd">
        <g id="画板" transform="translate(-713.000000, -305.000000)" fill="url(#linearGradient-1)" fill-rule="nonzero">
            <g id="memcached" transform="translate(713.000000, 305.000000)">
                <polygon id="Fill-49" points="21.2666725 0 21.2666725 0.0199097414 21.2307122 0 12.5 12.5 3.76928779 0 3.73332754 0.0199097414 3.73332754 0 0 0 0 25 3.73332754 25 3.73332754 6.31028224 10.3609101 16.476418 14.6380001 16.476418 21.2666725 6.31028224 21.2666725 25 25 25 25 0"></polygon>
                <path d="M11.5384615,23.0781402 C11.5384615,24.1382668 10.6774005,25 9.6166026,25 C8.55336882,25 7.69230769,24.1382668 7.69230769,23.0781402 C7.69230769,22.0143622 8.55336882,21.1538462 9.6166026,21.1538462 C10.6774005,21.1538462 11.5384615,22.0143622 11.5384615,23.0781402" id="Fill-50"></path>
                <path d="M17.3076923,23.0781402 C17.3076923,24.1382668 16.4490671,25 15.388269,25 C14.3225995,25 13.4615385,24.1382668 13.4615385,23.0781402 C13.4615385,22.0143622 14.3225995,21.1538462 15.388269,21.1538462 C16.4490671,21.1538462 17.3076923,22.0143622 17.3076923,23.0781402" id="Fill-51"></path>
            </g>
        </g>
    </g>
</svg>