<?xml version="1.0" encoding="UTF-8"?>
<svg width="25px" height="28px" viewBox="0 0 25 28" version="1.1" xmlns="http://www.w3.org/2000/svg" xmlns:xlink="http://www.w3.org/1999/xlink">
    <title>mq</title>
    <defs>
        <linearGradient x1="50%" y1="0.763647697%" x2="50%" y2="99.1333861%" id="linearGradient-1">
            <stop stop-color="#FFFFFF" offset="0%"></stop>
            <stop stop-color="#FFFFFF" stop-opacity="0.35" offset="100%"></stop>
        </linearGradient>
    </defs>
    <g id="页面-1" stroke="none" stroke-width="1" fill="none" fill-rule="evenodd">
        <g id="画板" transform="translate(-175.000000, -372.000000)" fill="url(#linearGradient-1)" fill-rule="nonzero">
            <g id="mq" transform="translate(175.000000, 372.000000)">
                <path d="M5.24162783,0 C6.72556695,0 7.94159677,1.22325 7.94159677,2.716 C7.94159677,3.86987886 7.22729634,4.8540182 6.212173,5.25131055 L6.21120492,8.81359365 C8.00642008,9.14544081 9.48350724,10.4047608 10.124211,12.0794338 L16.6795936,9.02226702 C16.5721207,8.66563553 16.514694,8.28921739 16.514694,7.89425 C16.514694,5.74875 18.2517552,4.00225 20.3828518,4.00225 C22.5139484,4.00225 24.2510096,5.74875 24.2510096,7.89425 C24.2510096,10.038 22.5139484,11.7845 20.3828518,11.7845 C19.3688852,11.7845 18.4382636,11.3855375 17.7437779,10.7328501 L10.4825048,14.1196427 C10.473904,14.4583523 10.4313634,14.7883365 10.3618748,15.1069579 L17.1255172,18.5531601 C17.809238,17.4647621 19.0164871,16.739625 20.3985089,16.739625 C22.5304752,16.739625 24.2666667,18.487 24.2666667,20.615 C24.2666667,22.75875 22.5304752,24.506125 20.3985089,24.506125 C18.2674122,24.506125 16.530351,22.75875 16.530351,20.615 C16.530351,20.5754063 16.5313296,20.5357578 16.5330421,20.496082 L9.57060613,16.9485932 C8.80175319,18.0890789 7.60152579,18.9106818 6.21185892,19.1700303 L6.212173,22.7489414 C7.22729634,23.1466662 7.94159677,24.13023 7.94159677,25.284875 C7.94159677,26.777625 6.72556695,28 5.24162783,28 C3.75768872,28 2.54252874,26.777625 2.54252874,25.284875 C2.54252874,24.1532508 3.22798961,23.17371 4.21077484,22.7682166 L4.21099697,19.15889 C1.80818635,18.6842239 0,16.5462261 0,13.992125 C0,11.4378586 1.80842039,9.31428426 4.21146347,8.82810086 L4.21125067,5.22705035 C3.22821087,4.81502035 2.54252874,3.84705579 2.54252874,2.716 C2.54252874,1.22325 3.75768872,0 5.24162783,0 Z" id="形状结合"></path>
            </g>
        </g>
    </g>
</svg>