<?xml version="1.0" encoding="UTF-8"?>
<svg width="32px" height="24px" viewBox="0 0 32 24" version="1.1" xmlns="http://www.w3.org/2000/svg" xmlns:xlink="http://www.w3.org/1999/xlink">
    <title>mysql</title>
    <defs>
        <linearGradient x1="50%" y1="0.763647697%" x2="50%" y2="99.1333861%" id="linearGradient-1">
            <stop stop-color="#FFFFFF" offset="0%"></stop>
            <stop stop-color="#FFFFFF" stop-opacity="0.35" offset="100%"></stop>
        </linearGradient>
    </defs>
    <g id="页面-1" stroke="none" stroke-width="1" fill="none" fill-rule="evenodd">
        <g id="画板" transform="translate(-239.000000, -375.000000)" fill="url(#linearGradient-1)" fill-rule="nonzero">
            <g id="mysql" transform="translate(239.000000, 375.000000)">
                <path d="M7.0088848,0.949320168 C9.47331007,0.114100968 12.0992253,0.499762274 14.5989054,0.937910063 C17.4954865,1.49586383 20.3226953,0.370828211 23.1658256,0 C22.6256308,1.42512126 21.4087711,3.04991916 22.3617883,4.56061617 C23.6173147,6.79927739 25.1116639,8.90101743 26.0396617,11.3119711 C26.9005615,13.4890178 27.1962471,17.2771703 27.3884427,19.4975753 C29.2649087,20.6077779 30.8832185,22.1139108 32,24 C29.7198095,23.1316915 27.33158,21.8754397 24.8466842,22.7905296 C25.1082522,21.6951603 25.5836236,20.5883807 25.4551141,19.4450889 C24.9831545,18.0256728 23.2499822,15.5930398 22.0262989,14.6574118 C18.7362286,12.6366835 15.5291777,10.3911762 11.8296965,9.17714181 C12.2720876,10.359228 12.6985571,11.5493011 13.1454972,12.7359513 C10.7242874,11.4796995 8.9513114,9.40077971 7.02821805,7.53751074 C5.14265409,5.67538274 2.34615107,6.46610248 0,6.39079587 C2.02772052,4.24113339 4.06908808,1.82105162 7.0088848,0.949320168" id="Fill-57"></path>
            </g>
        </g>
    </g>
</svg>