<?xml version="1.0" encoding="UTF-8"?>
<svg width="37px" height="21px" viewBox="0 0 37 21" version="1.1" xmlns="http://www.w3.org/2000/svg" xmlns:xlink="http://www.w3.org/1999/xlink">
    <title>netcore</title>
    <defs>
        <linearGradient x1="50%" y1="1.50273485%" x2="50%" y2="100%" id="linearGradient-1">
            <stop stop-color="#FFFFFF" offset="0%"></stop>
            <stop stop-color="#FFFFFF" stop-opacity="0.35" offset="100%"></stop>
        </linearGradient>
        <linearGradient x1="50%" y1="0.763647697%" x2="50%" y2="99.1333861%" id="linearGradient-2">
            <stop stop-color="#FFFFFF" offset="0%"></stop>
            <stop stop-color="#FFFFFF" stop-opacity="0.35" offset="100%"></stop>
        </linearGradient>
        <linearGradient x1="50%" y1="1.50273485%" x2="50%" y2="100%" id="linearGradient-3">
            <stop stop-color="#FFFFFF" offset="0%"></stop>
            <stop stop-color="#FFFFFF" stop-opacity="0.35" offset="100%"></stop>
        </linearGradient>
    </defs>
    <g id="页面-1" stroke="none" stroke-width="1" fill="none" fill-rule="evenodd">
        <g id="画板" transform="translate(-371.000000, -376.000000)" fill-rule="nonzero">
            <g id="netcore" transform="translate(371.000000, 376.000000)">
                <path d="M8.66988418,10.7528417 L8.66988418,4.32282379 L8.69911751,4.32282379 L12.8283254,10.7528417 L15.4812502,10.7528417 L15.4812502,0.0531751118 L12.9233338,0.0531751118 L12.9233338,6.58537267 L12.8867921,6.58537267 L8.69911751,0.0531751118 L6.11196776,0.0531751118 L6.11196776,10.7528417 L8.66988418,10.7528417 Z M26.1520361,10.6996666 L26.1520361,8.59038718 L20.2980617,8.59038718 L20.2980617,6.07968778 L25.5673695,6.07968778 L25.5673695,4.09448361 L20.2980617,4.09448361 L20.2980617,2.04359253 L25.9766361,2.04359253 L25.9766361,0 L17.5647453,0 L17.5647453,10.6996666 L26.1520361,10.6996666 Z M33.7185587,10.6996666 L33.7185587,2.21145906 L37,2.21145906 L37,0 L27.7038009,0 L27.7038009,2.21145906 L30.9852422,2.21145906 L30.9852422,10.6996666 L33.7185587,10.6996666 Z" id="NET" fill="url(#linearGradient-1)"></path>
                <path d="M4.27641863,9.15268394 C4.27641863,10.329827 3.3190317,11.2866781 2.13956355,11.2866781 C0.95738704,11.2866781 0,10.329827 0,9.15268394 C0,7.9714864 0.95738704,7.01598681 2.13956355,7.01598681 C3.3190317,7.01598681 4.27641863,7.9714864 4.27641863,9.15268394" id="Fill-50" fill="url(#linearGradient-2)"></path>
                <path d="M12.1179981,21 C13.5406868,21 14.4246471,20.3215829 14.7698788,18.9647487 L14.7698788,18.9647487 L13.3416218,18.5226654 C13.1550853,19.3484436 12.7277218,19.7613327 12.0595314,19.7613327 C11.1630426,19.7613327 10.7147982,19.1176706 10.7147982,17.8303463 C10.7147982,17.3827022 10.7788331,17.0073485 10.906903,16.7042851 C11.1324172,16.1787899 11.5305473,15.9160423 12.1012933,15.9160423 C12.6859599,15.9160423 13.082698,16.228837 13.2915075,16.8544266 L13.2915075,16.8544266 L14.7364692,16.5207788 C14.3633963,15.2918429 13.4850043,14.6773749 12.1012933,14.6773749 C11.2465664,14.6773749 10.5519268,14.9331716 10.0173745,15.4447648 C9.42157135,16.0091856 9.12366979,16.8127206 9.12366979,17.8553699 C9.12366979,18.736756 9.34639993,19.4554889 9.7918602,20.0115685 C10.315276,20.6705228 11.0906553,21 12.1179981,21 Z M18.1163774,21 C18.9070694,21 19.5237535,20.748374 19.9664296,20.2451219 C20.347855,19.8141603 20.5385677,19.2914454 20.5385677,18.6769775 C20.5385677,18.0569487 20.347855,17.5342339 19.9664296,17.108833 C19.5265376,16.6167025 18.9070694,16.3706373 18.1080251,16.3706373 C17.3451743,16.3706373 16.745195,16.6041908 16.3080871,17.0712976 C15.9071729,17.4994789 15.7067158,18.0430467 15.7067158,18.7020011 C15.7067158,19.3498338 15.909957,19.8864506 16.3164395,20.3118515 C16.7591157,20.7706172 17.359095,21 18.1163774,21 Z M18.1247298,19.9323272 C17.8184759,19.9323272 17.579041,19.8169406 17.4064251,19.5861676 C17.2421617,19.3665162 17.1600299,19.071794 17.1600299,18.7020011 C17.1600299,18.2793806 17.2560823,17.9568544 17.448187,17.7344225 C17.6180188,17.5370143 17.843533,17.4383102 18.1247298,17.4383102 C18.4476885,17.4383102 18.6926917,17.5662085 18.8597393,17.8220051 C19.0100821,18.0444369 19.0852535,18.3349885 19.0852535,18.6936599 C19.0852535,19.1023784 18.9878091,19.4165633 18.7929202,19.6362148 C18.6230885,19.833623 18.4003584,19.9323272 18.1247298,19.9323272 Z M23.0957664,20.8957351 L23.0957664,19.4693909 C23.0957664,18.8882877 23.1277839,18.4670574 23.1918188,18.2057 C23.3003998,17.7663971 23.5161696,17.5467457 23.8391283,17.5467457 C24.0033917,17.5467457 24.185752,17.6009634 24.3862092,17.709399 L24.3862092,17.709399 L24.8330615,16.591679 C24.5435123,16.4443179 24.2776282,16.3706373 24.0354092,16.3706373 C23.6094378,16.3706373 23.2683823,16.6292143 23.0122426,17.1463684 L23.0122426,17.1463684 L22.9955379,17.1463684 L22.9955379,16.4707317 L21.6508047,16.4707317 L21.6508047,20.8957351 L23.0957664,20.8957351 Z M27.6408317,21 C28.74613,21 29.4700029,20.5690383 29.8124505,19.7071149 L29.8124505,19.7071149 L28.3841935,19.5361205 C28.2310665,19.8781094 27.9804951,20.0491039 27.6324793,20.0491039 C27.0478127,20.0491039 26.7373825,19.7196267 26.7011889,19.0606724 L26.7011889,19.0606724 L29.8917981,19.0606724 C29.9196394,17.2673157 29.1289474,16.3706373 27.5197222,16.3706373 C26.7707921,16.3706373 26.1930858,16.6153124 25.7866033,17.1046624 C25.4330192,17.5300633 25.2562271,18.0625095 25.2562271,18.7020011 C25.2562271,19.6250932 25.5986747,20.2882181 26.2835699,20.6913758 C26.6315857,20.8971253 27.0840063,21 27.6408317,21 Z M28.4468364,18.2891119 L26.7095413,18.2891119 C26.703973,18.0194133 26.7847127,17.7886403 26.9517603,17.5967928 C27.1188079,17.4049454 27.3345777,17.3090217 27.5990698,17.3090217 C28.0918602,17.3090217 28.3744491,17.6357184 28.4468364,18.2891119 L28.4468364,18.2891119 Z" id="Core" fill="url(#linearGradient-3)"></path>
            </g>
        </g>
    </g>
</svg>