<?xml version="1.0" encoding="UTF-8"?>
<svg width="30px" height="28px" viewBox="0 0 30 28" version="1.1" xmlns="http://www.w3.org/2000/svg" xmlns:xlink="http://www.w3.org/1999/xlink">
    <title>network</title>
    <defs>
        <linearGradient x1="50%" y1="1.50273485%" x2="50%" y2="100%" id="linearGradient-1">
            <stop stop-color="#FFFFFF" offset="0%"></stop>
            <stop stop-color="#FFFFFF" stop-opacity="0.35" offset="100%"></stop>
        </linearGradient>
    </defs>
    <g id="页面-1" stroke="none" stroke-width="1" fill="none" fill-rule="evenodd">
        <g id="画板" transform="translate(-441.000000, -372.000000)" fill="url(#linearGradient-1)" fill-rule="nonzero">
            <g id="network" transform="translate(441.000000, 372.000000)">
                <path d="M19.0035114,0 L19.0035114,8.05973746 L15.911,8.059 L15.911,11.858 L27.0893254,11.8586196 L27.089,19.941 L30,19.941046 L30,28 L21.8339413,28 L21.8339413,19.941046 L24.994,19.941 L24.994,13.957 L15.911,13.957 L15.911,19.941 L19.0018985,19.941046 L19.0018985,28 L10.8358398,28 L10.8358398,19.941046 L13.816,19.941 L13.816,13.957 L5.063,13.957 L5.063,19.941 L7.66961708,19.941046 L7.66961708,28 L0,28 L0,19.941046 L2.968,19.941 L2.96866955,11.8586196 L13.816,11.858 L13.816,8.059 L10.9964886,8.05973746 L10.9964886,0 L19.0035114,0 Z M27.8324121,22.4901906 L24.1655963,22.4901906 L24.1655963,25.4496801 L27.8324121,25.4496801 L27.8324121,22.4901906 Z M16.8343106,22.4901906 L13.1686678,22.4901906 L13.1686678,25.4496801 L16.8343106,25.4496801 L16.8343106,22.4901906 Z M5.83738219,22.4901906 L2.17056633,22.4901906 L2.17056633,25.4496801 L5.83738219,25.4496801 L5.83738219,22.4901906 Z M16.8362902,2.54404533 L13.1713804,2.54404533 L13.1713804,5.50863286 L16.8362902,5.50863286 L16.8362902,2.54404533 Z" id="形状结合"></path>
            </g>
        </g>
    </g>
</svg>