<?xml version="1.0" encoding="UTF-8"?>
<svg width="24px" height="28px" viewBox="0 0 24 28" version="1.1" xmlns="http://www.w3.org/2000/svg" xmlns:xlink="http://www.w3.org/1999/xlink">
    <title>nodejs</title>
    <defs>
        <linearGradient x1="50%" y1="0.763647697%" x2="50%" y2="99.1333861%" id="linearGradient-1">
            <stop stop-color="#FFFFFF" offset="0%"></stop>
            <stop stop-color="#FFFFFF" stop-opacity="0.35" offset="100%"></stop>
        </linearGradient>
        <linearGradient x1="50%" y1="0.763647697%" x2="50%" y2="99.1333861%" id="linearGradient-2">
            <stop stop-color="#FFFFFF" offset="0%"></stop>
            <stop stop-color="#FFFFFF" stop-opacity="0.35" offset="100%"></stop>
        </linearGradient>
    </defs>
    <g id="页面-1" stroke="none" stroke-width="1" fill="none" fill-rule="evenodd">
        <g id="画板" transform="translate(-511.000000, -372.000000)" fill-rule="nonzero">
            <g id="nodejs" transform="translate(511.000000, 372.000000)">
                <path d="M17.0552422,14.2362995 C16.636174,13.9278249 16.107703,13.7172317 15.2890365,13.5274012 C14.1467974,13.2525424 14.0633547,13.2317797 13.8547477,13.1398305 C13.4440238,12.95 13.2623039,12.695904 13.2623039,12.316243 C13.2623039,11.7141243 13.7963378,11.3087571 14.5908986,11.3087571 C15.1036081,11.3087571 15.5143321,11.4738701 15.7479719,11.771469 C15.9000231,11.9612995 15.9593602,12.1165255 16.0168431,12.4605932 L16.0483659,12.6524012 L17.9276829,12.415113 L17.8831801,12.1946328 C17.745963,11.5529661 17.608746,11.2079096 17.3380205,10.8282486 C16.7891524,10.041243 15.8397589,9.625 14.5908986,9.625 C12.6791316,9.625 11.4413969,10.7036724 11.4413969,12.3725989 C11.4413969,13.1764125 11.7436452,13.8526837 12.3184733,14.3312147 C12.7162172,14.6634181 13.1491926,14.8512712 13.9650776,15.0480226 L14.131036,15.0875706 C15.403075,15.4019774 15.4522135,15.4128531 15.7275747,15.5730226 C15.9927374,15.7262712 16.1484972,16.0396893 16.1484972,16.4153955 C16.1484972,17.130226 15.6116819,17.5425142 14.6761956,17.5425142 C14.0559375,17.5425142 13.5710422,17.3388419 13.3049525,16.9670905 C13.1464112,16.750565 13.0907827,16.5637006 13.0555513,16.0950565 L13.0351541,15.8874294 L11.1428571,16.0990113 L11.1725257,16.3115819 C11.2337171,16.7495763 11.2782199,16.9918079 11.3820598,17.2765537 C11.5943753,17.8618644 11.9272193,18.3196328 12.3703933,18.6399718 C12.9025728,19.0166667 13.7824306,19.25 14.6650699,19.25 C15.8369775,19.25 16.6945839,18.956356 17.2879549,18.3463277 C17.7552345,17.85 18,17.1470339 18,16.3135594 C18,15.4177967 17.6921888,14.7385594 17.0552422,14.2362995" id="Fill-41" fill="url(#linearGradient-1)"></path>
                <path d="M12.4552578,0.122751632 C12.1771546,-0.0409172105 11.8317526,-0.0409172105 11.5506804,0.122751632 L0.456247424,6.65940211 C0.175175297,6.82509159 0.00296909363,7.13020258 0.00296909363,7.46158147 L0,20.5348825 C0,20.8672717 0.173195877,21.1713724 0.453278403,21.3370619 C0.453278403,21.3370619 1.66663922,22.0533656 2.63752583,22.6251962 C2.76024748,22.6969276 2.87802061,22.7656281 2.98787628,22.8312977 C3.56981444,23.1596457 4.14581442,23.6284256 4.81979384,23.8082592 C4.93360827,23.8405889 5.04544329,23.867867 5.15826806,23.8921143 C6.10342272,24.0820509 7.11092784,23.9406087 7.94325774,23.4768804 C8.03529899,23.4243446 8.12734024,23.3697884 8.21443298,23.3091703 C8.87554642,22.9232351 9.22193818,22.0978188 9.27340208,21.3017013 C9.27736085,21.2026917 9.27637118,21.1016616 9.27241241,21.0006315 L9.27241241,20.717747 L9.27241241,9.04674452 L6.88328398,9.04674452 L6.88328398,20.717747 C6.88328398,20.8228184 6.8743767,20.9097043 6.85260352,20.9864872 C6.83280975,21.0612495 6.80509838,21.1269191 6.76452103,21.1804651 C6.37557258,21.7391618 5.76197941,21.7391618 5.2295258,21.5057821 C5.09888662,21.4492053 4.97913406,21.384546 4.87719593,21.3249382 C4.6515464,21.193599 4.35364953,21.0208375 4.05476291,20.8480759 C3.45698968,20.4995219 2.86119587,20.1499576 2.86119587,20.1499576 L2.85228866,20.1368237 L2.1800636,19.5266016 L2.63752583,8.54560547 L11.9970309,3.14316406 L21.4074519,8.54560547 L21.4074519,19.8219809 L12,25.3595052 L9.73174579,23.8921143 C9.27241241,24.4996516 8.27777319,25.3408866 7.60973196,25.5005142 C7.59389689,25.5035451 7.58004124,25.5035451 7.5632165,25.5075863 L11.5437526,27.8757329 C11.6842886,27.959588 11.8406598,28 11.9970309,28 C12.1543918,28 12.3097732,27.959588 12.4503093,27.8757329 L23.5447422,21.3400927 C23.8248247,21.1744033 23.9980206,20.8692922 23.9980206,20.5389236 L24,7.4646124 C24,7.13525407 23.8268041,6.8291328 23.5477113,6.66344332 L12.4552578,0.122751632 Z" id="Fill-42" fill="url(#linearGradient-2)"></path>
            </g>
        </g>
    </g>
</svg>