<?xml version="1.0" encoding="UTF-8"?>
<svg width="31px" height="26px" viewBox="0 0 31 26" version="1.1" xmlns="http://www.w3.org/2000/svg" xmlns:xlink="http://www.w3.org/1999/xlink">
    <title>nosql</title>
    <defs>
        <linearGradient x1="50%" y1="1.50273485%" x2="50%" y2="100%" id="linearGradient-1">
            <stop stop-color="#FFFFFF" offset="0%"></stop>
            <stop stop-color="#FFFFFF" stop-opacity="0.35" offset="100%"></stop>
        </linearGradient>
        <linearGradient x1="50%" y1="1.50273485%" x2="50%" y2="100%" id="linearGradient-2">
            <stop stop-color="#FFFFFF" offset="0%"></stop>
            <stop stop-color="#FFFFFF" stop-opacity="0.35" offset="100%"></stop>
        </linearGradient>
    </defs>
    <g id="页面-1" stroke="none" stroke-width="1" fill="none" fill-rule="evenodd">
        <g id="画板" transform="translate(-575.000000, -374.000000)" fill-rule="nonzero">
            <g id="nosql" transform="translate(575.327255, 374.807617)">
                <path d="M7.11064167,10.1923828 L7.11064167,4.16992188 L7.13798542,5.140625 L10.2698214,10.1923828 L13.4817354,10.1923828 L13.4817354,0.170898438 L11.0891573,0.170898438 L11.0891573,6.2890625 L11.0549776,6.2890625 L7.13798542,0.170898438 L4.71806354,0.170898438 L4.71806354,10.1923828 L7.11064167,10.1923828 Z M20.6343693,10.3632812 C22.302338,10.3632812 23.5738224,9.85970052 24.4488224,8.85253906 C25.2463484,7.93652344 25.6451115,6.70377604 25.6451115,5.15429688 C25.6451115,3.61848958 25.2463484,2.39941406 24.4488224,1.49707031 C23.5647078,0.499023438 22.270437,0 20.5660099,0 C18.9664005,0 17.7268172,0.485351562 16.8472599,1.45605469 C16.0132755,2.3811849 15.5962833,3.62760417 15.5962833,5.1953125 C15.5962833,6.70377604 15.9882104,7.91373698 16.7720646,8.82519531 C17.6561792,9.85058594 18.9436141,10.3632812 20.6343693,10.3632812 Z M20.6070255,8.33300781 C19.9553328,8.33300781 19.4175724,8.11425781 18.9937443,7.67675781 C18.4650984,7.12532552 18.2007755,6.29361979 18.2007755,5.18164063 C18.2007755,4.16992188 18.7157442,2.57995605 20.6343693,2.57995605 C22.5529943,2.57995605 23.0136877,4.22460937 23.0136877,5.1953125 C23.0136877,6.36197917 22.7899682,7.14583333 22.2749943,7.65625 C21.8283797,8.10742188 21.2723901,8.33300781 20.6070255,8.33300781 Z" id="NO" fill="url(#linearGradient-1)"></path>
                <path d="M4.43652344,23.3632812 C6.11360677,23.3632812 7.3030599,22.8938802 8.00488281,21.9550781 C8.41503906,21.4036458 8.62011719,20.7792969 8.62011719,20.0820312 C8.62011719,19.0247396 8.18033854,18.2158203 7.30078125,17.6552734 C6.81770833,17.3453776 6.04980469,17.0673828 4.99707031,16.8212891 C4.14485677,16.6207682 3.59342448,16.4658203 3.34277344,16.3564453 C2.95996094,16.1832682 2.76855469,15.9462891 2.76855469,15.6455078 C2.76855469,15.3583984 2.91666667,15.1350911 3.21289062,14.9755859 C3.47265625,14.8343099 3.80533854,14.7636719 4.2109375,14.7636719 C4.80338542,14.7636719 5.23177083,14.930013 5.49609375,15.2626953 C5.64648438,15.4495443 5.76041667,15.7412109 5.83789062,16.1376953 L8.3125,16.0078125 C8.20768229,15.1829427 7.97753906,14.5608724 7.62207031,14.1416016 C6.9749349,13.3805339 5.85611979,13 4.265625,13 C3.22200521,13 2.34472656,13.2119141 1.63378906,13.6357422 C0.786132812,14.1461589 0.362304688,14.8821615 0.362304688,15.84375 C0.362304688,17.3522135 1.45377604,18.3684896 3.63671875,18.8925781 C4.65299479,19.1386719 5.29101562,19.3255208 5.55078125,19.453125 C5.91992188,19.639974 6.10449219,19.9248047 6.10449219,20.3076172 C6.10449219,20.6676432 5.94840495,20.9558919 5.63623047,21.1723633 C5.32405599,21.3888346 4.91959635,21.4970703 4.42285156,21.4970703 C3.32454427,21.4970703 2.67057292,20.9046224 2.4609375,19.7197266 L0,19.9042969 C0.0774739583,20.7291667 0.291666667,21.3854167 0.642578125,21.8730469 C1.35351562,22.8665365 2.61816406,23.3632812 4.43652344,23.3632812 Z M20.701462,22.6728516 C20.077113,22.4130859 19.5575818,22.1282552 19.1428682,21.8183594 C19.9267224,20.906901 20.3186495,19.6946615 20.3186495,18.1816406 C20.3186495,16.5501302 19.8788708,15.2786458 18.9993135,14.3671875 C18.1197563,13.4557292 16.8847302,13 15.2942354,13 C13.6991833,13 12.4573214,13.469401 11.5686495,14.4082031 C10.7027641,15.3242188 10.2698214,16.5865885 10.2698214,18.1953125 C10.2698214,19.78125 10.7027641,21.0345052 11.5686495,21.9550781 C12.4527641,22.8938802 13.6809542,23.3632812 15.2532198,23.3632812 C16.068975,23.3632812 16.8801729,23.2174479 17.6868135,22.9257812 C18.6210583,23.609375 19.3593396,24.0537109 19.9016573,24.2587891 L20.701462,22.6728516 Z M15.2668917,21.3330078 C14.8795219,21.3330078 14.5126599,21.2373047 14.1663057,21.0458984 C13.7196911,20.7998047 13.3927055,20.4295247 13.1853487,19.9350586 C12.9779919,19.4405924 12.8743135,18.8561198 12.8743135,18.1816406 C12.8743135,17.4570312 12.9620414,17.0627848 13.1853487,16.56604 C13.5772758,15.6864827 14.2996065,15.2626953 15.2976534,15.2626953 C16.9154919,15.2626953 17.7209932,16.3564453 17.7209932,18.140625 C17.7209932,19.0839843 17.5387016,19.858724 17.1741182,20.4648437 C16.7548474,20.1458333 16.365199,19.8997396 16.0051729,19.7265625 C15.8000948,19.6308594 15.554001,19.5397135 15.2668917,19.453125 L14.7336885,20.5878906 C15.3215792,20.8294271 15.7226208,21.0481771 15.9368135,21.2441406 C15.7317354,21.3033854 15.5084281,21.3330078 15.2668917,21.3330078 Z M29.8433536,23.1923828 L29.8433536,21.1210938 L24.9146427,21.1210938 L24.9146427,13.1708984 L22.068009,13.1708984 L22.068009,23.1923828 L29.8433536,23.1923828 Z" id="SQL" fill="url(#linearGradient-2)"></path>
            </g>
        </g>
    </g>
</svg>