<?xml version="1.0" encoding="UTF-8"?>
<svg width="30px" height="19px" viewBox="0 0 30 19" version="1.1" xmlns="http://www.w3.org/2000/svg" xmlns:xlink="http://www.w3.org/1999/xlink">
    <title>oracle</title>
    <defs>
        <linearGradient x1="50%" y1="1.50273485%" x2="50%" y2="100%" id="linearGradient-1">
            <stop stop-color="#FFFFFF" offset="0%"></stop>
            <stop stop-color="#FFFFFF" stop-opacity="0.35" offset="100%"></stop>
        </linearGradient>
    </defs>
    <g id="页面-1" stroke="none" stroke-width="1" fill="none" fill-rule="evenodd">
        <g id="画板" transform="translate(-643.000000, -377.000000)" fill="url(#linearGradient-1)" fill-rule="nonzero">
            <g id="oracle" transform="translate(643.000000, 377.000000)">
                <path d="M20.5150012,1.34607308e-06 L9.49000267,1.34607308e-06 C4.25158253,-0.00276161634 0.00276550169,4.24828963 1.34400125e-06,9.49499277 C-0.00275731056,14.741696 4.24158259,18.9972314 9.48000264,19.0000013 L20.5150012,19.0000013 C25.7534214,19.0000013 30.0000013,14.7467039 30.0000013,9.50000135 C30.0000013,4.25329746 25.7534214,1.34607308e-06 20.5150012,1.34607308e-06 L20.5150012,1.34607308e-06 Z M20.2737513,15.6522125 L9.73250269,15.6522125 C6.38838353,15.584637 3.71268055,12.8500892 3.71268055,9.50000069 C3.71268055,6.14991219 6.38838353,3.41536436 9.73250269,3.34778887 L20.2737513,3.34778887 C23.6661599,3.34778887 26.4162505,6.10222789 26.4162505,9.50000069 C26.4162505,12.8977735 23.6661599,15.6522125 20.2737513,15.6522125 Z" id="示例3"></path>
            </g>
        </g>
    </g>
</svg>