<?xml version="1.0" encoding="UTF-8"?>
<svg width="32px" height="22px" viewBox="0 0 32 22" version="1.1" xmlns="http://www.w3.org/2000/svg" xmlns:xlink="http://www.w3.org/1999/xlink">
    <title>php</title>
    <defs>
        <linearGradient x1="50%" y1="0.763647697%" x2="50%" y2="99.1333861%" id="linearGradient-1">
            <stop stop-color="#FFFFFF" offset="0%"></stop>
            <stop stop-color="#FFFFFF" stop-opacity="0.35" offset="100%"></stop>
        </linearGradient>
        <linearGradient x1="50%" y1="0.763647697%" x2="50%" y2="99.1333861%" id="linearGradient-2">
            <stop stop-color="#FFFFFF" offset="0%"></stop>
            <stop stop-color="#FFFFFF" stop-opacity="0.35" offset="100%"></stop>
        </linearGradient>
    </defs>
    <g id="页面-1" stroke="none" stroke-width="1" fill="none" fill-rule="evenodd">
        <g id="画板" transform="translate(-708.000000, -376.000000)" fill-rule="nonzero">
            <g id="php" transform="translate(708.000000, 376.000000)">
                <path d="M29.9782579,10.0170599 L29.9782579,6.53749859 C29.9782579,4.03279052 27.9068191,2 25.3519695,2 L16.7759424,2 C17.2288578,2.88733795 19.1670197,6.14423394 19.1670197,6.70477458 L17.0097416,15.3986928 C17.0097416,15.711089 16.9611747,16.0068683 16.8877594,16.2971087 C16.7849782,16.3026476 16.6855852,16.3281267 16.580545,16.3281267 L8,16.3281267 L8,20.9332004 L8,21.697574 L8,21.7950592 C8,21.9080536 8.09148667,22 8.21008054,22 L16.7917549,22 C16.9092192,22 17.0018354,21.9080536 17.0018354,21.7950592 L17.0018354,21.697574 L17.0018354,20.9332004 L17.0018354,18.2745098 L21.4937173,18.2745098 L21.4937173,21.5701784 L21.4937173,21.697574 L21.4937173,21.7950592 C21.4937173,21.9080536 21.5897219,22 21.7037979,22 L29.7681773,22 C29.8833828,22 29.9782579,21.9080536 29.9782579,21.7950592 L29.9782579,21.697574 L29.9782579,21.5701784 L29.9782579,12.5295225 C30.4571509,12.7676969 31.3008613,12.6391935 32,12.3068572 C30.9642807,11.7994904 30.0889454,10.856763 29.9782579,10.0170599" id="Fill-39" fill="url(#linearGradient-1)"></path>
                <path d="M5.0981516,6.68012579 C4.56231314,6.68012579 4.12859143,6.23820633 4.12859143,5.69361874 C4.12859143,5.15349495 4.56231314,4.7104596 5.0981516,4.7104596 C5.63069601,4.7104596 6.06551576,5.15349495 6.06551576,5.69361874 C6.06551576,6.23820633 5.63069601,6.68012579 5.0981516,6.68012579 M17.3499664,4.89682461 C16.2727994,2.70061888 14.0833282,0 12.7151833,0 L9.02250961,1.58466065 L4.53376438,1.58466065 L3.69377168,1.58466065 L3.39181352,1.58466065 L3.22820716,1.58466065 L3.22820716,1.60140004 C1.43292868,1.68844476 0,3.18159681 0,5.02962362 L0,12.4607893 L0,18.5528051 C0,20.4566298 1.51857496,22 3.39181352,22 L6.67272612,22 L7.02848776,22 L7.05703652,22 C7.17123157,22 7.26456414,21.9051436 7.26456414,21.7901999 L7.26456414,20.2155829 C7.26456414,20.1028711 7.17123157,20.0080146 7.05703652,20.0080146 L6.67272612,20.0080146 C6.67272612,20.0080146 6.67053012,20.0102465 6.66833404,20.0102465 C3.10412982,19.9856955 3.36546084,17.8385919 3.36546084,15.9515065 L3.36546084,12.4607893 L3.36546084,12.2253221 L3.97706337,12.2253221 C4.00780822,13.9572892 5.39461963,15.3500051 7.10425183,15.3500051 L8.18910508,15.3500051 L15.7281767,15.3500051 C15.8215092,15.3500051 15.9082535,15.3310337 15.9982919,15.324338 C16.0597816,15.059856 16.1026048,14.79091 16.1026048,14.5063407 L18,6.95576746 C18,6.44131074 17.7485512,5.70366239 17.3499664,4.89682461" id="Fill-40" fill="url(#linearGradient-2)"></path>
            </g>
        </g>
    </g>
</svg>