<?xml version="1.0" encoding="UTF-8"?>
<svg width="28px" height="28px" viewBox="0 0 28 28" version="1.1" xmlns="http://www.w3.org/2000/svg" xmlns:xlink="http://www.w3.org/1999/xlink">
    <title>python</title>
    <defs>
        <linearGradient x1="50%" y1="0.763647697%" x2="50%" y2="99.1333861%" id="linearGradient-1">
            <stop stop-color="#FFFFFF" offset="0%"></stop>
            <stop stop-color="#FFFFFF" stop-opacity="0.35" offset="100%"></stop>
        </linearGradient>
    </defs>
    <g id="页面-1" stroke="none" stroke-width="1" fill="none" fill-rule="evenodd">
        <g id="画板" transform="translate(-778.000000, -373.000000)" fill="url(#linearGradient-1)" fill-rule="nonzero">
            <g id="python" transform="translate(778.000000, 373.000000)">
                <path d="M10.2437322,4.49000808 C9.51891236,4.49000808 8.93168917,3.90427483 8.93168917,3.18129406 C8.93168917,2.459394 9.51891236,1.87366075 10.2437322,1.87366075 C10.9685519,1.87366075 11.5546918,2.459394 11.5546918,3.18129406 C11.5546918,3.90427483 10.9685519,4.49000808 10.2437322,4.49000808 M19.3337741,1.37546324 C18.7595522,0.9118478 18.1311583,0.606012956 17.4756786,0.407166217 C17.3651679,0.372584141 17.2546573,0.342324884 17.1430632,0.315307662 C14.3607953,-0.0618526645 11.4095111,-0.280151772 8.75400537,0.732453508 C8.65649597,0.777842394 8.56223692,0.826473393 8.47122815,0.879427133 C7.65214927,1.34628468 7.10176295,2.10600886 7.18302079,3.20939199 L7.18302079,3.56601924 L7.18302079,6.04295772 L13.8504961,6.07970113 L13.8504961,7.06096645 L3.97712873,7.06096645 C3.88611996,7.06096645 3.79294437,7.07069263 3.69868525,7.08582226 C3.6044262,7.10203259 3.5090837,7.12580778 3.41265775,7.15822845 C0.151510337,8.55123617 -0.395625624,12.6945965 0.223017252,15.8858702 C0.246852917,16.0058266 0.273938863,16.1268638 0.302108184,16.2457395 C0.470041053,16.9622361 0.708397303,17.6527962 1.0117599,18.2914832 C1.06051453,18.3876645 1.11360305,18.4795231 1.16560803,18.5670588 C1.27178491,18.7453725 1.38229553,18.9096372 1.49930678,19.0555302 C2.19054003,19.9276459 3.53941993,20.1826885 3.53941993,20.1826885 L6.30760319,20.1826885 L6.30760319,17.5317591 L6.30760319,17.2734745 C6.49070409,14.8743456 8.78542505,12.9128957 11.2101586,13.2036009 L11.4235958,13.2036009 L17.494097,13.2036009 C17.494097,13.2036009 17.6132751,13.1852292 17.8082939,13.1387596 C18.9524041,12.9128957 19.9361655,12.0396992 20.2947834,10.9082182 C20.318619,10.8141982 20.3337871,10.7266625 20.3457049,10.6510142 C20.3695406,10.5007985 20.3727908,10.4056979 20.3727908,10.4056979 L20.3727908,3.20182714 L20.3727908,3.02567488 C20.3727908,2.44534507 20.0445092,1.90067797 19.6100508,1.56782583 C19.4507854,1.44138527 19.3337741,1.37546324 19.3337741,1.37546324" id="Fill-37"></path>
                <path d="M17.7560474,23.5100754 C18.4808514,23.5100754 19.0680618,24.0958117 19.0680618,24.8177156 C19.0680618,25.5417809 18.4808514,26.1264365 17.7560474,26.1264365 C17.0312434,26.1264365 16.4451164,25.5417809 16.4451164,24.8177156 C16.4451164,24.0958117 17.0312434,23.5100754 17.7560474,23.5100754 M8.66620328,26.6246367 C9.24149612,27.0882546 9.86879289,27.3930105 10.5242585,27.5929389 C10.6347667,27.6275211 10.7452749,27.6577806 10.8568665,27.6847979 C13.6390739,28.0619603 16.5902939,28.2802606 19.2457418,27.2665692 C19.343249,27.2222607 19.4385895,27.1736295 19.5285128,27.1217562 C20.3475739,26.6538154 20.8990317,25.895168 20.8166922,24.7906983 L20.8166922,24.4351498 L20.8166922,21.9571175 L14.1493619,21.9203739 L14.1493619,20.9391033 L24.0235979,20.9391033 C24.1135212,20.9391033 24.2066949,20.929377 24.3020353,20.9142473 C24.3952089,20.8980369 24.4916327,20.8742617 24.5869732,20.8429215 C27.8480496,19.4488257 28.3962571,15.3054432 27.7765442,12.1152332 C27.7527091,11.9941955 27.7256238,11.8742384 27.697455,11.7532006 C27.5295258,11.0377809 27.2911747,10.3472172 26.9878188,9.70852674 C26.9390652,9.61234494 26.8859779,9.52048597 26.8339739,9.43186898 C26.7277994,9.25463508 26.6162077,9.09036954 26.5013659,8.94447584 C25.8101477,8.07343611 24.4602137,7.81731153 24.4602137,7.81731153 L21.6920908,7.81731153 L21.6920908,10.468255 L21.6920908,10.726541 C21.5100772,13.1256826 19.2143228,15.0882236 16.789642,14.7964362 L16.5772929,14.7964362 L10.5058404,14.7964362 C10.5058404,14.7964362 10.3877482,14.8148079 10.1905669,14.8612778 C9.04864841,15.0882236 8.06490843,15.9603441 7.70521502,17.0918312 C7.6824633,17.1858515 7.66621209,17.2733878 7.65429451,17.3490364 C7.6315428,17.4981722 7.62720916,17.5954347 7.62720916,17.5954347 L7.62720916,24.7982631 L7.62720916,24.9744163 C7.62720916,25.5547492 7.95548365,26.0994192 8.38993272,26.4322731 C8.54919457,26.5587143 8.66620328,26.6246367 8.66620328,26.6246367" id="Fill-38"></path>
            </g>
        </g>
    </g>
</svg>