<?xml version="1.0" encoding="UTF-8"?>
<svg width="30px" height="27px" viewBox="0 0 30 27" version="1.1" xmlns="http://www.w3.org/2000/svg" xmlns:xlink="http://www.w3.org/1999/xlink">
    <title>ruby</title>
    <defs>
        <linearGradient x1="50%" y1="0.763647697%" x2="50%" y2="99.1333861%" id="linearGradient-1">
            <stop stop-color="#FFFFFF" offset="0%"></stop>
            <stop stop-color="#FFFFFF" stop-opacity="0.35" offset="100%"></stop>
        </linearGradient>
    </defs>
    <g id="é¡µé¢-1" stroke="none" stroke-width="1" fill="none" fill-rule="evenodd">
        <g id="ç”»æ¿" transform="translate(-238.000000, -440.000000)" fill="url(#linearGradient-1)" fill-rule="nonzero">
            <g id="ruby" transform="translate(238.000000, 440.000000)">
                <path d="M17.0107422,21.8165125 L21.1968896,9.9019217 L26.8660963,9.9019217 L17.0107422,21.8165125 Z M14.8648682,21.417184 L10.6084902,9.9019217 L19.1811147,9.9019217 L14.8648682,21.417184 Z M3.09679665,9.9019217 L8.49281945,9.9019217 L13.1075861,21.8165125 L3.09679665,9.9019217 Z M6.19354119,2.66348756 L7.86330826,8.15444837 L2.77810853,8.15444837 L6.19354119,2.66348756 Z M13.3536722,2.00913567 L9.50610352,7.29864768 L7.86330826,2.00913567 L13.3536722,2.00913567 Z M18.6875,8.15444837 L11.28125,8.15444837 L14.8648682,3.0378418 L18.6875,8.15444837 Z M21.7873353,2.00913567 L19.973877,7.29864768 L16.574894,2.00913567 L21.7873353,2.00913567 Z M27.2096138,8.15444837 L21.7873353,8.15444837 L23.4370117,2.6224911 L27.2096138,8.15444837 Z M23.8031103,0 L5.67118088,0 L0,9.11145907 L15.0279039,27 L30,9.08711747 L23.8031103,0 Z" id="Fill-62"></path>
            </g>
        </g>
    </g>
</svg>