<?xml version="1.0" encoding="UTF-8"?>
<svg width="26px" height="26px" viewBox="0 0 26 26" version="1.1" xmlns="http://www.w3.org/2000/svg" xmlns:xlink="http://www.w3.org/1999/xlink">
    <title>server</title>
    <defs>
        <linearGradient x1="50%" y1="0.763647697%" x2="50%" y2="99.1333861%" id="linearGradient-1">
            <stop stop-color="#FFFFFF" offset="0%"></stop>
            <stop stop-color="#FFFFFF" stop-opacity="0.35" offset="100%"></stop>
        </linearGradient>
    </defs>
    <g id="页面-1" stroke="none" stroke-width="1" fill="none" fill-rule="evenodd">
        <g id="画板" transform="translate(-309.000000, -440.000000)" fill="url(#linearGradient-1)" fill-rule="nonzero">
            <g id="server" transform="translate(309.000000, 440.000000)">
                <path d="M26,0 L26,7.42857143 L0,7.42857143 L0,0 L26,0 Z M7.79677305,2.47619048 L2.59614849,2.47619048 L2.59614849,4.95138965 L7.79677305,4.95138965 L7.79677305,2.47619048 Z" id="形状结合"></path>
                <path d="M26,9.28571429 L26,16.7142857 L0,16.7142857 L0,9.28571429 L26,9.28571429 Z M7.79677305,11.7612438 L2.59614849,11.7612438 L2.59614849,14.2377648 L7.79677305,14.2377648 L7.79677305,11.7612438 Z" id="形状结合"></path>
                <path d="M26,18.5714286 L26,26 L0,26 L0,18.5714286 L26,18.5714286 Z M7.79677305,21.047619 L2.59614849,21.047619 L2.59614849,23.5228182 L7.79677305,23.5228182 L7.79677305,21.047619 Z" id="形状结合"></path>
            </g>
        </g>
    </g>
</svg>