<?xml version="1.0" encoding="UTF-8"?>
<svg width="26px" height="25px" viewBox="0 0 26 25" version="1.1" xmlns="http://www.w3.org/2000/svg" xmlns:xlink="http://www.w3.org/1999/xlink">
    <title>storage</title>
    <defs>
        <linearGradient x1="50%" y1="1.50273485%" x2="50%" y2="100%" id="linearGradient-1">
            <stop stop-color="#FFFFFF" offset="0%"></stop>
            <stop stop-color="#FFFFFF" stop-opacity="0.35" offset="100%"></stop>
        </linearGradient>
    </defs>
    <g id="页面-1" stroke="none" stroke-width="1" fill="none" fill-rule="evenodd">
        <g id="画板" transform="translate(-544.000000, -348.000000)" fill="url(#linearGradient-1)" fill-rule="nonzero">
            <g id="storage" transform="translate(544.000000, 348.000000)">
                <g id="存储设备" transform="translate(0.626242, 0.000000)">
                    <path d="M7.5876372,8.85224338 L16.4398806,8.85224338 C16.8192624,8.85224338 17.0721837,8.59932215 17.0721837,8.21994029 L17.0721837,1.3270992e-13 L6.95533408,1.3270992e-13 L6.95533408,8.21994029 C6.95533408,8.59932215 7.20825531,8.85224338 7.5876372,8.85224338 Z M13.2783651,2.84536395 C13.2783651,2.33952146 13.7209773,1.8969093 14.2268198,1.8969093 C14.7326622,1.8969093 15.1752744,2.33952146 15.1752744,2.84536395 L15.1752744,6.00687943 C15.1752744,6.51272192 14.7326622,6.95533408 14.2268198,6.95533408 C13.7209773,6.95533408 13.2783651,6.51272192 13.2783651,6.00687943 L13.2783651,2.84536395 Z M21.4983054,1.3270992e-13 L18.969093,1.3270992e-13 L18.969093,8.21994029 C18.969093,9.6110071 17.8309474,10.7491527 16.4398806,10.7491527 L7.5876372,10.7491527 C6.19657039,10.7491527 5.05842481,9.6110071 5.05842478,8.21994029 L5.05842478,1.3270992e-13 L2.52921239,1.3270992e-13 C1.13814558,1.3270992e-13 0,1.13814558 0,2.52921239 L0,21.4983054 C0,22.8893722 1.13814558,24.0275178 2.52921239,24.0275178 L21.4983054,24.0275178 C22.8893722,24.0275178 24.0275178,22.8893722 24.0275178,21.4983054 L24.0275178,2.52921239 C24.0275178,1.13814558 22.8893722,1.3270992e-13 21.4983054,1.3270992e-13 Z M20.5498507,20.2336992 L3.47766704,20.2336992 C2.97182455,20.2336992 2.52921239,19.791087 2.52921239,19.2852445 C2.52921239,18.779402 2.97182455,18.3367899 3.47766704,18.3367899 L20.5498507,18.3367899 C21.0556932,18.3367899 21.4983054,18.779402 21.4983054,19.2852445 C21.4983054,19.791087 21.0556932,20.2336992 20.5498507,20.2336992 Z" id="形状"></path>
                </g>
            </g>
        </g>
    </g>
</svg>