<?xml version="1.0" encoding="UTF-8"?>
<svg width="29px" height="28px" viewBox="0 0 29 28" version="1.1" xmlns="http://www.w3.org/2000/svg" xmlns:xlink="http://www.w3.org/1999/xlink">
    <title>switch</title>
    <defs>
        <linearGradient x1="50%" y1="1.50273485%" x2="50%" y2="100%" id="linearGradient-1">
            <stop stop-color="#FFFFFF" offset="0%"></stop>
            <stop stop-color="#FFFFFF" stop-opacity="0.35" offset="100%"></stop>
        </linearGradient>
        <linearGradient x1="50%" y1="1.50273485%" x2="50%" y2="100%" id="linearGradient-2">
            <stop stop-color="#FFFFFF" offset="0%"></stop>
            <stop stop-color="#FFFFFF" stop-opacity="0.35" offset="100%"></stop>
        </linearGradient>
    </defs>
    <g id="页面-1" stroke="none" stroke-width="1" fill="none" fill-rule="evenodd">
        <g id="画板" transform="translate(-477.000000, -347.000000)" fill-rule="nonzero">
            <g id="switch" transform="translate(477.000000, 347.000000)">
                <g id="交换机" transform="translate(0.762960, 0.000000)">
                    <rect id="矩形" fill="#000000" opacity="0" x="0" y="0" width="27.0504" height="27.0504"></rect>
                    <path d="M5.64254438,18.6843241 L7.88265562,18.6843241 C8.19701086,18.6843241 8.45325,18.428085 8.45325,18.1137298 L8.45325,17.5801184 C8.45325,17.2657631 8.19701086,17.009524 7.88265562,17.009524 L5.64254437,17.009524 C5.32818914,17.009524 5.07195,17.2657631 5.07195,17.5801184 L5.07195,18.1137298 C5.07195,18.428085 5.32818914,18.6843241 5.64254437,18.6843241 L5.64254438,18.6843241 Z M5.64254438,22.0524159 L7.88265562,22.0524159 C8.19701086,22.0524159 8.45325,21.7961768 8.45325,21.4818216 L8.45325,20.9482102 C8.45325,20.6338549 8.19701086,20.3776158 7.88265562,20.3776158 L5.64254437,20.3776158 C5.32818914,20.3776158 5.07195,20.6338549 5.07195,20.9482102 L5.07195,21.4818216 C5.07195,21.7988184 5.32818914,22.0524159 5.64254437,22.0524159 L5.64254438,22.0524159 Z M10.9548837,18.6843241 L10.9733752,18.6843241 C11.4356623,18.6843241 11.8107752,18.3092112 11.8107752,17.8469241 L11.8107752,17.8442824 C11.8107752,17.3819953 11.4356623,17.0068823 10.9733752,17.0068823 L10.9548837,17.0068823 C10.4925966,17.0068823 10.1174836,17.3819953 10.1174836,17.8442824 L10.1174836,17.8469241 C10.1174836,18.3092112 10.4925966,18.6843241 10.9548837,18.6843241 Z M10.9548837,22.0524159 L10.9733752,22.0524159 C11.4356623,22.0524159 11.8107752,21.677303 11.8107752,21.2150159 L11.8107752,21.2123742 C11.8107752,20.7500871 11.4356623,20.3749741 10.9733752,20.3749741 L10.9548837,20.3749741 C10.4925966,20.3749741 10.1174836,20.7500871 10.1174836,21.2123742 L10.1174836,21.2150159 C10.1174836,21.6799446 10.4925966,22.0524159 10.9548837,22.0524159 Z M14.3361837,18.6843241 L14.3546752,18.6843241 C14.8169623,18.6843241 15.1920752,18.3092112 15.1920752,17.8469241 L15.1920752,17.8442824 C15.1920752,17.3819953 14.8169623,17.0068823 14.3546752,17.0068823 L14.3361837,17.0068823 C13.8738966,17.0068823 13.4987836,17.3819953 13.4987836,17.8442824 L13.4987836,17.8469241 C13.4987836,18.3092112 13.8738966,18.6843241 14.3361837,18.6843241 Z M14.3361837,22.0524159 L14.3546752,22.0524159 C14.8169623,22.0524159 15.1920752,21.677303 15.1920752,21.2150159 L15.1920752,21.2123742 C15.1920752,20.7500871 14.8169623,20.3749741 14.3546752,20.3749741 L14.3361837,20.3749741 C13.8738966,20.3749741 13.4987836,20.7500871 13.4987836,21.2123742 L13.4987836,21.2150159 C13.4987836,21.6799446 13.8738966,22.0524159 14.3361837,22.0524159 Z M17.6910673,18.6843241 L17.7095588,18.6843241 C18.1718459,18.6843241 18.5469588,18.3092112 18.5469588,17.8469241 L18.5469588,17.8442824 C18.5469588,17.3819953 18.1718459,17.0068823 17.7095588,17.0068823 L17.6910673,17.0068823 C17.2287802,17.0068823 16.8536672,17.3819953 16.8536672,17.8442824 L16.8536672,17.8469241 C16.8536672,18.3092112 17.2287802,18.6843241 17.6910673,18.6843241 Z M17.6910673,22.0524159 L17.7095588,22.0524159 C18.1718459,22.0524159 18.5469588,21.677303 18.5469588,21.2150159 L18.5469588,21.2123742 C18.5469588,20.7500871 18.1718459,20.3749741 17.7095588,20.3749741 L17.6910673,20.3749741 C17.2287802,20.3749741 16.8536672,20.7500871 16.8536672,21.2123742 L16.8536672,21.2150159 C16.8536672,21.6799446 17.2287802,22.0524159 17.6910673,22.0524159 Z M21.0723673,18.6843241 L21.0908588,18.6843241 C21.5531459,18.6843241 21.9282588,18.3092112 21.9282588,17.8469241 L21.9282588,17.8442824 C21.9282588,17.3819953 21.5531459,17.0068823 21.0908588,17.0068823 L21.0723673,17.0068823 C20.6100802,17.0068823 20.2349672,17.3819953 20.2349672,17.8442824 L20.2349672,17.8469241 C20.2349672,18.3092112 20.6100802,18.6843241 21.0723673,18.6843241 Z M21.0723673,22.0524159 L21.0908588,22.0524159 C21.5531459,22.0524159 21.9282588,21.677303 21.9282588,21.2150159 L21.9282588,21.2123742 C21.9282588,20.7500871 21.5531459,20.3749741 21.0908588,20.3749741 L21.0723673,20.3749741 C20.6100802,20.3749741 20.2349672,20.7500871 20.2349672,21.2123742 L20.2349672,21.2150159 C20.2349672,21.6799446 20.6100802,22.0524159 21.0723673,22.0524159 Z" id="形状" fill="url(#linearGradient-1)"></path>
                    <path d="M25.35975,15.2581163 L23.6109839,2.41181789 C23.5528678,1.99443867 23.1962463,1.68272508 22.7735838,1.68272508 L4.32700734,1.68272508 C3.90698648,1.68272508 3.550365,1.99179703 3.48960727,2.40917625 L1.69065,15.2581163 L1.71178312,15.2581163 L1.69065,15.2792494 L1.69065,24.4034761 C1.69065,24.9370875 2.12387906,25.3703166 2.65749047,25.3703166 L24.3955512,25.3703166 C24.9291626,25.3703166 25.3623916,24.9370875 25.3623916,24.4034761 L25.3623916,15.2792494 L25.3412585,15.2581163 L25.35975,15.2581163 Z M12.6640252,3.41564133 L12.5557179,5.15912414 L20.765937,5.15912414 L20.7870701,6.931665 L12.4474106,6.931665 L12.3338201,8.75968031 L7.02676406,6.02558227 L12.6640252,3.41564133 Z M6.84977414,9.89294414 L15.1656588,9.89294414 L15.2396248,7.87737234 L20.824053,10.6907196 L15.0256519,13.6467155 L15.0943345,11.8107752 L6.64108453,11.8107752 L6.84977414,9.89294414 Z M23.6691,23.6796666 L3.3813,23.6796666 L3.3813,15.2581162 L23.6691,15.2581162 L23.6691,23.6796666 L23.6691,23.6796666 Z" id="形状" fill="url(#linearGradient-2)"></path>
                </g>
            </g>
        </g>
    </g>
</svg>