<?xml version="1.0" encoding="UTF-8"?>
<svg width="30px" height="28px" viewBox="0 0 30 28" version="1.1" xmlns="http://www.w3.org/2000/svg" xmlns:xlink="http://www.w3.org/1999/xlink">
    <title>system</title>
    <defs>
        <linearGradient x1="50%" y1="0.763647697%" x2="50%" y2="99.1333861%" id="linearGradient-1">
            <stop stop-color="#FFFFFF" offset="0%"></stop>
            <stop stop-color="#FFFFFF" stop-opacity="0.35" offset="100%"></stop>
        </linearGradient>
    </defs>
    <g id="页面-1" stroke="none" stroke-width="1" fill="none" fill-rule="evenodd">
        <g id="画板" transform="translate(-373.000000, -438.000000)" fill="url(#linearGradient-1)" fill-rule="nonzero">
            <g id="system" transform="translate(373.000000, 438.000000)">
                <polygon id="Fill-97" points="19.6 16.3333333 19.6 11.6666667 15.4 9.33333333 11.2 11.6666667 11.2 16.3333333 15.4 18.6666667"></polygon>
                <polygon id="Fill-98" points="24.2666667 7 24.2666667 2.3340482 20.0666667 0 15.8666667 2.3340482 15.8666667 7 20.0666667 9.33333333"></polygon>
                <polygon id="Fill-99" points="29.8666667 16.3333333 29.8666667 11.6666667 25.6666667 9.33333333 21.4666667 11.6666667 21.4666667 16.3333333 25.6666667 18.6666667"></polygon>
                <polygon id="Fill-100" points="8.4 16.3333333 8.4 11.6666667 4.2 9.33333333 0 11.6666667 0 16.3333333 4.2 18.6666667"></polygon>
                <polygon id="Fill-101" points="14 25.6664879 14 21.0001787 9.8 18.6666667 5.6 21.0001787 5.6 25.6664879 9.8 28"></polygon>
                <polygon id="Fill-102" points="14 7 14 2.3340482 9.8 0 5.6 2.3340482 5.6 7 9.8 9.33333333"></polygon>
                <polygon id="Fill-103" points="24.2666667 25.6664879 24.2666667 21.0001787 20.0666667 18.6666667 15.8666667 21.0001787 15.8666667 25.6664879 20.0666667 28"></polygon>
            </g>
        </g>
    </g>
</svg>