<?xml version="1.0" encoding="UTF-8"?>
<svg width="32px" height="24px" viewBox="0 0 32 24" version="1.1" xmlns="http://www.w3.org/2000/svg" xmlns:xlink="http://www.w3.org/1999/xlink">
    <title>webservice</title>
    <defs>
        <linearGradient x1="50%" y1="1.50273485%" x2="50%" y2="100%" id="linearGradient-1">
            <stop stop-color="#FFFFFF" offset="0%"></stop>
            <stop stop-color="#FFFFFF" stop-opacity="0.35" offset="100%"></stop>
        </linearGradient>
    </defs>
    <g id="页面-1" stroke="none" stroke-width="1" fill="none" fill-rule="evenodd">
        <g id="画板" transform="translate(-440.000000, -440.000000)" fill="url(#linearGradient-1)" fill-rule="nonzero">
            <g id="webservice" transform="translate(440.000000, 440.000000)">
                <path d="M24.421053,20.571429 C26.778947,20.057143 28.631579,18 28.631579,15.428571 C28.631579,12.514286 26.442105,10.285714 23.578947,10.285714 C22.905263,10.285714 22.4,10.457143 21.894737,10.628571 L21.894737,10.285714 C21.894737,6.514286 18.863158,3.428571 15.157895,3.428571 C11.452632,3.428571 8.421053,6.514286 8.421053,10.285714 C8.421053,10.971429 8.589474,11.485714 8.589474,12.171429 C8.252632,12 7.915789,12 7.578947,12 C5.221053,12 3.368421,13.885714 3.368421,16.285714 C3.368421,18.685714 5.221053,20.571429 7.578947,20.571429 L24.421053,20.571429 Z M24.421053,24 L7.578947,24 C3.368421,24 0,20.571429 0,16.285714 C0,12.857143 2.189474,9.942857 5.052632,8.914286 C5.726316,3.942857 9.936842,0 15.157895,0 C19.536842,0 23.410526,2.914286 24.757895,6.857143 C28.8,7.371429 32,10.971429 32,15.428571 C32,19.885714 28.631579,23.485714 24.421053,24 L24.421053,24 Z" id="示例2"></path>
            </g>
        </g>
    </g>
</svg>