<svg xmlns="http://www.w3.org/2000/svg" xmlns:xlink="http://www.w3.org/1999/xlink" width="96" height="96" viewBox="0 0 96 96"><title>icon-net-4</title><defs><linearGradient id="a" x1="50%" x2="50%" y1="0%" y2="99.126%"><stop offset="0%" stop-color="#DFDFDF" stop-opacity="0"/><stop offset="100%" stop-color="#2A2A2A"/></linearGradient><path id="b" d="M48 12.25l30.96 17.875v35.75L48 83.75 17.04 65.875v-35.75z"/></defs><g fill="none" fill-rule="evenodd"><path fill="url(#a)" stroke="#C8C8C8" stroke-linejoin="square" stroke-width="4.29" d="M48 14.727L19.185 31.363v33.274L48 81.273l28.815-16.636V31.363L48 14.727z"/><use stroke="#FFF" stroke-width="2.145" xlink:href="#b"/><path fill="#F0F0F0" d="M37.637 54.881c-.692 1.82-2.843 3.333-4.464 3.333h-5.806l7.337-16.668c1.037-2.004 3.13-3.332 4.75-3.332h5.519l-7.336 16.667zM61.582 54.881c-.691 1.82-2.844 3.333-4.464 3.333h-5.806l7.335-16.668c1.038-2.004 3.13-3.332 4.75-3.332h5.52l-7.335 16.667z"/><path fill="#F0F0F0" d="M46.675 54.881c.692 1.82 2.843 3.333 4.463 3.333h5.807l-7.336-16.668c-1.037-2.004-3.13-3.332-4.75-3.332h-5.52l7.336 16.667z"/></g></svg>