<svg xmlns="http://www.w3.org/2000/svg" xmlns:xlink="http://www.w3.org/1999/xlink" width="96" height="96" viewBox="0 0 96 96"><title>icon-mongodb-4</title><defs><linearGradient id="a" x1="50%" x2="50%" y1="0%" y2="99.126%"><stop offset="0%" stop-color="#DFDFDF" stop-opacity="0"/><stop offset="100%" stop-color="#2A2A2A"/></linearGradient><path id="b" d="M48 12.25l30.96 17.875v35.75L48 83.75 17.04 65.875v-35.75z"/></defs><g fill="none" fill-rule="evenodd"><path fill="url(#a)" stroke="#C8C8C8" stroke-linejoin="square" stroke-width="4.29" d="M48 14.727L19.185 31.363v33.274L48 81.273l28.815-16.636V31.363L48 14.727z"/><use stroke="#FFF" stroke-width="2.145" xlink:href="#b"/><path fill="#F0F0F0" d="M47.988 28.5l-4.318 6.885-4.118 6.577c-1.641 2.227-2.631 5.098-2.631 8.244 0 4.487 2.017 8.429 5.06 10.703h-.007l.148.1c.253.18.505.352.766.51l2.1 1.4 1.919 1.285V67.5h1.092V28.52l-.011-.02z"/><path fill="#C8C8C8" d="M59.08 50.206c0-3.214-1.042-6.14-2.742-8.385l-4.036-6.436L48 28.518V67.5h1.089v-3.296l1.924-1.284 2.094-1.4c.268-.161.528-.335.784-.52l.136-.09h-.01c3.044-2.275 5.062-6.216 5.062-10.704"/></g></svg>