<svg xmlns="http://www.w3.org/2000/svg" xmlns:xlink="http://www.w3.org/1999/xlink" width="96" height="97" viewBox="0 0 96 97"><title>icon-db2-4</title><defs><linearGradient id="a" x1="50%" x2="50%" y1="0%" y2="99.126%"><stop offset="0%" stop-color="#DFDFDF" stop-opacity="0"/><stop offset="100%" stop-color="#2A2A2A"/></linearGradient><path id="b" d="M48 12.25l30.96 17.875v35.75L48 83.75 17.04 65.875v-35.75z"/></defs><g fill="none" fill-rule="evenodd"><g transform="translate(0 1)"><path fill="url(#a)" stroke="#C8C8C8" stroke-linejoin="square" stroke-width="4.29" d="M48 14.727L19.185 31.363v33.274L48 81.273l28.815-16.636V31.363L48 14.727z"/><use stroke="#FFF" stroke-width="2.145" xlink:href="#b"/></g><path fill="#F0F0F0" d="M35.364 56.635V41.373c0-.57-.178-.947-.535-1.13-.19-.09-.534-.138-1.033-.138v17.796c.547 0 .89-.035 1.033-.102.357-.183.535-.57.535-1.164zm5.25-.41c0 1.317-.455 2.406-1.364 3.27-1 .96-2.352 1.44-4.055 1.44H28.58V37.073h6.579c1.704 0 3.056.47 4.056 1.408.933.862 1.398 1.964 1.398 3.304v14.441zM48.351 56.635v-6.058c0-.593-.13-.952-.391-1.078-.263-.125-.642-.189-1.144-.189v8.59c.527 0 .858-.034 1-.1.357-.184.535-.57.535-1.165zm0-11.21v-4.058c0-.59-.13-.949-.391-1.074-.263-.124-.642-.188-1.144-.188v6.581c.527 0 .858-.034 1-.102.357-.183.535-.567.535-1.159zm5.08 10.8c0 1.343-.42 2.435-1.261 3.277-.932.954-2.25 1.434-3.955 1.434h-6.611V37.072h6.168c1.727 0 3.074.386 4.04 1.158.965.772 1.448 1.794 1.448 3.062v3.303c0 .727-.145 1.33-.44 1.804-.474.727-1.343 1.307-2.604 1.738 1.33.34 2.245.865 2.741 1.57.316.454.474 1.08.474 1.876v4.642zM66.487 60.935H54.523V57.8l5.926-10.85c.41-.751.674-1.453.788-2.105.115-.648.172-1.43.172-2.344v-.924c0-.32-.097-.564-.292-.736-.193-.17-.447-.256-.765-.256-.295 0-.552.087-.767.258-.217.17-.325.417-.325.737v4.05h-4.737v-4.09c0-1.478.488-2.615 1.465-3.41.977-.794 2.466-1.193 4.465-1.193 2.158 0 3.738.524 4.74 1.57.863.888 1.294 2.14 1.294 3.755v1.845c0 .5-.079 1.059-.239 1.674a5.756 5.756 0 01-.274.82l-5.929 11.3h6.442v3.035z"/></g></svg>