<svg xmlns="http://www.w3.org/2000/svg" xmlns:xlink="http://www.w3.org/1999/xlink" width="96" height="96" viewBox="0 0 96 96"><title>icon-.netcore-4</title><defs><linearGradient id="a" x1="50%" x2="50%" y1="0%" y2="99.126%"><stop offset="0%" stop-color="#DFDFDF" stop-opacity="0"/><stop offset="100%" stop-color="#2A2A2A"/></linearGradient><path id="b" d="M48 12.25l30.96 17.875v35.75L48 83.75 17.04 65.875v-35.75z"/><path id="c" d="M0 .276h2.529v2.49H0z"/></defs><g fill="none" fill-rule="evenodd"><path fill="url(#a)" stroke="#C8C8C8" stroke-linejoin="square" stroke-width="4.29" d="M48 14.727L19.185 31.363v33.274L48 81.273l28.815-16.636V31.363L48 14.727z"/><use stroke="#FFF" stroke-width="2.145" xlink:href="#b"/><g transform="translate(26.982 49.54)"><mask id="d" fill="#fff"><use xlink:href="#c"/></mask><path fill="#E5E5E5" d="M0 1.526c0-.351.12-.648.362-.89.24-.24.54-.36.898-.36.364 0 .667.122.908.366.24.245.36.54.36.884 0 .339-.12.63-.36.874-.241.245-.548.366-.918.366-.357 0-.656-.121-.894-.366A1.213 1.213 0 0 1 0 1.526" mask="url(#d)"/></g><path fill="#E5E5E5" d="M44.939 52.072h-2.314l-7.606-11.766a5.758 5.758 0 01-.518-.986h-.059c.053.338.079 1.044.079 2.119v10.633h-1.934V36.946h2.452l7.401 11.561c.352.548.56.897.625 1.047h.038c-.064-.43-.097-1.166-.097-2.207v-10.4h1.933v15.125zM56.979 52.072h-8.134V36.946h7.792v1.738h-5.839v4.844h5.41v1.729h-5.41v5.087h6.181zM69.018 38.685h-4.364v13.388H62.69V38.685h-4.344v-1.738h10.672zM43.859 62.934c-.53.28-1.193.419-1.99.419-1.031 0-1.854-.328-2.47-.983-.614-.654-.923-1.52-.923-2.595 0-1.157.346-2.088 1.039-2.794.693-.705 1.574-1.058 2.64-1.058.687 0 1.255.098 1.704.293v.97a3.44 3.44 0 00-1.694-.427c-.8 0-1.453.266-1.958.8-.504.534-.756 1.253-.756 2.16 0 .86.235 1.543.704 2.048.471.506 1.086.76 1.847.76.712 0 1.33-.162 1.857-.484v.891zM45.766 60.693c0 .592.15 1.056.447 1.397.299.34.7.511 1.205.511.518 0 .915-.167 1.188-.5.272-.332.408-.81.408-1.431 0-.625-.136-1.104-.408-1.437-.273-.336-.67-.503-1.188-.503-.512 0-.914.175-1.21.525-.295.35-.442.828-.442 1.438m-.928.027c0-.847.237-1.515.709-2.005.473-.49 1.116-.736 1.926-.736.77 0 1.375.236 1.812.708.438.472.656 1.123.656 1.955 0 .81-.234 1.465-.7 1.963-.467.498-1.093.747-1.88.747-.766 0-1.38-.241-1.837-.723-.458-.484-.686-1.12-.686-1.909M53.974 59c-.153-.108-.36-.162-.626-.162-.353 0-.644.164-.873.494-.229.33-.343.762-.343 1.302v2.597h-.91v-5.13h.91v1.043h.019c.259-.756.708-1.133 1.345-1.133.207 0 .366.023.478.07V59zM57.988 60.169c-.004-.465-.114-.823-.33-1.076-.217-.254-.521-.38-.915-.38-.362 0-.675.134-.94.403-.263.269-.43.62-.498 1.053h2.683zm.909.728h-3.592c.016.547.166.971.45 1.27.285.298.683.447 1.194.447.574 0 1.102-.184 1.582-.551v.81c-.453.32-1.051.48-1.797.48-.742 0-1.322-.236-1.738-.707-.416-.47-.623-1.122-.623-1.957 0-.786.227-1.434.684-1.945a2.19 2.19 0 011.7-.764c.672 0 1.196.214 1.573.646.378.431.567 1.035.567 1.812v.459z"/></g></svg>