<svg xmlns="http://www.w3.org/2000/svg" xmlns:xlink="http://www.w3.org/1999/xlink" width="96" height="96" viewBox="0 0 96 96"><title>icon-memcached-4</title><defs><linearGradient id="a" x1="50%" x2="50%" y1="0%" y2="99.126%"><stop offset="0%" stop-color="#DFDFDF" stop-opacity="0"/><stop offset="100%" stop-color="#2A2A2A"/></linearGradient><path id="b" d="M48 12.25l30.96 17.875v35.75L48 83.75 17.04 65.875v-35.75z"/></defs><g fill="none" fill-rule="evenodd"><path fill="url(#a)" stroke="#C8C8C8" stroke-linejoin="square" stroke-width="4.29" d="M48 14.727L19.185 31.363v33.274L48 81.273l28.815-16.636V31.363L48 14.727z"/><use stroke="#FFF" stroke-width="2.145" xlink:href="#b"/><path fill="#F0F0F0" d="M58.793 33.801v.023l-.042-.023-10.28 14.5-10.28-14.5-.042.023v-.023h-4.396v29h4.396v-21.68l7.803 11.793h5.036l7.805-11.793v21.68h4.396v-29z"/><path fill="#F0F0F0" d="M46.468 60.774a2.027 2.027 0 11-4.053 0 2.027 2.027 0 014.053 0M54.528 60.774a2.024 2.024 0 01-2.022 2.026 2.028 2.028 0 110-4.054c1.117 0 2.022.907 2.022 2.028"/></g></svg>