<svg xmlns="http://www.w3.org/2000/svg" xmlns:xlink="http://www.w3.org/1999/xlink" width="96" height="96" viewBox="0 0 96 96"><title>icon-nodejs-4</title><defs><linearGradient id="a" x1="50%" x2="50%" y1="0%" y2="99.126%"><stop offset="0%" stop-color="#DFDFDF" stop-opacity="0"/><stop offset="100%" stop-color="#2A2A2A"/></linearGradient><path id="b" d="M48 12.25l30.96 17.875v35.75L48 83.75 17.04 65.875v-35.75z"/></defs><g fill="none" fill-rule="evenodd"><path fill="url(#a)" stroke="#C8C8C8" stroke-linejoin="square" stroke-width="4.29" d="M48 14.727L19.185 31.363v33.274L48 81.273l28.815-16.636V31.363L48 14.727z"/><use stroke="#FFF" stroke-width="2.145" xlink:href="#b"/><path fill="#F0F0F0" d="M54.315 47.402c-.62-.428-1.401-.72-2.612-.983-1.689-.381-1.812-.41-2.12-.538-.608-.263-.877-.615-.877-1.142 0-.835.79-1.397 1.965-1.397.758 0 1.365.229 1.71.642.226.263.314.478.399.955l.046.266 2.78-.329-.066-.305c-.203-.89-.406-1.369-.807-1.895-.811-1.092-2.215-1.669-4.062-1.669-2.827 0-4.658 1.496-4.658 3.81 0 1.115.447 2.053 1.297 2.717.588.46 1.229.72 2.435.994l.246.055c1.88.436 1.954.45 2.36.673.393.212.623.647.623 1.168 0 .991-.794 1.563-2.177 1.563-.917 0-1.634-.282-2.028-.798-.234-.3-.317-.56-.369-1.21l-.03-.287-2.798.293.043.295c.09.607.157.943.31 1.338.314.812.807 1.447 1.462 1.891.787.522 2.088.846 3.393.846 1.734 0 3.002-.407 3.88-1.253.69-.689 1.052-1.663 1.052-2.82 0-1.242-.455-2.184-1.397-2.88"/><path fill="#F0F0F0" d="M64.123 37.9l-15.367-8.876a1.262 1.262 0 0 0-1.253 0l-15.37 8.871c-.39.225-.629.639-.629 1.089L31.5 56.726c0 .451.24.864.628 1.089l3.026 1.748c.17.097.333.19.486.28.806.445 1.604 1.081 2.537 1.325.158.044.313.081.47.114 1.309.258 2.705.066 3.858-.563.127-.072.255-.146.375-.228.916-.524 1.396-1.644 1.468-2.724a5.08 5.08 0 0 0-.002-.409V41.135h-2.88v16.488c0 .142-.013.26-.043.364a.74.74 0 0 1-.122.264c-.539.758-1.818.758-2.556.441a4.614 4.614 0 0 1-.488-.245c-.313-.178-.725-.413-1.14-.647-.828-.473-1.653-.948-1.653-.948l-.012-.018-1.44-.83.004-16.298 14.114-8.144 14.11 8.151-.003 16.293-14.116 8.146-3.383-1.983c-.74.624-1.77 1.08-2.695 1.296-.022.004-.041.004-.065.01l5.515 3.214c.195.113.411.168.628.168.218 0 .433-.055.628-.168l15.37-8.87c.388-.225.628-.64.628-1.087l.003-17.744c0-.447-.24-.863-.627-1.088"/></g></svg>