{
    "asset" : {
        "generator" : "Khronos glTF Blender I/O v3.2.43",
        "version" : "2.0"
    },
    "scene" : 0,
    "scenes" : [
        {
            "name" : "Scene",
            "nodes" : [
                0
            ]
        }
    ],
    "nodes" : [
        {
            "mesh" : 0,
            "name" : "\u5927"
        }
    ],
    "materials" : [
        {
            "alphaMode" : "BLEND",
            "name" : "\u6750\u8d28.001",
            "pbrMetallicRoughness" : {
                "baseColorFactor" : [
                    0.17100000381469727,
                    0.7177500128746033,
                    0.8999999761581421,
                    0.18000000715255737
                ],
                "metallicFactor" : 0,
                "roughnessFactor" : 0.75
            }
        }
    ],
    "meshes" : [
        {
            "name" : "\u5927",
            "primitives" : [
                {
                    "attributes" : {
                        "POSITION" : 0,
                        "NORMAL" : 1,
                        "TEXCOORD_0" : 2
                    },
                    "indices" : 3,
                    "material" : 0
                }
            ]
        }
    ],
    "accessors" : [
        {
            "bufferView" : 0,
            "componentType" : 5126,
            "count" : 7505,
            "max" : [
                2.134977340698242,
                1.354597806930542,
                0.8058817982673645
            ],
            "min" : [
                -2.210864782333374,
                -0.054819703102111816,
                -0.9686403274536133
            ],
            "type" : "VEC3"
        },
        {
            "bufferView" : 1,
            "componentType" : 5126,
            "count" : 7505,
            "type" : "VEC3"
        },
        {
            "bufferView" : 2,
            "componentType" : 5126,
            "count" : 7505,
            "type" : "VEC2"
        },
        {
            "bufferView" : 3,
            "componentType" : 5123,
            "count" : 10080,
            "type" : "SCALAR"
        }
    ],
    "bufferViews" : [
        {
            "buffer" : 0,
            "byteLength" : 90060,
            "byteOffset" : 0
        },
        {
            "buffer" : 0,
            "byteLength" : 90060,
            "byteOffset" : 90060
        },
        {
            "buffer" : 0,
            "byteLength" : 60040,
            "byteOffset" : 180120
        },
        {
            "buffer" : 0,
            "byteLength" : 20160,
            "byteOffset" : 240160
        }
    ],
    "buffers" : [
        {
            "byteLength" : 260320,
            "uri" : "data:application/octet-stream;base64,"
        }
    ]
}
