{
    "asset" : {
        "generator" : "Khronos glTF Blender I/O v3.2.43",
        "version" : "2.0"
    },
    "scene" : 0,
    "scenes" : [
        {
            "name" : "Scene",
            "nodes" : [
                0
            ]
        }
    ],
    "nodes" : [
        {
            "mesh" : 0,
            "name" : "\u5c0f"
        }
    ],
    "materials" : [
        {
            "alphaMode" : "BLEND",
            "name" : "\u6750\u8d28",
            "pbrMetallicRoughness" : {
                "baseColorFactor" : [
                    0.17100000381469727,
                    0.7177500128746033,
                    0.8999999761581421,
                    0.18000000715255737
                ],
                "metallicFactor" : 0,
                "roughnessFactor" : 0.75
            }
        }
    ],
    "meshes" : [
        {
            "name" : "\u5c0f",
            "primitives" : [
                {
                    "attributes" : {
                        "POSITION" : 0,
                        "NORMAL" : 1,
                        "TEXCOORD_0" : 2
                    },
                    "indices" : 3,
                    "material" : 0
                }
            ]
        }
    ],
    "accessors" : [
        {
            "bufferView" : 0,
            "componentType" : 5126,
            "count" : 823,
            "max" : [
                1.4980342388153076,
                1.4915298223495483,
                0.45432406663894653
            ],
            "min" : [
                -1.5172655582427979,
                0.03494291752576828,
                -0.5182708501815796
            ],
            "type" : "VEC3"
        },
        {
            "bufferView" : 1,
            "componentType" : 5126,
            "count" : 823,
            "type" : "VEC3"
        },
        {
            "bufferView" : 2,
            "componentType" : 5126,
            "count" : 823,
            "type" : "VEC2"
        },
        {
            "bufferView" : 3,
            "componentType" : 5123,
            "count" : 1224,
            "type" : "SCALAR"
        }
    ],
    "bufferViews" : [
        {
            "buffer" : 0,
            "byteLength" : 9876,
            "byteOffset" : 0
        },
        {
            "buffer" : 0,
            "byteLength" : 9876,
            "byteOffset" : 9876
        },
        {
            "buffer" : 0,
            "byteLength" : 6584,
            "byteOffset" : 19752
        },
        {
            "buffer" : 0,
            "byteLength" : 2448,
            "byteOffset" : 26336
        }
    ],
    "buffers" : [
        {
            "byteLength" : 28784,
            "uri" : "data:application/octet-stream;base64,"
        }
    ]
}
