{
  "accessors": [
    {
      "bufferView": 2,
      "componentType": 5126,
      "count": 2186,
      "max": [
        228.13365173339844,
        133.34600830078125,
        117.94923400878906
      ],
      "min": [
        -228.13365173339844,
        -38.815113067626953,
        -146.1553955078125
      ],
      "type": "VEC3"
    },
    {
      "bufferView": 2,
      "byteOffset": 26232,
      "componentType": 5126,
      "count": 2186,
      "max": [
        0.99998712539672852,
        0.99929714202880859,
        0.98516064882278442
      ],
      "min": [
        -0.99989360570907593,
        -0.99892449378967285,
        -0.9977603554725647
      ],
      "type": "VEC3"
    },
    {
      "bufferView": 3,
      "componentType": 5126,
      "count": 2186,
      "max": [
        0.99999833106994629,
        0.99872761964797974,
        0.99986302852630615,
        1
      ],
      "min": [
        -0.99999457597732544,
        -0.98114264011383057,
        -0.99891781806945801,
        -1
      ],
      "type": "VEC4"
    },
    {
      "bufferView": 1,
      "componentType": 5126,
      "count": 2186,
      "max": [
        0.99746197462081909,
        0.99755901098251343
      ],
      "min": [
        0.002440999960526824,
        0.002440999960526824
      ],
      "type": "VEC2"
    },
    {
      "bufferView": 0,
      "componentType": 5125,
      "count": 9474,
      "max": [
        2185
      ],
      "min": [
        0
      ],
      "type": "SCALAR"
    },
    {
      "bufferView": 2,
      "byteOffset": 52464,
      "componentType": 5126,
      "count": 815,
      "max": [
        209.78678894042969,
        115.34664154052734,
        146.1553955078125
      ],
      "min": [
        -161.27774047851562,
        -133.34600830078125,
        -135.56324768066406
      ],
      "type": "VEC3"
    },
    {
      "bufferView": 2,
      "byteOffset": 62244,
      "componentType": 5126,
      "count": 815,
      "max": [
        0.99951434135437012,
        0.93518012762069702,
        0.97264623641967773
      ],
      "min": [
        -0.99918538331985474,
        -0.99069714546203613,
        -0.94855952262878418
      ],
      "type": "VEC3"
    },
    {
      "bufferView": 1,
      "byteOffset": 17488,
      "componentType": 5126,
      "count": 815,
      "max": [
        1.9954270124435425,
        0.99755901098251343
      ],
      "min": [
        1.0024410486221313,
        0.002440999960526824
      ],
      "type": "VEC2"
    },
    {
      "bufferView": 0,
      "byteOffset": 37896,
      "componentType": 5125,
      "count": 2364,
      "max": [
        814
      ],
      "min": [
        0
      ],
      "type": "SCALAR"
    }
  ],
  "asset": {
    "extras": {
      "author": "katrin.701 (https://sketchfab.com/katrin.701)",
      "license": "CC-BY-4.0 (http://creativecommons.org/licenses/by/4.0/)",
      "source": "https://sketchfab.com/3d-models/viking-book-c23b8c487c3c455cb8ff970a3ec3a5c2",
      "title": "Viking book"
    },
    "generator": "Sketchfab-8.72.3",
    "version": "2.0"
  },
  "bufferViews": [
    {
      "buffer": 0,
      "byteLength": 47352,
      "byteOffset": 0,
      "name": "floatBufferViews",
      "target": 34963
    },
    {
      "buffer": 0,
      "byteLength": 24008,
      "byteOffset": 47352,
      "byteStride": 8,
      "name": "floatBufferViews",
      "target": 34962
    },
    {
      "buffer": 0,
      "byteLength": 72024,
      "byteOffset": 71360,
      "byteStride": 12,
      "name": "floatBufferViews",
      "target": 34962
    },
    {
      "buffer": 0,
      "byteLength": 34976,
      "byteOffset": 143384,
      "byteStride": 16,
      "name": "floatBufferViews",
      "target": 34962
    }
  ],
  "buffers": [
    {
      "byteLength": 178360,
      "uri": "scene.bin"
    }
  ],
  "images": [
    {
      "uri": "textures/MeshSG_baseColor.png"
    },
    {
      "uri": "textures/MeshSG_metallicRoughness.png"
    },
    {
      "uri": "textures/MeshSG_emissive.png"
    },
    {
      "uri": "textures/MeshSG_normal.png"
    },
    {
      "uri": "textures/lambert5SG_baseColor.png"
    },
    {
      "uri": "textures/lambert5SG_emissive.png"
    }
  ],
  "materials": [
    {
      "doubleSided": true,
      "emissiveFactor": [
        1,
        1,
        1
      ],
      "emissiveTexture": {
        "index": 2,
        "texCoord": 0
      },
      "name": "MeshSG",
      "normalTexture": {
        "index": 3,
        "scale": 1,
        "texCoord": 0
      },
      "pbrMetallicRoughness": {
        "baseColorFactor": [
          1,
          1,
          1,
          1
        ],
        "baseColorTexture": {
          "index": 0,
          "texCoord": 0
        },
        "metallicFactor": 1,
        "metallicRoughnessTexture": {
          "index": 1,
          "texCoord": 0
        },
        "roughnessFactor": 1
      }
    },
    {
      "alphaMode": "BLEND",
      "doubleSided": true,
      "emissiveFactor": [
        1,
        1,
        1
      ],
      "emissiveTexture": {
        "index": 5,
        "texCoord": 0
      },
      "name": "lambert5SG",
      "pbrMetallicRoughness": {
        "baseColorFactor": [
          0.49385728845474153,
          0.49385728845474153,
          0.49385728845474153,
          1
        ],
        "baseColorTexture": {
          "index": 4,
          "texCoord": 0
        },
        "metallicFactor": 0,
        "roughnessFactor": 1
      }
    }
  ],
  "meshes": [
    {
      "primitives": [
        {
          "attributes": {
            "NORMAL": 1,
            "POSITION": 0,
            "TANGENT": 2,
            "TEXCOORD_0": 3
          },
          "indices": 4,
          "material": 0,
          "mode": 4
        }
      ]
    },
    {
      "primitives": [
        {
          "attributes": {
            "NORMAL": 6,
            "POSITION": 5,
            "TEXCOORD_0": 7
          },
          "indices": 8,
          "material": 1,
          "mode": 4
        }
      ]
    }
  ],
  "nodes": [
    {
      "children": [
        1
      ],
      "name": "RootNode (gltf orientation matrix)",
      "rotation": [
        -0.70710678118654746,
        -0,
        -0,
        0.70710678118654757
      ]
    },
    {
      "children": [
        2
      ],
      "name": "RootNode (model correction matrix)"
    },
    {
      "children": [
        3,
        4
      ],
      "name": "48198c4a50784042abccd2a16aed1bf1.obj.cleaner.materialmerger.gles"
    },
    {
      "mesh": 0,
      "name": ""
    },
    {
      "mesh": 1,
      "name": ""
    }
  ],
  "samplers": [
    {
      "magFilter": 9729,
      "minFilter": 9987,
      "wrapS": 10497,
      "wrapT": 10497
    }
  ],
  "scene": 0,
  "scenes": [
    {
      "name": "OSG_Scene",
      "nodes": [
        0
      ]
    }
  ],
  "textures": [
    {
      "sampler": 0,
      "source": 0
    },
    {
      "sampler": 0,
      "source": 1
    },
    {
      "sampler": 0,
      "source": 2
    },
    {
      "sampler": 0,
      "source": 3
    },
    {
      "sampler": 0,
      "source": 4
    },
    {
      "sampler": 0,
      "source": 5
    }
  ]
}

