{
	"asset":{
		"version":"2.0",
		"generator":"Created using the official Cinema 4D glTF Exporter 1.000x284978"
	},
	"accessors":[{
		"count":5172,
		"bufferView":0,
		"type":"SCALAR",
		"componentType":5123,
		"byteOffset":0,
		"min":[0],
		"max":[963]
	},
	{
		"count":964,
		"bufferView":1,
		"type":"VEC3",
		"componentType":5126,
		"byteOffset":0,
		"min":[-5.947510242462158,
		-12.687681198120118,
		-12.069942474365235],
		"max":[5.947510242462158,
		12.687681198120118,
		12.069942474365235]
	},
	{
		"count":964,
		"bufferView":1,
		"type":"VEC3",
		"componentType":5126,
		"byteOffset":12,
		"min":[-0.9985150098800659,
		-0.9985532164573669,
		-0.9985531568527222],
		"max":[0.9985532164573669,
		0.9985532164573669,
		0.9985531568527222]
	},
	{
		"count":964,
		"bufferView":1,
		"type":"VEC2",
		"componentType":5126,
		"byteOffset":24,
		"min":[-0.07259143143892288,
		-0.03402814269065857],
		"max":[1.0725914239883423,
		1.0340280532836915]
	},
	{
		"count":132,
		"bufferView":2,
		"type":"SCALAR",
		"componentType":5123,
		"byteOffset":0,
		"min":[0],
		"max":[99]
	},
	{
		"count":100,
		"bufferView":3,
		"type":"VEC3",
		"componentType":5126,
		"byteOffset":0,
		"min":[-244.89431762695313,
		4.436148166656494,
		-12.982490539550782],
		"max":[-244.24847412109376,
		11.551511764526368,
		12.67624568939209]
	},
	{
		"count":100,
		"bufferView":3,
		"type":"VEC3",
		"componentType":5126,
		"byteOffset":12,
		"min":[-1.0,
		-1.0,
		-1.0],
		"max":[1.0,
		1.0,
		1.0]
	},
	{
		"count":132,
		"bufferView":4,
		"type":"SCALAR",
		"componentType":5123,
		"byteOffset":0,
		"min":[0],
		"max":[99]
	},
	{
		"count":100,
		"bufferView":5,
		"type":"VEC3",
		"componentType":5126,
		"byteOffset":0,
		"min":[-243.66758728027345,
		4.436148166656494,
		-12.982490539550782],
		"max":[-243.02174377441407,
		11.551511764526368,
		12.67624568939209]
	},
	{
		"count":100,
		"bufferView":5,
		"type":"VEC3",
		"componentType":5126,
		"byteOffset":12,
		"min":[-1.0,
		-1.0,
		-1.0],
		"max":[1.0,
		1.0,
		1.0]
	},
	{
		"count":132,
		"bufferView":6,
		"type":"SCALAR",
		"componentType":5123,
		"byteOffset":0,
		"min":[0],
		"max":[99]
	},
	{
		"count":100,
		"bufferView":7,
		"type":"VEC3",
		"componentType":5126,
		"byteOffset":0,
		"min":[-242.52593994140626,
		4.436148166656494,
		-12.982490539550782],
		"max":[-241.88009643554688,
		11.551511764526368,
		12.67624568939209]
	},
	{
		"count":100,
		"bufferView":7,
		"type":"VEC3",
		"componentType":5126,
		"byteOffset":12,
		"min":[-1.0,
		-1.0,
		-1.0],
		"max":[1.0,
		1.0,
		1.0]
	},
	{
		"count":132,
		"bufferView":8,
		"type":"SCALAR",
		"componentType":5123,
		"byteOffset":0,
		"min":[0],
		"max":[99]
	},
	{
		"count":100,
		"bufferView":9,
		"type":"VEC3",
		"componentType":5126,
		"byteOffset":0,
		"min":[-241.51792907714845,
		4.436148166656494,
		-12.982490539550782],
		"max":[-240.87208557128907,
		11.551511764526368,
		12.67624568939209]
	},
	{
		"count":100,
		"bufferView":9,
		"type":"VEC3",
		"componentType":5126,
		"byteOffset":12,
		"min":[-1.0,
		-1.0,
		-1.0],
		"max":[1.0,
		1.0,
		1.0]
	},
	{
		"count":132,
		"bufferView":10,
		"type":"SCALAR",
		"componentType":5123,
		"byteOffset":0,
		"min":[0],
		"max":[99]
	},
	{
		"count":100,
		"bufferView":11,
		"type":"VEC3",
		"componentType":5126,
		"byteOffset":0,
		"min":[-240.45077514648438,
		4.436148166656494,
		-12.982490539550782],
		"max":[-239.804931640625,
		11.551511764526368,
		12.67624568939209]
	},
	{
		"count":100,
		"bufferView":11,
		"type":"VEC3",
		"componentType":5126,
		"byteOffset":12,
		"min":[-1.0,
		-1.0,
		-1.0],
		"max":[1.0,
		1.0,
		1.0]
	},
	{
		"count":132,
		"bufferView":12,
		"type":"SCALAR",
		"componentType":5123,
		"byteOffset":0,
		"min":[0],
		"max":[99]
	},
	{
		"count":100,
		"bufferView":13,
		"type":"VEC3",
		"componentType":5126,
		"byteOffset":0,
		"min":[-239.47398376464845,
		4.436148166656494,
		-12.982490539550782],
		"max":[-238.82814025878907,
		11.551511764526368,
		12.67624568939209]
	},
	{
		"count":100,
		"bufferView":13,
		"type":"VEC3",
		"componentType":5126,
		"byteOffset":12,
		"min":[-1.0,
		-1.0,
		-1.0],
		"max":[1.0,
		1.0,
		1.0]
	},
	{
		"count":132,
		"bufferView":14,
		"type":"SCALAR",
		"componentType":5123,
		"byteOffset":0,
		"min":[0],
		"max":[99]
	},
	{
		"count":100,
		"bufferView":15,
		"type":"VEC3",
		"componentType":5126,
		"byteOffset":0,
		"min":[-238.38818359375,
		4.436148166656494,
		-12.982490539550782],
		"max":[-237.74234008789063,
		11.551511764526368,
		12.67624568939209]
	},
	{
		"count":100,
		"bufferView":15,
		"type":"VEC3",
		"componentType":5126,
		"byteOffset":12,
		"min":[-1.0,
		-1.0,
		-1.0],
		"max":[1.0,
		1.0,
		1.0]
	},
	{
		"count":132,
		"bufferView":16,
		"type":"SCALAR",
		"componentType":5123,
		"byteOffset":0,
		"min":[0],
		"max":[99]
	},
	{
		"count":100,
		"bufferView":17,
		"type":"VEC3",
		"componentType":5126,
		"byteOffset":0,
		"min":[-237.32037353515626,
		4.436148166656494,
		-12.982490539550782],
		"max":[-236.67453002929688,
		11.551511764526368,
		12.67624568939209]
	},
	{
		"count":100,
		"bufferView":17,
		"type":"VEC3",
		"componentType":5126,
		"byteOffset":12,
		"min":[-1.0,
		-1.0,
		-1.0],
		"max":[1.0,
		1.0,
		1.0]
	},
	{
		"count":132,
		"bufferView":18,
		"type":"SCALAR",
		"componentType":5123,
		"byteOffset":0,
		"min":[0],
		"max":[101]
	},
	{
		"count":102,
		"bufferView":19,
		"type":"VEC3",
		"componentType":5126,
		"byteOffset":0,
		"min":[-1.2575023174285889,
		-10.612725257873536,
		-12.982490539550782],
		"max":[-0.6116598844528198,
		-3.497363328933716,
		12.67624568939209]
	},
	{
		"count":102,
		"bufferView":19,
		"type":"VEC3",
		"componentType":5126,
		"byteOffset":12,
		"min":[-1.0,
		-1.0,
		-1.0],
		"max":[1.0,
		1.0,
		1.0]
	},
	{
		"count":132,
		"bufferView":20,
		"type":"SCALAR",
		"componentType":5123,
		"byteOffset":0,
		"min":[0],
		"max":[101]
	},
	{
		"count":102,
		"bufferView":21,
		"type":"VEC3",
		"componentType":5126,
		"byteOffset":0,
		"min":[-2.343299388885498,
		-10.612725257873536,
		-12.982490539550782],
		"max":[-1.6974570751190186,
		-3.497363328933716,
		12.67624568939209]
	},
	{
		"count":102,
		"bufferView":21,
		"type":"VEC3",
		"componentType":5126,
		"byteOffset":12,
		"min":[-1.0,
		-1.0,
		-1.0],
		"max":[1.0,
		1.0,
		1.0]
	},
	{
		"count":132,
		"bufferView":22,
		"type":"SCALAR",
		"componentType":5123,
		"byteOffset":0,
		"min":[0],
		"max":[99]
	},
	{
		"count":100,
		"bufferView":23,
		"type":"VEC3",
		"componentType":5126,
		"byteOffset":0,
		"min":[-3.3200864791870119,
		-10.612725257873536,
		-12.982490539550782],
		"max":[-2.6742441654205324,
		-3.497363328933716,
		12.67624568939209]
	},
	{
		"count":100,
		"bufferView":23,
		"type":"VEC3",
		"componentType":5126,
		"byteOffset":12,
		"min":[-1.0,
		-1.0,
		-1.0],
		"max":[1.0,
		1.0,
		1.0]
	},
	{
		"count":132,
		"bufferView":24,
		"type":"SCALAR",
		"componentType":5123,
		"byteOffset":0,
		"min":[0],
		"max":[101]
	},
	{
		"count":102,
		"bufferView":25,
		"type":"VEC3",
		"componentType":5126,
		"byteOffset":0,
		"min":[-4.387246131896973,
		-10.612725257873536,
		-12.982490539550782],
		"max":[-3.741403818130493,
		-3.497363328933716,
		12.67624568939209]
	},
	{
		"count":102,
		"bufferView":25,
		"type":"VEC3",
		"componentType":5126,
		"byteOffset":12,
		"min":[-1.0,
		-1.0,
		-1.0],
		"max":[1.0,
		1.0,
		1.0]
	},
	{
		"count":132,
		"bufferView":26,
		"type":"SCALAR",
		"componentType":5123,
		"byteOffset":0,
		"min":[0],
		"max":[99]
	},
	{
		"count":100,
		"bufferView":27,
		"type":"VEC3",
		"componentType":5126,
		"byteOffset":0,
		"min":[-5.3952507972717289,
		-10.612725257873536,
		-12.982490539550782],
		"max":[-4.749408721923828,
		-3.497363328933716,
		12.67624568939209]
	},
	{
		"count":100,
		"bufferView":27,
		"type":"VEC3",
		"componentType":5126,
		"byteOffset":12,
		"min":[-1.0,
		-1.0,
		-1.0],
		"max":[1.0,
		1.0,
		1.0]
	},
	{
		"count":132,
		"bufferView":28,
		"type":"SCALAR",
		"componentType":5123,
		"byteOffset":0,
		"min":[0],
		"max":[99]
	},
	{
		"count":100,
		"bufferView":29,
		"type":"VEC3",
		"componentType":5126,
		"byteOffset":0,
		"min":[-6.536904335021973,
		-10.612725257873536,
		-12.982490539550782],
		"max":[-5.891062259674072,
		-3.497363328933716,
		12.67624568939209]
	},
	{
		"count":100,
		"bufferView":29,
		"type":"VEC3",
		"componentType":5126,
		"byteOffset":12,
		"min":[-1.0,
		-1.0,
		-1.0],
		"max":[1.0,
		1.0,
		1.0]
	},
	{
		"count":6336,
		"bufferView":30,
		"type":"SCALAR",
		"componentType":5123,
		"byteOffset":0,
		"min":[0],
		"max":[6151]
	},
	{
		"count":6152,
		"bufferView":31,
		"type":"VEC3",
		"componentType":5126,
		"byteOffset":0,
		"min":[-86.26475524902344,
		-13.055118560791016,
		190.6112060546875],
		"max":[-75.6639633178711,
		-9.52717399597168,
		201.29212951660157]
	},
	{
		"count":6152,
		"bufferView":31,
		"type":"VEC3",
		"componentType":5126,
		"byteOffset":12,
		"min":[-0.9901504516601563,
		-0.9473877549171448,
		-0.9901568293571472],
		"max":[0.990148663520813,
		0.9473877549171448,
		0.9901471138000488]
	},
	{
		"count":4068,
		"bufferView":32,
		"type":"SCALAR",
		"componentType":5123,
		"byteOffset":0,
		"min":[0],
		"max":[3511]
	},
	{
		"count":3512,
		"bufferView":33,
		"type":"VEC3",
		"componentType":5126,
		"byteOffset":0,
		"min":[-87.19990539550781,
		-11.572113037109375,
		189.595947265625],
		"max":[-74.8089370727539,
		-10.203685760498047,
		201.98690795898438]
	},
	{
		"count":3512,
		"bufferView":33,
		"type":"VEC3",
		"componentType":5126,
		"byteOffset":12,
		"min":[-1.0,
		-1.0,
		-1.0],
		"max":[1.0,
		1.0,
		1.0]
	},
	{
		"count":4068,
		"bufferView":34,
		"type":"SCALAR",
		"componentType":5123,
		"byteOffset":0,
		"min":[0],
		"max":[3509]
	},
	{
		"count":3510,
		"bufferView":35,
		"type":"VEC3",
		"componentType":5126,
		"byteOffset":0,
		"min":[-87.19990539550781,
		-13.271684646606446,
		189.595947265625],
		"max":[-74.8089370727539,
		-11.903258323669434,
		201.98690795898438]
	},
	{
		"count":3510,
		"bufferView":35,
		"type":"VEC3",
		"componentType":5126,
		"byteOffset":12,
		"min":[-1.0,
		-1.0,
		-1.0],
		"max":[1.0,
		1.0,
		1.0]
	},
	{
		"count":96,
		"bufferView":36,
		"type":"SCALAR",
		"componentType":5123,
		"byteOffset":0,
		"min":[0],
		"max":[23]
	},
	{
		"count":24,
		"bufferView":37,
		"type":"VEC3",
		"componentType":5126,
		"byteOffset":0,
		"min":[53.94447326660156,
		-9.017195701599121,
		99.42313385009766],
		"max":[78.2856216430664,
		-8.59227180480957,
		123.76428985595703]
	},
	{
		"count":36,
		"bufferView":38,
		"type":"SCALAR",
		"componentType":5123,
		"byteOffset":0,
		"min":[0],
		"max":[25]
	},
	{
		"count":26,
		"bufferView":39,
		"type":"VEC3",
		"componentType":5126,
		"byteOffset":0,
		"min":[19.612125396728517,
		-1.8488057851791382,
		-15.266495704650879],
		"max":[51.578857421875,
		0.947207510471344,
		16.700237274169923]
	},
	{
		"count":26,
		"bufferView":39,
		"type":"VEC3",
		"componentType":5126,
		"byteOffset":12,
		"min":[-1.0,
		-1.0,
		-1.0],
		"max":[1.0,
		1.0,
		1.0]
	}],
	"scenes":[{
		"nodes":[0]
	}],
	"nodes":[{
		"name":"拓扑",
		"children":[1,
		2,
		17,
		21]
	},
	{
		"scale":[1.0,
		1.0,
		1.0],
		"name":"外机箱",
		"translation":[-0.12789341807365418,
		26.62390899658203,
		0.9124365448951721],
		"rotation":[0.0,
		0.0,
		0.0,
		-1.0],
		"mesh":0
	},
	{
		"scale":[1.0,
		1.0,
		1.0],
		"name":"内机箱条",
		"translation":[-0.03418005257844925,
		12.786046028137207,
		1.3220198154449463],
		"rotation":[0.0,
		0.0,
		0.0,
		-1.0],
		"children":[3,
		4,
		5,
		6,
		7,
		8,
		9,
		10,
		11,
		12,
		13,
		14,
		15,
		16]
	},
	{
		"scale":[1.0,
		1.0,
		1.0],
		"name":"立方体.8_12",
		"translation":[240.72950744628907,
		13.88588809967041,
		-0.2523365914821625],
		"rotation":[0.0,
		0.0,
		0.0,
		-1.0],
		"mesh":1
	},
	{
		"scale":[1.0,
		1.0,
		1.0],
		"name":"立方体.7_12",
		"translation":[240.72950744628907,
		13.88588809967041,
		-0.2523365914821625],
		"rotation":[0.0,
		0.0,
		0.0,
		-1.0],
		"mesh":2
	},
	{
		"scale":[1.0,
		1.0,
		1.0],
		"name":"立方体.6_10",
		"translation":[240.72950744628907,
		13.88588809967041,
		-0.2523365914821625],
		"rotation":[0.0,
		0.0,
		0.0,
		-1.0],
		"mesh":3
	},
	{
		"scale":[1.0,
		1.0,
		1.0],
		"name":"立方体.5_10",
		"translation":[240.72950744628907,
		13.88588809967041,
		-0.2523365914821625],
		"rotation":[0.0,
		0.0,
		0.0,
		-1.0],
		"mesh":4
	},
	{
		"scale":[1.0,
		1.0,
		1.0],
		"name":"立方体.4_12",
		"translation":[240.72950744628907,
		13.88588809967041,
		-0.2523365914821625],
		"rotation":[0.0,
		0.0,
		0.0,
		-1.0],
		"mesh":5
	},
	{
		"scale":[1.0,
		1.0,
		1.0],
		"name":"立方体.3_12",
		"translation":[240.72950744628907,
		13.88588809967041,
		-0.2523365914821625],
		"rotation":[0.0,
		0.0,
		0.0,
		-1.0],
		"mesh":6
	},
	{
		"scale":[1.0,
		1.0,
		1.0],
		"name":"立方体.2_12",
		"translation":[240.72950744628907,
		13.88588809967041,
		-0.2523365914821625],
		"rotation":[0.0,
		0.0,
		0.0,
		-1.0],
		"mesh":7
	},
	{
		"scale":[1.0,
		1.0,
		1.0],
		"name":"立方体.1_12",
		"translation":[240.72950744628907,
		13.88588809967041,
		-0.2523365914821625],
		"rotation":[0.0,
		0.0,
		0.0,
		-1.0],
		"mesh":8
	},
	{
		"scale":[1.0,
		1.0,
		1.0],
		"name":"立方体.15_12",
		"translation":[3.870455026626587,
		13.88588809967041,
		-0.2523365914821625],
		"rotation":[0.0,
		0.0,
		0.0,
		-1.0],
		"mesh":9
	},
	{
		"scale":[1.0,
		1.0,
		1.0],
		"name":"立方体.14_12",
		"translation":[3.870455026626587,
		13.88588809967041,
		-0.2523365914821625],
		"rotation":[0.0,
		0.0,
		0.0,
		-1.0],
		"mesh":10
	},
	{
		"scale":[1.0,
		1.0,
		1.0],
		"name":"立方体.13_12",
		"translation":[3.870455026626587,
		13.88588809967041,
		-0.2523365914821625],
		"rotation":[0.0,
		0.0,
		0.0,
		-1.0],
		"mesh":11
	},
	{
		"scale":[1.0,
		1.0,
		1.0],
		"name":"立方体.12_12",
		"translation":[3.870455026626587,
		13.88588809967041,
		-0.2523365914821625],
		"rotation":[0.0,
		0.0,
		0.0,
		-1.0],
		"mesh":12
	},
	{
		"scale":[1.0,
		1.0,
		1.0],
		"name":"立方体.11_12",
		"translation":[3.870455026626587,
		13.88588809967041,
		-0.2523365914821625],
		"rotation":[0.0,
		0.0,
		0.0,
		-1.0],
		"mesh":13
	},
	{
		"scale":[1.0,
		1.0,
		1.0],
		"name":"立方体.10_12",
		"translation":[3.870455026626587,
		13.88588809967041,
		-0.2523365914821625],
		"rotation":[0.0,
		0.0,
		0.0,
		-1.0],
		"mesh":14
	},
	{
		"scale":[1.0,
		1.0,
		1.0],
		"name":"机箱底座",
		"translation":[0.3896961510181427,
		16.41990089416504,
		1.266748070716858],
		"rotation":[0.0,
		0.0,
		0.0,
		-1.0],
		"children":[18,
		19,
		20]
	},
	{
		"scale":[1.0,
		1.0,
		1.0],
		"name":"装饰球",
		"translation":[80.65672302246094,
		0.0,
		-195.8922576904297],
		"rotation":[0.0,
		0.0,
		0.0,
		-1.0],
		"mesh":15
	},
	{
		"scale":[1.0,
		1.0,
		1.0],
		"name":"上层",
		"translation":[80.65672302246094,
		0.0,
		-195.8922576904297],
		"rotation":[0.0,
		0.0,
		0.0,
		-1.0],
		"mesh":16
	},
	{
		"scale":[1.0,
		1.0,
		1.0],
		"name":"下层",
		"translation":[80.65672302246094,
		0.0,
		-195.8922576904297],
		"rotation":[0.0,
		0.0,
		0.0,
		-1.0],
		"mesh":17
	},
	{
		"scale":[1.0,
		1.0,
		1.0],
		"name":"底台",
		"translation":[0.8949532508850098,
		12.786046028137207,
		0.5219237208366394],
		"rotation":[0.0,
		0.0,
		0.0,
		-1.0],
		"children":[22,
		23]
	},
	{
		"scale":[1.0,
		1.0,
		1.0],
		"name":"底部方框",
		"translation":[-66.84456634521485,
		-1.2807815074920655,
		-110.97508239746094],
		"rotation":[0.0,
		0.0,
		0.0,
		-1.0],
		"mesh":18
	},
	{
		"scale":[1.0,
		1.0,
		1.0],
		"name":"大底台",
		"translation":[-36.41362380981445,
		-11.059386253356934,
		0.19850343465805055],
		"rotation":[0.0,
		0.0,
		0.0,
		-1.0],
		"mesh":19
	}],
	"meshes":[{
		"name":"外机箱",
		"primitives":[{
			"attributes":{
				"NORMAL":2,
				"POSITION":1,
				"TEXCOORD_0":3
			},
			"indices":0,
			"material":0
		}]
	},
	{
		"name":"立方体.8_12",
		"primitives":[{
			"attributes":{
				"NORMAL":6,
				"POSITION":5
			},
			"indices":4,
			"material":1
		}]
	},
	{
		"name":"立方体.7_12",
		"primitives":[{
			"attributes":{
				"NORMAL":9,
				"POSITION":8
			},
			"indices":7,
			"material":1
		}]
	},
	{
		"name":"立方体.6_10",
		"primitives":[{
			"attributes":{
				"NORMAL":12,
				"POSITION":11
			},
			"indices":10,
			"material":1
		}]
	},
	{
		"name":"立方体.5_10",
		"primitives":[{
			"attributes":{
				"NORMAL":15,
				"POSITION":14
			},
			"indices":13,
			"material":1
		}]
	},
	{
		"name":"立方体.4_12",
		"primitives":[{
			"attributes":{
				"NORMAL":18,
				"POSITION":17
			},
			"indices":16,
			"material":1
		}]
	},
	{
		"name":"立方体.3_12",
		"primitives":[{
			"attributes":{
				"NORMAL":21,
				"POSITION":20
			},
			"indices":19,
			"material":2
		}]
	},
	{
		"name":"立方体.2_12",
		"primitives":[{
			"attributes":{
				"NORMAL":24,
				"POSITION":23
			},
			"indices":22,
			"material":1
		}]
	},
	{
		"name":"立方体.1_12",
		"primitives":[{
			"attributes":{
				"NORMAL":27,
				"POSITION":26
			},
			"indices":25,
			"material":3
		}]
	},
	{
		"name":"立方体.15_12",
		"primitives":[{
			"attributes":{
				"NORMAL":30,
				"POSITION":29
			},
			"indices":28,
			"material":2
		}]
	},
	{
		"name":"立方体.14_12",
		"primitives":[{
			"attributes":{
				"NORMAL":33,
				"POSITION":32
			},
			"indices":31,
			"material":1
		}]
	},
	{
		"name":"立方体.13_12",
		"primitives":[{
			"attributes":{
				"NORMAL":36,
				"POSITION":35
			},
			"indices":34,
			"material":1
		}]
	},
	{
		"name":"立方体.12_12",
		"primitives":[{
			"attributes":{
				"NORMAL":39,
				"POSITION":38
			},
			"indices":37,
			"material":2
		}]
	},
	{
		"name":"立方体.11_12",
		"primitives":[{
			"attributes":{
				"NORMAL":42,
				"POSITION":41
			},
			"indices":40,
			"material":3
		}]
	},
	{
		"name":"立方体.10_12",
		"primitives":[{
			"attributes":{
				"NORMAL":45,
				"POSITION":44
			},
			"indices":43,
			"material":3
		}]
	},
	{
		"name":"装饰球",
		"primitives":[{
			"attributes":{
				"NORMAL":48,
				"POSITION":47
			},
			"indices":46,
			"material":3
		}]
	},
	{
		"name":"上层",
		"primitives":[{
			"attributes":{
				"NORMAL":51,
				"POSITION":50
			},
			"indices":49,
			"material":2
		}]
	},
	{
		"name":"下层",
		"primitives":[{
			"attributes":{
				"NORMAL":54,
				"POSITION":53
			},
			"indices":52,
			"material":1
		}]
	},
	{
		"name":"底部方框",
		"primitives":[{
			"attributes":{
				"POSITION":56
			},
			"indices":55,
			"material":1
		}]
	},
	{
		"name":"大底台",
		"primitives":[{
			"attributes":{
				"NORMAL":59,
				"POSITION":58
			},
			"indices":57,
			"material":2
		}]
	}],
	"bufferViews":[{
		"buffer":0,
		"byteOffset":0,
		"byteLength":10344,
		"target":34963
	},
	{
		"buffer":0,
		"byteOffset":10344,
		"byteLength":30848,
		"target":34962,
		"byteStride":32
	},
	{
		"buffer":1,
		"byteOffset":0,
		"byteLength":264,
		"target":34963
	},
	{
		"buffer":1,
		"byteOffset":264,
		"byteLength":2400,
		"target":34962,
		"byteStride":24
	},
	{
		"buffer":2,
		"byteOffset":0,
		"byteLength":264,
		"target":34963
	},
	{
		"buffer":2,
		"byteOffset":264,
		"byteLength":2400,
		"target":34962,
		"byteStride":24
	},
	{
		"buffer":3,
		"byteOffset":0,
		"byteLength":264,
		"target":34963
	},
	{
		"buffer":3,
		"byteOffset":264,
		"byteLength":2400,
		"target":34962,
		"byteStride":24
	},
	{
		"buffer":4,
		"byteOffset":0,
		"byteLength":264,
		"target":34963
	},
	{
		"buffer":4,
		"byteOffset":264,
		"byteLength":2400,
		"target":34962,
		"byteStride":24
	},
	{
		"buffer":5,
		"byteOffset":0,
		"byteLength":264,
		"target":34963
	},
	{
		"buffer":5,
		"byteOffset":264,
		"byteLength":2400,
		"target":34962,
		"byteStride":24
	},
	{
		"buffer":6,
		"byteOffset":0,
		"byteLength":264,
		"target":34963
	},
	{
		"buffer":6,
		"byteOffset":264,
		"byteLength":2400,
		"target":34962,
		"byteStride":24
	},
	{
		"buffer":7,
		"byteOffset":0,
		"byteLength":264,
		"target":34963
	},
	{
		"buffer":7,
		"byteOffset":264,
		"byteLength":2400,
		"target":34962,
		"byteStride":24
	},
	{
		"buffer":8,
		"byteOffset":0,
		"byteLength":264,
		"target":34963
	},
	{
		"buffer":8,
		"byteOffset":264,
		"byteLength":2400,
		"target":34962,
		"byteStride":24
	},
	{
		"buffer":9,
		"byteOffset":0,
		"byteLength":264,
		"target":34963
	},
	{
		"buffer":9,
		"byteOffset":264,
		"byteLength":2448,
		"target":34962,
		"byteStride":24
	},
	{
		"buffer":10,
		"byteOffset":0,
		"byteLength":264,
		"target":34963
	},
	{
		"buffer":10,
		"byteOffset":264,
		"byteLength":2448,
		"target":34962,
		"byteStride":24
	},
	{
		"buffer":11,
		"byteOffset":0,
		"byteLength":264,
		"target":34963
	},
	{
		"buffer":11,
		"byteOffset":264,
		"byteLength":2400,
		"target":34962,
		"byteStride":24
	},
	{
		"buffer":12,
		"byteOffset":0,
		"byteLength":264,
		"target":34963
	},
	{
		"buffer":12,
		"byteOffset":264,
		"byteLength":2448,
		"target":34962,
		"byteStride":24
	},
	{
		"buffer":13,
		"byteOffset":0,
		"byteLength":264,
		"target":34963
	},
	{
		"buffer":13,
		"byteOffset":264,
		"byteLength":2400,
		"target":34962,
		"byteStride":24
	},
	{
		"buffer":14,
		"byteOffset":0,
		"byteLength":264,
		"target":34963
	},
	{
		"buffer":14,
		"byteOffset":264,
		"byteLength":2400,
		"target":34962,
		"byteStride":24
	},
	{
		"buffer":15,
		"byteOffset":0,
		"byteLength":12672,
		"target":34963
	},
	{
		"buffer":15,
		"byteOffset":12672,
		"byteLength":147648,
		"target":34962,
		"byteStride":24
	},
	{
		"buffer":16,
		"byteOffset":0,
		"byteLength":8136,
		"target":34963
	},
	{
		"buffer":16,
		"byteOffset":8136,
		"byteLength":84288,
		"target":34962,
		"byteStride":24
	},
	{
		"buffer":17,
		"byteOffset":0,
		"byteLength":8136,
		"target":34963
	},
	{
		"buffer":17,
		"byteOffset":8136,
		"byteLength":84240,
		"target":34962,
		"byteStride":24
	},
	{
		"buffer":18,
		"byteOffset":0,
		"byteLength":192,
		"target":34963
	},
	{
		"buffer":18,
		"byteOffset":192,
		"byteLength":288,
		"target":34962
	},
	{
		"buffer":19,
		"byteOffset":0,
		"byteLength":72,
		"target":34963
	},
	{
		"buffer":19,
		"byteOffset":72,
		"byteLength":624,
		"target":34962,
		"byteStride":24
	}],
	"buffers":[{
		"uri":"data:application/octet-stream;base64,",
		"byteLength":41192
	},
	{
		"uri":"data:application/octet-stream;base64,",
		"byteLength":2664
	},
	{
		"uri":"data:application/octet-stream;base64,",
		"byteLength":2664
	},
	{
		"uri":"data:application/octet-stream;base64,",
		"byteLength":2664
	},
	{
		"uri":"data:application/octet-stream;base64,",
		"byteLength":2664
	},
	{
		"uri":"data:application/octet-stream;base64,",
		"byteLength":2664
	},
	{
		"uri":"data:application/octet-stream;base64,",
		"byteLength":2664
	},
	{
		"uri":"data:application/octet-stream;base64,",
		"byteLength":2664
	},
	{
		"uri":"data:application/octet-stream;base64,",
		"byteLength":2664
	},
	{
		"uri":"data:application/octet-stream;base64,",
		"byteLength":2712
	},
	{
		"uri":"data:application/octet-stream;base64,",
		"byteLength":2712
	},
	{
		"uri":"data:application/octet-stream;base64,",
		"byteLength":2664
	},
	{
		"uri":"data:application/octet-stream;base64,",
		"byteLength":2712
	},
	{
		"uri":"data:application/octet-stream;base64,",
		"byteLength":2664
	},
	{
		"uri":"data:application/octet-stream;base64,",
		"byteLength":2664
	},
	{
		"uri":"data:application/octet-stream;base64,",
		"byteLength":160320
	},
	{
		"uri":"data:application/octet-stream;base64,",
		"byteLength":92424
	},
	{
		"uri":"data:application/octet-stream;base64,",
		"byteLength":92376
	},
	{
		"uri":"data:application/octet-stream;base64,",
		"byteLength":480
	},
	{
		"uri":"data:application/octet-stream;base64,",
		"byteLength":696
	}],
	"materials":[{
		"pbrMetallicRoughness":{
			"baseColorFactor":[0.21440000000000007,
			0.3055199999999997,
			0.67,
			0.9],
			"metallicFactor":0.8300000000000001,
			"roughnessFactor":0.4
		},
		"emissiveFactor":[0.0,
		0.0,
		0.0],
		"alphaMode":"BLEND",
		"doubleSided":false,
		"name":"材质.2"
	},
	{
		"pbrMetallicRoughness":{
			"baseColorFactor":[0.05999999999999994,
			0.4830000000000001,
			1.0,
			1.0],
			"metallicFactor":0.64,
			"roughnessFactor":0.53
		},
		"emissiveFactor":[0.0,
		0.0,
		0.0],
		"alphaMode":"OPAQUE",
		"doubleSided":false,
		"name":"材质.1"
	},
	{
		"pbrMetallicRoughness":{
			"baseColorFactor":[0.09280000000000001,
			0.12238000000000007,
			0.29,
			1.0],
			"metallicFactor":0.34,
			"roughnessFactor":0.4
		},
		"emissiveFactor":[0.0,
		0.0,
		0.0],
		"alphaMode":"OPAQUE",
		"doubleSided":false,
		"name":"材质"
	},
	{
		"pbrMetallicRoughness":{
			"baseColorFactor":[0.32000000000000008,
			1.0,
			0.5693333333333337,
			1.0],
			"metallicFactor":0.8300000000000001,
			"roughnessFactor":0.4
		},
		"emissiveFactor":[0.0,
		0.0,
		0.0],
		"alphaMode":"OPAQUE",
		"doubleSided":false,
		"name":"材质.3"
	}]
}