{
	"asset":{
		"version":"2.0",
		"generator":"Created using the official Cinema 4D glTF Exporter 1.000x284978"
	},
	"scenes":[{
		"nodes":[0]
	}],
	"nodes":[{
		"name":"默认拓扑",
		"children":[1,
		2,
		17]
	},
	{
		"name":"外机箱",
		"translation":[-0.12789341807365418,
		105.955322265625,
		-2.151444435119629],
		"rotation":[0.0,
		0.0,
		0.0,
		-1.0],
		"scale":[1.0,
		1.0,
		1.0],
		"mesh":0
	},
	{
		"name":"机箱条",
		"translation":[-0.5389072895050049,
		54.830711364746097,
		-0.8257021307945252],
		"rotation":[0.0,
		0.0,
		0.0,
		-1.0],
		"scale":[1.0,
		1.0,
		1.0],
		"children":[3,
		4,
		5,
		6,
		7,
		8,
		9,
		10,
		11,
		12,
		13,
		14,
		15,
		16]
	},
	{
		"name":"立方体.8_12",
		"translation":[896.1595458984375,
		51.692752838134769,
		-0.9393690228462219],
		"rotation":[0.0,
		0.0,
		0.0,
		-1.0],
		"scale":[1.0,
		1.0,
		1.0],
		"mesh":1
	},
	{
		"name":"立方体.7_12",
		"translation":[896.1595458984375,
		51.692752838134769,
		-0.9393690228462219],
		"rotation":[0.0,
		0.0,
		0.0,
		-1.0],
		"scale":[1.0,
		1.0,
		1.0],
		"mesh":2
	},
	{
		"name":"立方体.6_10",
		"translation":[896.1595458984375,
		51.692752838134769,
		-0.9393690228462219],
		"rotation":[0.0,
		0.0,
		0.0,
		-1.0],
		"scale":[1.0,
		1.0,
		1.0],
		"mesh":3
	},
	{
		"name":"立方体.5_10",
		"translation":[896.1595458984375,
		51.692752838134769,
		-0.9393690228462219],
		"rotation":[0.0,
		0.0,
		0.0,
		-1.0],
		"scale":[1.0,
		1.0,
		1.0],
		"mesh":4
	},
	{
		"name":"立方体.4_12",
		"translation":[896.1595458984375,
		51.692752838134769,
		-0.9393690228462219],
		"rotation":[0.0,
		0.0,
		0.0,
		-1.0],
		"scale":[1.0,
		1.0,
		1.0],
		"mesh":5
	},
	{
		"name":"立方体.3_12",
		"translation":[896.1595458984375,
		51.692752838134769,
		-0.9393690228462219],
		"rotation":[0.0,
		0.0,
		0.0,
		-1.0],
		"scale":[1.0,
		1.0,
		1.0],
		"mesh":6
	},
	{
		"name":"立方体.2_12",
		"translation":[896.1595458984375,
		51.692752838134769,
		-0.9393690228462219],
		"rotation":[0.0,
		0.0,
		0.0,
		-1.0],
		"scale":[1.0,
		1.0,
		1.0],
		"mesh":7
	},
	{
		"name":"立方体.1_12",
		"translation":[896.1595458984375,
		51.692752838134769,
		-0.9393690228462219],
		"rotation":[0.0,
		0.0,
		0.0,
		-1.0],
		"scale":[1.0,
		1.0,
		1.0],
		"mesh":8
	},
	{
		"name":"立方体.15_12",
		"translation":[14.408475875854493,
		51.692752838134769,
		-0.9393690228462219],
		"rotation":[0.0,
		0.0,
		0.0,
		-1.0],
		"scale":[1.0,
		1.0,
		1.0],
		"mesh":9
	},
	{
		"name":"立方体.14_12",
		"translation":[14.408475875854493,
		51.692752838134769,
		-0.9393690228462219],
		"rotation":[0.0,
		0.0,
		0.0,
		-1.0],
		"scale":[1.0,
		1.0,
		1.0],
		"mesh":10
	},
	{
		"name":"立方体.13_12",
		"translation":[14.408475875854493,
		51.692752838134769,
		-0.9393690228462219],
		"rotation":[0.0,
		0.0,
		0.0,
		-1.0],
		"scale":[1.0,
		1.0,
		1.0],
		"mesh":11
	},
	{
		"name":"立方体.12_12",
		"translation":[14.408475875854493,
		51.692752838134769,
		-0.9393690228462219],
		"rotation":[0.0,
		0.0,
		0.0,
		-1.0],
		"scale":[1.0,
		1.0,
		1.0],
		"mesh":12
	},
	{
		"name":"立方体.11_12",
		"translation":[14.408475875854493,
		51.692752838134769,
		-0.9393690228462219],
		"rotation":[0.0,
		0.0,
		0.0,
		-1.0],
		"scale":[1.0,
		1.0,
		1.0],
		"mesh":13
	},
	{
		"name":"立方体.10_12",
		"translation":[14.408475875854493,
		51.692752838134769,
		-0.9393690228462219],
		"rotation":[0.0,
		0.0,
		0.0,
		-1.0],
		"scale":[1.0,
		1.0,
		1.0],
		"mesh":14
	},
	{
		"name":"底部",
		"translation":[0.5389072895050049,
		54.830711364746097,
		0.8257021307945252],
		"rotation":[0.0,
		0.0,
		0.0,
		-1.0],
		"scale":[1.0,
		1.0,
		1.0],
		"children":[18,
		19]
	},
	{
		"name":"立方体_32",
		"translation":[-199.31700134277345,
		0.0,
		-168.5626678466797],
		"rotation":[0.0,
		0.0,
		0.0,
		-1.0],
		"scale":[1.0,
		1.0,
		1.0],
		"mesh":15
	},
	{
		"name":"底座",
		"translation":[0.80616694688797,
		25.273929595947267,
		0.24699707329273225],
		"rotation":[0.0,
		0.0,
		0.0,
		-1.0],
		"scale":[1.0,
		1.0,
		1.0],
		"children":[20,
		21,
		22]
	},
	{
		"name":"球体.3_1",
		"translation":[441.49017333984377,
		0.0,
		-1072.2540283203126],
		"rotation":[0.0,
		0.0,
		0.0,
		-1.0],
		"scale":[1.0,
		1.0,
		1.0],
		"mesh":16
	},
	{
		"name":"布尔.1_1",
		"translation":[441.49017333984377,
		0.0,
		-1072.2540283203126],
		"rotation":[0.0,
		0.0,
		0.0,
		-1.0],
		"scale":[1.0,
		1.0,
		1.0],
		"mesh":17
	},
	{
		"name":"布尔_1",
		"translation":[441.49017333984377,
		0.0,
		-1072.2540283203126],
		"rotation":[0.0,
		0.0,
		0.0,
		-1.0],
		"scale":[1.0,
		1.0,
		1.0],
		"mesh":18
	}],
	"meshes":[{
		"name":"外机箱",
		"primitives":[{
			"attributes":{
				"POSITION":1,
				"NORMAL":2,
				"TEXCOORD_0":3
			},
			"indices":0,
			"material":0
		}]
	},
	{
		"name":"立方体.8_12",
		"primitives":[{
			"attributes":{
				"POSITION":5
			},
			"indices":4,
			"material":1
		}]
	},
	{
		"name":"立方体.7_12",
		"primitives":[{
			"attributes":{
				"POSITION":7
			},
			"indices":6,
			"material":1
		}]
	},
	{
		"name":"立方体.6_10",
		"primitives":[{
			"attributes":{
				"POSITION":9
			},
			"indices":8,
			"material":1
		}]
	},
	{
		"name":"立方体.5_10",
		"primitives":[{
			"attributes":{
				"POSITION":11
			},
			"indices":10,
			"material":1
		}]
	},
	{
		"name":"立方体.4_12",
		"primitives":[{
			"attributes":{
				"POSITION":13
			},
			"indices":12,
			"material":1
		}]
	},
	{
		"name":"立方体.3_12",
		"primitives":[{
			"attributes":{
				"POSITION":15
			},
			"indices":14,
			"material":1
		}]
	},
	{
		"name":"立方体.2_12",
		"primitives":[{
			"attributes":{
				"POSITION":17
			},
			"indices":16,
			"material":2
		}]
	},
	{
		"name":"立方体.1_12",
		"primitives":[{
			"attributes":{
				"POSITION":19
			},
			"indices":18,
			"material":3
		}]
	},
	{
		"name":"立方体.15_12",
		"primitives":[{
			"attributes":{
				"POSITION":21
			},
			"indices":20,
			"material":2
		}]
	},
	{
		"name":"立方体.14_12",
		"primitives":[{
			"attributes":{
				"POSITION":23
			},
			"indices":22,
			"material":1
		}]
	},
	{
		"name":"立方体.13_12",
		"primitives":[{
			"attributes":{
				"POSITION":25
			},
			"indices":24,
			"material":1
		}]
	},
	{
		"name":"立方体.12_12",
		"primitives":[{
			"attributes":{
				"POSITION":27
			},
			"indices":26,
			"material":2
		}]
	},
	{
		"name":"立方体.11_12",
		"primitives":[{
			"attributes":{
				"POSITION":29
			},
			"indices":28,
			"material":3
		}]
	},
	{
		"name":"立方体.10_12",
		"primitives":[{
			"attributes":{
				"POSITION":31
			},
			"indices":30,
			"material":3
		}]
	},
	{
		"name":"立方体_32",
		"primitives":[{
			"attributes":{
				"POSITION":33
			},
			"indices":32,
			"material":2
		}]
	},
	{
		"name":"球体.3_1",
		"primitives":[{
			"attributes":{
				"POSITION":35
			},
			"indices":34,
			"material":3
		}]
	},
	{
		"name":"布尔.1_1",
		"primitives":[{
			"attributes":{
				"POSITION":37
			},
			"indices":36,
			"material":2
		}]
	},
	{
		"name":"布尔_1",
		"primitives":[{
			"attributes":{
				"POSITION":39
			},
			"indices":38,
			"material":1
		}]
	}],
	"accessors":[{
		"bufferView":0,
		"type":"SCALAR",
		"componentType":5123,
		"byteOffset":0,
		"count":5172,
		"min":[0],
		"max":[963]
	},
	{
		"bufferView":1,
		"type":"VEC3",
		"componentType":5126,
		"byteOffset":0,
		"count":964,
		"min":[-22.139541625976564,
		-47.22975540161133,
		-44.93022918701172],
		"max":[22.139541625976564,
		47.22975540161133,
		44.93022918701172]
	},
	{
		"bufferView":1,
		"type":"VEC3",
		"componentType":5126,
		"byteOffset":12,
		"count":964,
		"min":[-0.9985150098800659,
		-0.9985530376434326,
		-0.9985531568527222],
		"max":[0.9985532164573669,
		0.9985530376434326,
		0.9985531568527222]
	},
	{
		"bufferView":1,
		"type":"VEC2",
		"componentType":5126,
		"byteOffset":24,
		"count":964,
		"min":[-0.07259143143892288,
		-0.03402814269065857],
		"max":[1.0725914239883423,
		1.0340280532836915]
	},
	{
		"bufferView":2,
		"type":"SCALAR",
		"componentType":5123,
		"byteOffset":0,
		"count":132,
		"min":[0],
		"max":[23]
	},
	{
		"bufferView":3,
		"type":"VEC3",
		"componentType":5126,
		"byteOffset":0,
		"count":24,
		"min":[-911.6638793945313,
		16.514371871948243,
		-48.32969284057617],
		"max":[-909.2595825195313,
		43.00261306762695,
		47.18964385986328]
	},
	{
		"bufferView":4,
		"type":"SCALAR",
		"componentType":5123,
		"byteOffset":0,
		"count":132,
		"min":[0],
		"max":[23]
	},
	{
		"bufferView":5,
		"type":"VEC3",
		"componentType":5126,
		"byteOffset":0,
		"count":24,
		"min":[-907.0971069335938,
		16.514371871948243,
		-48.32969284057617],
		"max":[-904.69287109375,
		43.00261306762695,
		47.18964385986328]
	},
	{
		"bufferView":6,
		"type":"SCALAR",
		"componentType":5123,
		"byteOffset":0,
		"count":132,
		"min":[0],
		"max":[23]
	},
	{
		"bufferView":7,
		"type":"VEC3",
		"componentType":5126,
		"byteOffset":0,
		"count":24,
		"min":[-902.8471069335938,
		16.514371871948243,
		-48.32969284057617],
		"max":[-900.44287109375,
		43.00261306762695,
		47.18964385986328]
	},
	{
		"bufferView":8,
		"type":"SCALAR",
		"componentType":5123,
		"byteOffset":0,
		"count":132,
		"min":[0],
		"max":[23]
	},
	{
		"bufferView":9,
		"type":"VEC3",
		"componentType":5126,
		"byteOffset":0,
		"count":24,
		"min":[-899.0946044921875,
		16.514371871948243,
		-48.32969284057617],
		"max":[-896.6903686523438,
		43.00261306762695,
		47.18964385986328]
	},
	{
		"bufferView":10,
		"type":"SCALAR",
		"componentType":5123,
		"byteOffset":0,
		"count":132,
		"min":[0],
		"max":[23]
	},
	{
		"bufferView":11,
		"type":"VEC3",
		"componentType":5126,
		"byteOffset":0,
		"count":24,
		"min":[-895.1219482421875,
		16.514371871948243,
		-48.32969284057617],
		"max":[-892.7176513671875,
		43.00261306762695,
		47.18964385986328]
	},
	{
		"bufferView":12,
		"type":"SCALAR",
		"componentType":5123,
		"byteOffset":0,
		"count":132,
		"min":[0],
		"max":[23]
	},
	{
		"bufferView":13,
		"type":"VEC3",
		"componentType":5126,
		"byteOffset":0,
		"count":24,
		"min":[-891.4856567382813,
		16.514371871948243,
		-48.32969284057617],
		"max":[-889.0814208984375,
		43.00261306762695,
		47.18964385986328]
	},
	{
		"bufferView":14,
		"type":"SCALAR",
		"componentType":5123,
		"byteOffset":0,
		"count":132,
		"min":[0],
		"max":[23]
	},
	{
		"bufferView":15,
		"type":"VEC3",
		"componentType":5126,
		"byteOffset":0,
		"count":24,
		"min":[-887.443603515625,
		16.514371871948243,
		-48.32969284057617],
		"max":[-885.039306640625,
		43.00261306762695,
		47.18964385986328]
	},
	{
		"bufferView":16,
		"type":"SCALAR",
		"componentType":5123,
		"byteOffset":0,
		"count":132,
		"min":[0],
		"max":[23]
	},
	{
		"bufferView":17,
		"type":"VEC3",
		"componentType":5126,
		"byteOffset":0,
		"count":24,
		"min":[-883.4684448242188,
		16.514371871948243,
		-48.32969284057617],
		"max":[-881.064208984375,
		43.00261306762695,
		47.18964385986328]
	},
	{
		"bufferView":18,
		"type":"SCALAR",
		"componentType":5123,
		"byteOffset":0,
		"count":132,
		"min":[0],
		"max":[23]
	},
	{
		"bufferView":19,
		"type":"VEC3",
		"componentType":5126,
		"byteOffset":0,
		"count":24,
		"min":[-4.681282043457031,
		-39.507808685302737,
		-48.32969284057617],
		"max":[-2.2770156860351564,
		-13.019574165344239,
		47.18964385986328]
	},
	{
		"bufferView":20,
		"type":"SCALAR",
		"componentType":5123,
		"byteOffset":0,
		"count":132,
		"min":[0],
		"max":[23]
	},
	{
		"bufferView":21,
		"type":"VEC3",
		"componentType":5126,
		"byteOffset":0,
		"count":24,
		"min":[-8.723360061645508,
		-39.507808685302737,
		-48.32969284057617],
		"max":[-6.319094181060791,
		-13.019574165344239,
		47.18964385986328]
	},
	{
		"bufferView":22,
		"type":"SCALAR",
		"componentType":5123,
		"byteOffset":0,
		"count":132,
		"min":[0],
		"max":[23]
	},
	{
		"bufferView":23,
		"type":"VEC3",
		"componentType":5126,
		"byteOffset":0,
		"count":24,
		"min":[-12.359628677368164,
		-39.507808685302737,
		-48.32969284057617],
		"max":[-9.955362319946289,
		-13.019574165344239,
		47.18964385986328]
	},
	{
		"bufferView":24,
		"type":"SCALAR",
		"componentType":5123,
		"byteOffset":0,
		"count":132,
		"min":[0],
		"max":[23]
	},
	{
		"bufferView":25,
		"type":"VEC3",
		"componentType":5126,
		"byteOffset":0,
		"count":24,
		"min":[-16.332324981689454,
		-39.507808685302737,
		-48.32969284057617],
		"max":[-13.928059577941895,
		-13.019574165344239,
		47.18964385986328]
	},
	{
		"bufferView":26,
		"type":"SCALAR",
		"componentType":5123,
		"byteOffset":0,
		"count":132,
		"min":[0],
		"max":[23]
	},
	{
		"bufferView":27,
		"type":"VEC3",
		"componentType":5126,
		"byteOffset":0,
		"count":24,
		"min":[-20.084806442260743,
		-39.507808685302737,
		-48.32969284057617],
		"max":[-17.680540084838868,
		-13.019574165344239,
		47.18964385986328]
	},
	{
		"bufferView":28,
		"type":"SCALAR",
		"componentType":5123,
		"byteOffset":0,
		"count":132,
		"min":[0],
		"max":[23]
	},
	{
		"bufferView":29,
		"type":"VEC3",
		"componentType":5126,
		"byteOffset":0,
		"count":24,
		"min":[-24.334821701049806,
		-39.507808685302737,
		-48.32969284057617],
		"max":[-21.93055534362793,
		-13.019574165344239,
		47.18964385986328]
	},
	{
		"bufferView":30,
		"type":"SCALAR",
		"componentType":5123,
		"byteOffset":0,
		"count":36,
		"min":[0],
		"max":[7]
	},
	{
		"bufferView":31,
		"type":"VEC3",
		"componentType":5126,
		"byteOffset":0,
		"count":8,
		"min":[107.35075378417969,
		-56.22637176513672,
		86.0851058959961],
		"max":[282.32684326171877,
		-53.17181396484375,
		261.0611877441406]
	},
	{
		"bufferView":32,
		"type":"SCALAR",
		"componentType":5123,
		"byteOffset":0,
		"count":6336,
		"min":[0],
		"max":[1063]
	},
	{
		"bufferView":33,
		"type":"VEC3",
		"componentType":5126,
		"byteOffset":0,
		"count":1064,
		"min":[-472.18682861328127,
		-71.459716796875,
		1043.3472900390626],
		"max":[-414.1613464355469,
		-52.148826599121097,
		1101.8114013671876]
	},
	{
		"bufferView":34,
		"type":"SCALAR",
		"componentType":5123,
		"byteOffset":0,
		"count":4068,
		"min":[0],
		"max":[679]
	},
	{
		"bufferView":35,
		"type":"VEC3",
		"componentType":5126,
		"byteOffset":0,
		"count":680,
		"min":[-477.3055419921875,
		-63.34219741821289,
		1037.7900390625],
		"max":[-409.4811706542969,
		-55.85184860229492,
		1105.6143798828126]
	},
	{
		"bufferView":36,
		"type":"SCALAR",
		"componentType":5123,
		"byteOffset":0,
		"count":4068,
		"min":[0],
		"max":[679]
	},
	{
		"bufferView":37,
		"type":"VEC3",
		"componentType":5126,
		"byteOffset":0,
		"count":680,
		"min":[-477.3055419921875,
		-72.64513397216797,
		1037.7900390625],
		"max":[-409.4811706542969,
		-65.15478515625,
		1105.6143798828126]
	}],
	"bufferViews":[{
		"buffer":0,
		"byteOffset":0,
		"byteLength":10344,
		"target":34963
	},
	{
		"buffer":0,
		"byteOffset":10344,
		"byteLength":30848,
		"target":34962,
		"byteStride":32
	},
	{
		"buffer":1,
		"byteOffset":0,
		"byteLength":264,
		"target":34963
	},
	{
		"buffer":1,
		"byteOffset":264,
		"byteLength":288,
		"target":34962
	},
	{
		"buffer":2,
		"byteOffset":0,
		"byteLength":264,
		"target":34963
	},
	{
		"buffer":2,
		"byteOffset":264,
		"byteLength":288,
		"target":34962
	},
	{
		"buffer":3,
		"byteOffset":0,
		"byteLength":264,
		"target":34963
	},
	{
		"buffer":3,
		"byteOffset":264,
		"byteLength":288,
		"target":34962
	},
	{
		"buffer":4,
		"byteOffset":0,
		"byteLength":264,
		"target":34963
	},
	{
		"buffer":4,
		"byteOffset":264,
		"byteLength":288,
		"target":34962
	},
	{
		"buffer":5,
		"byteOffset":0,
		"byteLength":264,
		"target":34963
	},
	{
		"buffer":5,
		"byteOffset":264,
		"byteLength":288,
		"target":34962
	},
	{
		"buffer":6,
		"byteOffset":0,
		"byteLength":264,
		"target":34963
	},
	{
		"buffer":6,
		"byteOffset":264,
		"byteLength":288,
		"target":34962
	},
	{
		"buffer":7,
		"byteOffset":0,
		"byteLength":264,
		"target":34963
	},
	{
		"buffer":7,
		"byteOffset":264,
		"byteLength":288,
		"target":34962
	},
	{
		"buffer":8,
		"byteOffset":0,
		"byteLength":264,
		"target":34963
	},
	{
		"buffer":8,
		"byteOffset":264,
		"byteLength":288,
		"target":34962
	},
	{
		"buffer":9,
		"byteOffset":0,
		"byteLength":264,
		"target":34963
	},
	{
		"buffer":9,
		"byteOffset":264,
		"byteLength":288,
		"target":34962
	},
	{
		"buffer":10,
		"byteOffset":0,
		"byteLength":264,
		"target":34963
	},
	{
		"buffer":10,
		"byteOffset":264,
		"byteLength":288,
		"target":34962
	},
	{
		"buffer":11,
		"byteOffset":0,
		"byteLength":264,
		"target":34963
	},
	{
		"buffer":11,
		"byteOffset":264,
		"byteLength":288,
		"target":34962
	},
	{
		"buffer":12,
		"byteOffset":0,
		"byteLength":264,
		"target":34963
	},
	{
		"buffer":12,
		"byteOffset":264,
		"byteLength":288,
		"target":34962
	},
	{
		"buffer":13,
		"byteOffset":0,
		"byteLength":264,
		"target":34963
	},
	{
		"buffer":13,
		"byteOffset":264,
		"byteLength":288,
		"target":34962
	},
	{
		"buffer":14,
		"byteOffset":0,
		"byteLength":264,
		"target":34963
	},
	{
		"buffer":14,
		"byteOffset":264,
		"byteLength":288,
		"target":34962
	},
	{
		"buffer":15,
		"byteOffset":0,
		"byteLength":72,
		"target":34963
	},
	{
		"buffer":15,
		"byteOffset":72,
		"byteLength":96,
		"target":34962
	},
	{
		"buffer":16,
		"byteOffset":0,
		"byteLength":12672,
		"target":34963
	},
	{
		"buffer":16,
		"byteOffset":12672,
		"byteLength":12768,
		"target":34962
	},
	{
		"buffer":17,
		"byteOffset":0,
		"byteLength":8136,
		"target":34963
	},
	{
		"buffer":17,
		"byteOffset":8136,
		"byteLength":8160,
		"target":34962
	},
	{
		"buffer":18,
		"byteOffset":0,
		"byteLength":8136,
		"target":34963
	},
	{
		"buffer":18,
		"byteOffset":8136,
		"byteLength":8160,
		"target":34962
	}],
	"buffers":[{
		"uri":"data:application/octet-stream;base64,",
		"byteLength":41192
	},
	{
		"uri":"data:application/octet-stream;base64,",
		"byteLength":552
	},
	{
		"uri":"data:application/octet-stream;base64,",
		"byteLength":552
	},
	{
		"uri":"data:application/octet-stream;base64,",
		"byteLength":552
	},
	{
		"uri":"data:application/octet-stream;base64,",
		"byteLength":552
	},
	{
		"uri":"data:application/octet-stream;base64,",
		"byteLength":552
	},
	{
		"uri":"data:application/octet-stream;base64,",
		"byteLength":552
	},
	{
		"uri":"data:application/octet-stream;base64,",
		"byteLength":552
	},
	{
		"uri":"data:application/octet-stream;base64,",
		"byteLength":552
	},
	{
		"uri":"data:application/octet-stream;base64,",
		"byteLength":552
	},
	{
		"uri":"data:application/octet-stream;base64,",
		"byteLength":552
	},
	{
		"uri":"data:application/octet-stream;base64,",
		"byteLength":552
	},
	{
		"uri":"data:application/octet-stream;base64,",
		"byteLength":552
	},
	{
		"uri":"data:application/octet-stream;base64,",
		"byteLength":552
	},
	{
		"uri":"data:application/octet-stream;base64,",
		"byteLength":552
	},
	{
		"uri":"data:application/octet-stream;base64,",
		"byteLength":168
	},
	{
		"uri":"data:application/octet-stream;base64,",
		"byteLength":25440
	},
	{
		"uri":"data:application/octet-stream;base64,",
		"byteLength":16296
	},
	{
		"uri":"data:application/octet-stream;base64,",
		"byteLength":16296
	}],
	"materials":[{
		"pbrMetallicRoughness":{
			"baseColorFactor":[0.21440000000000007,
			0.3055199999999997,
			0.67,
			0.9],
			"metallicFactor":0.8300000000000001,
			"roughnessFactor":0.4
		},
		"emissiveFactor":[0.0,
		0.0,
		0.0],
		"alphaMode":"BLEND",
		"doubleSided":false,
		"name":"材质.2"
	},
	{
		"pbrMetallicRoughness":{
			"baseColorFactor":[0.05999999999999994,
			0.4830000000000001,
			1.0,
			1.0],
			"metallicFactor":0.64,
			"roughnessFactor":0.53
		},
		"emissiveFactor":[0.0,
		0.0,
		0.0],
		"alphaMode":"OPAQUE",
		"doubleSided":false,
		"name":"材质.1"
	},
	{
		"pbrMetallicRoughness":{
			"baseColorFactor":[0.09280000000000001,
			0.12238000000000007,
			0.29,
			1.0],
			"metallicFactor":0.34,
			"roughnessFactor":0.4
		},
		"emissiveFactor":[0.0,
		0.0,
		0.0],
		"alphaMode":"OPAQUE",
		"doubleSided":false,
		"name":"材质"
	},
	{
		"pbrMetallicRoughness":{
			"baseColorFactor":[0.32000000000000008,
			1.0,
			0.5693333333333337,
			1.0],
			"metallicFactor":0.8300000000000001,
			"roughnessFactor":0.4
		},
		"emissiveFactor":[0.0,
		0.0,
		0.0],
		"alphaMode":"OPAQUE",
		"doubleSided":false,
		"name":"材质.3"
	}]
}