<?xml version="1.0" encoding="UTF-8"?>
<svg width="60px" height="70px" viewBox="0 0 60 70" version="1.1" xmlns="http://www.w3.org/2000/svg" xmlns:xlink="http://www.w3.org/1999/xlink">
    <title>底图</title>
    <defs>
        <linearGradient x1="77.7222672%" y1="19.0010614%" x2="18.6816902%" y2="80.1114769%" id="linearGradient-1">
            <stop stop-color="#D1D1D1" offset="0%"></stop>
            <stop stop-color="#FBFBFB" offset="100%"></stop>
        </linearGradient>
        <linearGradient x1="50%" y1="98.5108287%" x2="50%" y2="0.519012238%" id="linearGradient-2">
            <stop stop-color="#E3E3E3" offset="0%"></stop>
            <stop stop-color="#CFCFCF" offset="100%"></stop>
        </linearGradient>
        <linearGradient x1="100%" y1="50%" x2="0%" y2="50%" id="linearGradient-3">
            <stop stop-color="#FCFCFC" offset="0%"></stop>
            <stop stop-color="#DADADA" offset="100%"></stop>
        </linearGradient>
    </defs>
    <g id="页面-1" stroke="none" stroke-width="1" fill="none" fill-rule="evenodd">
        <g id="底图" style="mix-blend-mode: color;" transform="translate(0.183371, 0.000000)">
            <g id="编组-2">
                <polygon id="路径-12" fill="url(#linearGradient-1)" points="29.4726509 0 59.8166287 18.4939356 59.8166287 53.0207176 30.888289 69.9132389 9.16135682e-13 53.0207176 9.09494702e-13 18.4939356"></polygon>
                <polygon id="路径-13" fill="#CCCCCC" points="29.5344604 0 29.9083143 34.9566195 59.8166287 18.4939356"></polygon>
                <polygon id="路径-13" fill="url(#linearGradient-2)" transform="translate(14.954157, 17.478310) scale(-1, 1) translate(-14.954157, -17.478310) " points="0.373853929 0 0 34.9566195 29.9083143 18.4939356"></polygon>
                <polygon id="路径-13" fill="url(#linearGradient-3)" transform="translate(14.954157, 52.154419) scale(-1, -1) translate(-14.954157, -52.154419) " points="-8.6242772e-13 35.0002441 -8.83678855e-13 69.3088379 29.9083143 51.8398438 29.9083143 51.2881203"></polygon>
            </g>
        </g>
    </g>
</svg>