<svg xmlns="http://www.w3.org/2000/svg" xmlns:xlink="http://www.w3.org/1999/xlink" width="90" height="90" viewBox="0 0 90 90"><title>2</title><defs><path id="a" d="M27.099 3.003l-21.98 12.69C1.688 17.675-.015 20.275.003 22.875L0 51.534v7.164h.003c.017 2.58 1.73 5.16 5.145 7.132l22.03 12.72c3.424 1.976 7.907 2.967 12.388 2.973h.072c4.467-.006 8.928-.99 12.332-2.957l21.978-12.69c3.431-1.981 5.136-4.58 5.119-7.178h.001V22.874h-.001c-.017-2.582-1.733-5.162-5.147-7.134L51.888 3.02C48.457 1.04 43.961.048 39.468.048c-4.479 0-8.954.985-12.37 2.955"/><linearGradient id="b" x1="196.664%" x2="21.396%" y1="35.65%" y2="52.799%"><stop offset="0%" stop-color="#00C6FB"/><stop offset="100%" stop-color="#005BEA"/></linearGradient><path id="d" d="M27.099 3.003l-21.98 12.69c-6.837 3.949-6.823 10.356.03 14.314l22.03 12.718c6.854 3.958 17.953 3.966 24.79.017l21.979-12.69c6.84-3.947 6.826-10.354-.028-14.312L51.888 3.02C48.457 1.04 43.961.048 39.468.048c-4.479 0-8.954.985-12.37 2.955"/><linearGradient id="e" x1="205.729%" x2="19.628%" y1="45.217%" y2="50.933%"><stop offset="0%" stop-color="#00C6FB"/><stop offset="100%" stop-color="#005BEA"/></linearGradient><path id="g" d="M.082 1.352c0 1.2.845 2.665 1.888 3.266l16.287 9.404c1.042.602 1.886.115 1.886-1.086.002-1.2-.844-2.661-1.886-3.263L1.968.269C1.665.094 1.378.011 1.124.01.506.01.082.501.082 1.352"/><linearGradient id="h" x1="1.733%" x2="97.536%" y1="50%" y2="50%"><stop offset="0%" stop-color="#21B2B2"/><stop offset="100%" stop-color="#6FECC9"/></linearGradient><path id="j" d="M.082 1.352c0 1.2.845 2.665 1.888 3.266l16.287 9.404c.954.548 1.735.182 1.86-.803-.08-.037-.162-.067-.248-.115L3.582 3.7C2.539 3.098 1.694 1.635 1.694.434c0-.1.014-.19.025-.28a1.546 1.546 0 0 0-.6-.134C.504.02.082.504.082 1.352"/><linearGradient id="k" x1="1.733%" x2="97.536%" y1="50%" y2="50%"><stop offset="0%" stop-color="#21B2B2"/><stop offset="100%" stop-color="#6FECC9"/></linearGradient><path id="m" d="M.082 1.43c0 1.2.845 2.664 1.888 3.265L18.257 14.1c1.042.602 1.886.115 1.886-1.086.002-1.2-.844-2.661-1.886-3.263L1.968.346c-.303-.175-.59-.258-.844-.258C.506.088.082.578.082 1.429"/><linearGradient id="n" x1="1.733%" x2="97.536%" y1="50%" y2="50%"><stop offset="0%" stop-color="#21B2B2"/><stop offset="100%" stop-color="#6FECC9"/></linearGradient><path id="p" d="M.082 1.43c0 1.2.845 2.664 1.888 3.265L18.257 14.1c.954.549 1.735.182 1.86-.803-.08-.037-.162-.067-.248-.115L3.582 3.777C2.539 3.176 1.694 1.712 1.694.511c0-.1.014-.19.025-.28a1.546 1.546 0 0 0-.6-.134C.504.097.082.581.082 1.43"/><path id="r" d="M.082 1.506c0 1.201.845 2.665 1.888 3.266l16.287 9.404c1.042.602 1.886.115 1.886-1.086.002-1.2-.844-2.661-1.886-3.263L1.968.423c-.303-.175-.59-.258-.844-.258C.506.165.082.655.082 1.506"/><linearGradient id="s" x1="1.733%" x2="97.536%" y1="50%" y2="50%"><stop offset="0%" stop-color="#21B2B2"/><stop offset="100%" stop-color="#6FECC9"/></linearGradient><path id="u" d="M.082 1.506c0 1.201.845 2.665 1.888 3.266l16.287 9.404c.954.549 1.735.182 1.86-.803-.08-.037-.162-.067-.248-.115L3.582 3.855C2.539 3.253 1.694 1.789 1.694.588c0-.1.014-.19.025-.28a1.546 1.546 0 0 0-.6-.134C.504.174.082.658.082 1.506"/><path id="w" d="M18.336.269L2.05 9.673c-1.042.602-1.888 2.062-1.888 3.263 0 1.2.846 1.688 1.887 1.086l16.288-9.404c1.044-.601 1.888-2.065 1.888-3.266 0-.85-.423-1.342-1.042-1.342-.254 0-.541.084-.846.259"/><linearGradient id="x" x1="1.733%" x2="97.536%" y1="50%" y2="50%"><stop offset="0%" stop-color="#21B2B2"/><stop offset="100%" stop-color="#6FECC9"/></linearGradient><path id="z" d="M18.585.154c.013.09.027.18.027.28 0 1.2-.844 2.664-1.888 3.266L.436 13.104c-.084.048-.165.078-.248.115.128.985.907 1.351 1.86.803l16.288-9.404c1.044-.601 1.888-2.065 1.888-3.266 0-.848-.423-1.332-1.038-1.332-.185 0-.387.044-.6.134"/><path id="B" d="M18.336.346L2.05 9.75c-1.042.602-1.888 2.062-1.888 3.263 0 1.2.846 1.688 1.887 1.086l16.288-9.404c1.044-.601 1.888-2.065 1.888-3.266 0-.85-.423-1.341-1.042-1.341-.254 0-.541.083-.846.258"/><linearGradient id="C" x1="1.733%" x2="97.536%" y1="50%" y2="50%"><stop offset="0%" stop-color="#21B2B2"/><stop offset="100%" stop-color="#6FECC9"/></linearGradient><path id="E" d="M18.585.232c.013.089.027.179.027.28 0 1.2-.844 2.664-1.888 3.265L.436 13.181c-.084.048-.165.078-.248.115.128.985.907 1.352 1.86.803l16.288-9.404c1.044-.601 1.888-2.065 1.888-3.266 0-.848-.423-1.332-1.038-1.332a1.55 1.55 0 0 0-.6.135"/><path id="G" d="M18.336.423L2.05 9.827C1.007 10.429.161 11.889.161 13.09c0 1.2.846 1.688 1.887 1.086l16.288-9.404c1.044-.601 1.888-2.065 1.888-3.266 0-.85-.423-1.342-1.042-1.341-.254 0-.541.083-.846.258"/><linearGradient id="H" x1="1.733%" x2="97.536%" y1="50%" y2="50%"><stop offset="0%" stop-color="#21B2B2"/><stop offset="100%" stop-color="#6FECC9"/></linearGradient><path id="J" d="M18.585.309c.013.09.027.179.027.28 0 1.2-.844 2.664-1.888 3.266L.436 13.258c-.084.048-.165.078-.248.115.128.985.907 1.352 1.86.803l16.288-9.404c1.044-.601 1.888-2.065 1.888-3.266 0-.848-.423-1.332-1.038-1.332-.185 0-.387.044-.6.135"/></defs><g fill="none" fill-rule="evenodd"><g transform="translate(5.1 4)"><mask id="c" fill="#fff"><use xlink:href="#a"/></mask><path fill="url(#b)" fill-rule="nonzero" d="M27.099 3.003l-21.98 12.69C1.688 17.675-.015 20.275.003 22.875L0 51.534v7.164h.003c.017 2.58 1.73 5.16 5.145 7.132l22.03 12.72c3.424 1.976 7.907 2.967 12.388 2.973h.072c4.467-.006 8.928-.99 12.332-2.957l21.978-12.69c3.431-1.981 5.136-4.58 5.119-7.178h.001V22.874h-.001c-.017-2.582-1.733-5.162-5.147-7.134L51.888 3.02C48.457 1.04 43.961.048 39.468.048c-4.479 0-8.954.985-12.37 2.955" mask="url(#c)"/></g><path fill="#04FFDD" fill-rule="nonzero" d="M79.048 34.028L57.07 46.718c-6.838 3.947-17.937 3.94-24.792-.018l-22.03-12.72c-3.243-1.872-4.935-4.294-5.113-6.745-.197 2.735 1.493 5.507 5.113 7.596l22.03 12.72c6.855 3.958 17.954 3.965 24.792.017l21.978-12.69c3.602-2.079 5.284-4.841 5.085-7.567-.176 2.442-1.858 4.853-5.085 6.717"/><path fill="#006AED" fill-rule="nonzero" d="M79.048 69.026L57.07 81.716c-6.838 3.948-17.937 3.94-24.792-.018L10.248 68.98c-3.243-1.874-4.935-4.295-5.113-6.745-.197 2.733 1.493 5.506 5.113 7.595l22.03 12.72c6.855 3.957 17.954 3.965 24.792.016l21.978-12.69c3.602-2.079 5.284-4.841 5.085-7.567-.176 2.443-1.858 4.854-5.085 6.717"/><path fill="#04FFDD" fill-rule="nonzero" d="M79.048 37.674L57.07 50.364c-6.838 3.947-17.937 3.94-24.792-.017l-22.03-12.72c-3.243-1.872-4.935-4.295-5.113-6.745-.197 2.734 1.493 5.507 5.113 7.596l22.03 12.72c6.855 3.957 17.954 3.964 24.792.017l21.978-12.69c3.602-2.079 5.284-4.842 5.085-7.567-.176 2.442-1.858 4.853-5.085 6.716"/><path fill="#1AA5FF" fill-rule="nonzero" d="M10.248 37.627l22.03 12.72c6.855 3.958 17.954 3.964 24.792.017l21.978-12.69c3.196-1.844 4.87-4.227 5.074-6.644.017-.268.03-.537.011-.804-.176 2.442-1.858 4.854-5.085 6.717L57.07 49.633c-6.838 3.947-17.937 3.94-24.791-.016l-22.03-12.72c-3.244-1.873-4.936-4.296-5.114-6.745-.02.268-.006.537.011.806.208 2.423 1.892 4.816 5.102 6.669m68.8 28.706L57.07 79.023c-6.838 3.947-17.937 3.94-24.792-.017l-22.03-12.72c-3.243-1.872-4.935-4.295-5.113-6.745-.197 2.734 1.493 5.506 5.113 7.596l22.03 12.72c6.855 3.957 17.954 3.964 24.792.017l21.978-12.69c3.602-2.08 5.284-4.842 5.085-7.567-.176 2.441-1.858 4.852-5.085 6.716"/><path fill="#04FFDD" fill-rule="nonzero" d="M10.248 66.286l22.03 12.72c6.855 3.957 17.954 3.964 24.792.017l21.978-12.69c3.196-1.844 4.87-4.227 5.074-6.644.017-.268.03-.537.011-.805-.176 2.442-1.858 4.855-5.085 6.717L57.07 78.292c-6.838 3.947-17.937 3.94-24.791-.016l-22.03-12.72c-3.244-1.873-4.936-4.297-5.114-6.745-.02.268-.006.537.011.806.208 2.423 1.892 4.816 5.102 6.669"/><g transform="translate(5.1 4)"><mask id="f" fill="#fff"><use xlink:href="#d"/></mask><path fill="url(#e)" fill-rule="nonzero" d="M27.099 3.003l-21.98 12.69c-6.837 3.949-6.823 10.356.03 14.314l22.03 12.718c6.854 3.958 17.953 3.966 24.79.017l21.979-12.69c6.84-3.947 6.826-10.354-.028-14.312L51.888 3.02C48.457 1.04 43.961.048 39.468.048c-4.479 0-8.954.985-12.37 2.955" mask="url(#f)"/></g><g transform="translate(11.514 58.831)"><mask id="i" fill="#fff"><use xlink:href="#g"/></mask><path fill="url(#h)" fill-rule="nonzero" d="M.082 1.352c0 1.2.845 2.665 1.888 3.266l16.287 9.404c1.042.602 1.886.115 1.886-1.086.002-1.2-.844-2.661-1.886-3.263L1.968.269C1.665.094 1.378.011 1.124.01.506.01.082.501.082 1.352" mask="url(#i)"/></g><g transform="translate(11.514 58.831)"><mask id="l" fill="#fff"><use xlink:href="#j"/></mask><path fill="url(#k)" fill-rule="nonzero" d="M.082 1.352c0 1.2.845 2.665 1.888 3.266l16.287 9.404c.954.548 1.735.182 1.86-.803-.08-.037-.162-.067-.248-.115L3.582 3.7C2.539 3.098 1.694 1.635 1.694.434c0-.1.014-.19.025-.28a1.546 1.546 0 0 0-.6-.134C.504.02.082.504.082 1.352" mask="url(#l)"/></g><g transform="translate(11.514 51.59)"><mask id="o" fill="#fff"><use xlink:href="#m"/></mask><path fill="url(#n)" fill-rule="nonzero" d="M.082 1.43c0 1.2.845 2.664 1.888 3.265L18.257 14.1c1.042.602 1.886.115 1.886-1.086.002-1.2-.844-2.661-1.886-3.263L1.968.346c-.303-.175-.59-.258-.844-.258C.506.088.082.578.082 1.429" mask="url(#o)"/></g><g transform="translate(11.514 51.59)"><mask id="q" fill="#fff"><use xlink:href="#p"/></mask><path d="M.082 1.43c0 1.2.845 2.664 1.888 3.265L18.257 14.1c.954.549 1.735.182 1.86-.803-.08-.037-.162-.067-.248-.115L3.582 3.777C2.539 3.176 1.694 1.712 1.694.511c0-.1.014-.19.025-.28a1.546 1.546 0 0 0-.6-.134C.504.097.082.581.082 1.43" mask="url(#q)"/></g><g transform="translate(11.514 44.347)"><mask id="t" fill="#fff"><use xlink:href="#r"/></mask><path fill="url(#s)" fill-rule="nonzero" d="M.082 1.506c0 1.201.845 2.665 1.888 3.266l16.287 9.404c1.042.602 1.886.115 1.886-1.086.002-1.2-.844-2.661-1.886-3.263L1.968.423c-.303-.175-.59-.258-.844-.258C.506.165.082.655.082 1.506" mask="url(#t)"/></g><g transform="translate(11.514 44.347)"><mask id="v" fill="#fff"><use xlink:href="#u"/></mask><path d="M.082 1.506c0 1.201.845 2.665 1.888 3.266l16.287 9.404c.954.549 1.735.182 1.86-.803-.08-.037-.162-.067-.248-.115L3.582 3.855C2.539 3.253 1.694 1.789 1.694.588c0-.1.014-.19.025-.28a1.546 1.546 0 0 0-.6-.134C.504.174.082.658.082 1.506" mask="url(#v)"/></g><g transform="translate(57.448 58.831)"><mask id="y" fill="#fff"><use xlink:href="#w"/></mask><path fill="url(#x)" fill-rule="nonzero" d="M18.336.269L2.05 9.673c-1.042.602-1.888 2.062-1.888 3.263 0 1.2.846 1.688 1.887 1.086l16.288-9.404c1.044-.601 1.888-2.065 1.888-3.266 0-.85-.423-1.342-1.042-1.342-.254 0-.541.084-.846.259" mask="url(#y)"/></g><g transform="translate(57.448 58.831)"><mask id="A" fill="#fff"><use xlink:href="#z"/></mask><path d="M18.585.154c.013.09.027.18.027.28 0 1.2-.844 2.664-1.888 3.266L.436 13.104c-.084.048-.165.078-.248.115.128.985.907 1.351 1.86.803l16.288-9.404c1.044-.601 1.888-2.065 1.888-3.266 0-.848-.423-1.332-1.038-1.332-.185 0-.387.044-.6.134" mask="url(#A)"/></g><g transform="translate(57.448 51.59)"><mask id="D" fill="#fff"><use xlink:href="#B"/></mask><path fill="url(#C)" fill-rule="nonzero" d="M18.336.346L2.05 9.75c-1.042.602-1.888 2.062-1.888 3.263 0 1.2.846 1.688 1.887 1.086l16.288-9.404c1.044-.601 1.888-2.065 1.888-3.266 0-.85-.423-1.341-1.042-1.341-.254 0-.541.083-.846.258" mask="url(#D)"/></g><g transform="translate(57.448 51.59)"><mask id="F" fill="#fff"><use xlink:href="#E"/></mask><path d="M18.585.232c.013.089.027.179.027.28 0 1.2-.844 2.664-1.888 3.265L.436 13.181c-.084.048-.165.078-.248.115.128.985.907 1.352 1.86.803l16.288-9.404c1.044-.601 1.888-2.065 1.888-3.266 0-.848-.423-1.332-1.038-1.332a1.55 1.55 0 0 0-.6.135" mask="url(#F)"/></g><g transform="translate(57.448 44.347)"><mask id="I" fill="#fff"><use xlink:href="#G"/></mask><path fill="url(#H)" fill-rule="nonzero" d="M18.336.423L2.05 9.827C1.007 10.429.161 11.889.161 13.09c0 1.2.846 1.688 1.887 1.086l16.288-9.404c1.044-.601 1.888-2.065 1.888-3.266 0-.85-.423-1.342-1.042-1.341-.254 0-.541.083-.846.258" mask="url(#I)"/></g><g transform="translate(57.448 44.347)"><mask id="K" fill="#fff"><use xlink:href="#J"/></mask><path d="M18.585.309c.013.09.027.179.027.28 0 1.2-.844 2.664-1.888 3.266L.436 13.258c-.084.048-.165.078-.248.115.128.985.907 1.352 1.86.803l16.288-9.404c1.044-.601 1.888-2.065 1.888-3.266 0-.848-.423-1.332-1.038-1.332-.185 0-.387.044-.6.135" mask="url(#K)"/></g></g></svg>