<svg xmlns="http://www.w3.org/2000/svg" xmlns:xlink="http://www.w3.org/1999/xlink" width="90" height="90" viewBox="0 0 90 90"><title>1备份</title><defs><path id="a" d="M32.108 2.471L4.018 18.69c-2.71 1.566-4.044 3.622-4.01 5.67v5.427c-.04 2.05 1.285 4.103 3.988 5.662L32.021 51.63c5.337 3.08 14 3.076 19.348-.013l28.09-16.218c2.66-1.535 3.998-3.545 4.016-5.555h.004V24.25h-.002c.016-2.032-1.313-4.064-3.993-5.612L51.457 2.459C48.794.92 45.301.151 41.805.151c-3.507 0-7.018.774-9.697 2.32"/><linearGradient id="b" x1="205.729%" x2="19.628%" y1="44.043%" y2="51.162%"><stop offset="0%" stop-color="#00C6FB"/><stop offset="100%" stop-color="#005BEA"/></linearGradient><path id="d" d="M32.108 2.471L4.018 18.69C1.347 20.233.007 22.254 0 24.274v.029c.007 2.013 1.338 4.024 3.996 5.557l28.025 16.181c5.337 3.082 14 3.076 19.348-.013l28.09-16.218c5.35-3.089 5.361-8.09.025-11.171L51.457 2.459C48.794.92 45.301.151 41.805.151c-3.507 0-7.018.774-9.697 2.32"/><linearGradient id="e" x1="205.729%" x2="19.628%" y1="45.217%" y2="50.933%"><stop offset="0%" stop-color="#00C6FB"/><stop offset="100%" stop-color="#005BEA"/></linearGradient><path id="g" d="M27.424 2.064L3.567 15.837c-4.544 2.624-4.551 6.87-.02 9.488l23.8 13.742c4.533 2.617 11.89 2.613 16.434-.01l23.855-13.774c4.544-2.623 4.553-6.872.02-9.487l-23.8-13.743C41.593.747 38.628.094 35.659.094c-2.979 0-5.96.657-8.235 1.97"/><linearGradient id="h" x1="0%" x2="50%" y1="33.332%" y2="66.668%"><stop offset="0%" stop-color="#1A85F3"/><stop offset="100%" stop-color="#33C2EE"/><stop offset="100%" stop-color="#34C3EE"/></linearGradient><path id="j" d="M.065 1.095c0 .937.66 2.078 1.474 2.548l12.713 7.34c.813.47 1.472.091 1.472-.846.001-.94-.659-2.08-1.473-2.55L1.538.248a1.338 1.338 0 0 0-.659-.2C.396.047.065.43.065 1.095"/><linearGradient id="k" x1="1.733%" x2="97.536%" y1="50%" y2="50%"><stop offset="0%" stop-color="#21B2B2"/><stop offset="100%" stop-color="#6FECC9"/></linearGradient><path id="m" d="M.065 1.095c0 .937.66 2.078 1.474 2.548l12.713 7.34c.743.43 1.353.141 1.451-.628-.063-.026-.126-.05-.193-.09L2.797 2.926C1.982 2.457 1.323 1.317 1.323.38c0-.079.01-.149.02-.22A1.204 1.204 0 0 0 .877.053c-.48 0-.811.379-.811 1.041"/><path id="o" d="M6.143 3.57c-8.032 4.638-8.017 12.193.035 16.841 8.05 4.649 21.134 4.657 29.168.02 8.031-4.638 8.017-12.192-.035-16.84C31.28 1.262 25.986.097 20.697.097c-5.274 0-10.543 1.157-14.554 3.473"/><linearGradient id="p" x1="205.729%" x2="19.628%" y1="45.217%" y2="50.933%"><stop offset="0%" stop-color="#00C6FB"/><stop offset="100%" stop-color="#005BEA"/></linearGradient><path id="r" d="M5.566 3.208C.916 5.894-.784 9.644.444 13.118l-.002.007c.718 2.03 2.432 3.966 5.156 5.539 7.389 4.266 19.397 4.274 26.77.018 2.709-1.564 4.412-3.49 5.127-5.51l-.002-.007c1.227-3.48-.483-7.242-5.156-9.939C28.637 1.09 23.778.021 18.923.021c-4.84 0-9.676 1.062-13.357 3.187"/><path id="t" d="M3.595 1.051C1.362 1.97.03 3.302.15 4.478c.002.005 0 .012 0 .018.002.006 0 .011 0 .018.002.006 0 .012 0 .017.002.007 0 .013 0 .019.002.005 0 .012 0 .018.002.006 0 .011 0 .018.002.006 0 .012 0 .017.002.007 0 .013 0 .019.002.005 0 .012 0 .018.002.006 0 .012 0 .018.002.007 0 .012 0 .017.002.007 0 .014 0 .019.002.005 0 .012 0 .019.002.005 0 .01 0 .017.002.006 0 .012 0 .018.002.006 0 .013 0 .02.002.004 0 .01 0 .017.002.006 0 .012 0 .017.002.007 0 .013 0 .019.002.005 0 .012 0 .018.002.006 0 .011 0 .018.002.006 0 .012 0 .017.002.007 0 .013 0 .019.002.005 0 .012 0 .018.002.006 0 .011 0 .018.002.006 0 .012 0 .017.002.007 0 .014 0 .019.002.005 0 .012 0 .018.002.006 0 .011 0 .018.002.006 0 .012 0 .017.002.007 0 .013 0 .019 1.279.073 2.525.393 3.506.96.463.267.825.57 1.099.891.976-.51 2.193-.935 3.536-1.23a19.79 19.79 0 0 1 2.199-.345c1.479-.144 2.898-.107 4.102.105.22.04.46.003.619-.092a.322.322 0 0 0 .154-.185c.003-.006-.002-.011 0-.018.003-.006-.002-.012 0-.017.003-.007-.002-.013 0-.019.003-.005-.002-.012 0-.018.003-.006-.002-.011 0-.018.003-.007-.002-.012 0-.017.003-.007-.002-.013 0-.019.003-.005-.002-.012 0-.019.003-.005-.002-.01 0-.017.003-.006-.002-.012 0-.018.003-.006-.002-.012 0-.018.003-.005-.002-.012 0-.019.003-.005-.002-.01 0-.017.003-.007-.002-.012 0-.018.003-.006-.002-.013 0-.02.003-.005-.002-.01 0-.017.003-.006-.002-.012 0-.017.003-.007-.002-.013 0-.019.003-.005-.002-.012 0-.018.003-.006-.002-.011 0-.018.003-.006-.002-.012 0-.017.003-.007-.002-.013 0-.019.003-.005-.002-.012 0-.018.003-.006-.002-.011 0-.018.003-.006-.002-.012 0-.017.003-.007-.002-.013 0-.019.003-.005-.002-.012 0-.019.003-.005-.002-.01 0-.017.003-.006-.002-.012 0-.017.003-.007-.002-.014 0-.019a.211.211 0 0 0-.018-.193c-.494-.825-1.219-1.628-2.158-2.388a13.62 13.62 0 0 0-.984-.723c-.488-.328-.94-.631-1.561-.913-.047-.022-.1-.037-.149-.056C10.02.134 9.358.045 8.603.045c-1.54 0-3.468.373-5.008 1.006"/><linearGradient id="u" x1="1.733%" x2="97.536%" y1="50%" y2="50%"><stop offset="0%" stop-color="#4FF"/><stop offset="100%" stop-color="#6FECC9"/></linearGradient><path id="w" d="M3.595 1.051C1.362 1.97.03 3.302.15 4.478c1.279.073 2.525.393 3.506.96.463.266.825.57 1.099.891.976-.511 2.193-.935 3.536-1.23a19.79 19.79 0 0 1 2.199-.345c1.479-.144 2.898-.107 4.102.105.22.04.46.003.619-.092.16-.096.211-.235.136-.36-.494-.825-1.219-1.628-2.158-2.388a13.62 13.62 0 0 0-.984-.723c-.488-.328-.94-.631-1.561-.913-.047-.022-.1-.037-.149-.056C10.02.134 9.358.045 8.603.045c-1.54 0-3.468.373-5.008 1.006"/><linearGradient id="x" x1="1.733%" x2="97.536%" y1="50%" y2="50%"><stop offset="0%" stop-color="#21B2B2"/><stop offset="100%" stop-color="#6FECC9"/></linearGradient><path id="z" d="M6.432.19c-.529.03-1.059.073-1.577.128-.731.08-1.415.154-2.145.323-.055.013-.105.031-.16.047C1.148 1.065.189 2.468.16 3.902v.54c-.006.207.008.414.041.62.267 1.577 1.606 2.912 3.43 3.443.18-.145.376-.285.6-.415 1.224-.706 2.865-1.023 4.467-.96l-.006-.018h.006l-.006-.018h.006l-.006-.018h.006c-.002-.006-.003-.012-.006-.017h.006c-.002-.007-.003-.013-.006-.019h.006l-.006-.018h.006l-.006-.018h.006c-.002-.006-.003-.012-.006-.017h.006c-.002-.007-.003-.013-.006-.019h.006l-.006-.018h.006l-.006-.018h.006c-.002-.006-.003-.012-.006-.017h.006c-.002-.007-.003-.013-.006-.019h.006l-.006-.019h.006l-.006-.017h.006c-.002-.006-.003-.013-.006-.018h.006l-.006-.02h.006l-.006-.017h.006c-.002-.006-.003-.012-.006-.017h.006c-.002-.007-.003-.013-.006-.019h.006l-.006-.018h.006l-.006-.018h.006c-.002-.006-.003-.012-.006-.017h.006c-.002-.007-.003-.013-.006-.019h.006l-.006-.018h.006l-.006-.018h.006c-.002-.006-.003-.012-.006-.017h.006c-.002-.007-.003-.013-.006-.019h.006l-.006-.018h.006l-.006-.018h.006c-.002-.006-.003-.012-.006-.017h.006a3.685 3.685 0 0 1-.215-1.012c.02-.27.057-.543.133-.816.122-.438.317-.866.577-1.272.518-.813 1.278-1.504 2.197-1.999a.357.357 0 0 0 .173-.181c.002-.007-.002-.013 0-.019.002-.005-.002-.012 0-.018.002-.006-.002-.011 0-.018.002-.006-.002-.012 0-.017.002-.007-.002-.014 0-.019.002-.005-.002-.012 0-.018.002-.006-.002-.011 0-.018.002-.006-.002-.012 0-.017.002-.007-.002-.013 0-.019.002-.005-.002-.012 0-.019.002-.005-.002-.01 0-.017.002-.006-.002-.012 0-.017.002-.007-.002-.013 0-.019.002-.005-.002-.012 0-.019.002-.005-.002-.012 0-.017.002-.007-.002-.013 0-.019.002-.005-.002-.012 0-.018.002-.006-.002-.011 0-.018.002-.006-.002-.012 0-.017.002-.007-.002-.013 0-.019.002-.005-.002-.012 0-.018.002-.006-.002-.011 0-.018.002-.006-.002-.012 0-.017.002-.007-.002-.013 0-.019.002-.005-.002-.012 0-.018.002-.006-.002-.011 0-.018.002-.006-.002-.012 0-.017.002-.007-.002-.013 0-.019.002-.005-.002-.012 0-.018.002-.006-.002-.011 0-.018a.215.215 0 0 0-.002-.192c-.064-.127-.247-.223-.472-.25a27.23 27.23 0 0 0-3.02-.163c-.54 0-1.086.015-1.636.045"/><linearGradient id="A" x1="50%" x2="50%" y1="2.824%" y2="100%"><stop offset="0%" stop-color="#2CDFB0"/><stop offset="100%" stop-color="#93E9DB"/></linearGradient><path id="C" d="M6.432.19c-.529.03-1.059.073-1.577.128-.731.08-1.415.154-2.145.323-.055.013-.105.031-.16.047C.953 1.118-.072 2.88.2 4.502.467 6.08 1.806 7.415 3.63 7.946a4.65 4.65 0 0 1 .6-.415c1.224-.706 2.865-1.024 4.467-.96-.28-.745-.311-1.566-.082-2.386.122-.438.317-.866.577-1.272C9.71 2.1 10.47 1.409 11.389.914c.168-.09.234-.228.17-.356-.063-.127-.246-.223-.471-.25a27.23 27.23 0 0 0-3.02-.163c-.54 0-1.086.015-1.636.045"/><linearGradient id="D" x1="1.733%" x2="97.536%" y1="50%" y2="50%"><stop offset="0%" stop-color="#21B2B2"/><stop offset="100%" stop-color="#6FECC9"/></linearGradient><path id="F" d="M1.808 1.09C.661 1.752.108 2.624.135 3.493a1.191 1.191 0 0 0 0 .109 1.15 1.15 0 0 0 0 .107 1.191 1.191 0 0 0 0 .11 1.17 1.17 0 0 0 0 .107c-.001.036-.002.071 0 .108a1.167 1.167 0 0 0 0 .108 1.17 1.17 0 0 0 0 .108 1.195 1.195 0 0 0 0 .11c-.001.035-.002.07 0 .107a1.188 1.188 0 0 0 0 .109 1.146 1.146 0 0 0 0 .107 1.195 1.195 0 0 0 0 .11 1.167 1.167 0 0 0 0 .107 1.174 1.174 0 0 0 0 .109 1.167 1.167 0 0 0 0 .108c-.001.036-.002.07 0 .108a1.17 1.17 0 0 0 0 .108 1.167 1.167 0 0 0 0 .108 1.191 1.191 0 0 0 0 .11 1.146 1.146 0 0 0 0 .106 1.195 1.195 0 0 0 0 .11c-.001.034-.002.07 0 .107a1.191 1.191 0 0 0 0 .109 1.167 1.167 0 0 0 0 .108 1.17 1.17 0 0 0 0 .108 1.167 1.167 0 0 0 0 .108 1.174 1.174 0 0 0 0 .109 1.167 1.167 0 0 0 0 .108 1.167 1.167 0 0 0 0 .108 1.191 1.191 0 0 0 0 .109C.11 7.61.668 8.485 1.817 9.149c2.252 1.3 5.9 1.302 8.147.004 1.148-.661 1.7-1.534 1.673-2.403a1.726 1.726 0 0 0 0-.109 1.721 1.721 0 0 0 0-.108 1.727 1.727 0 0 0 0-.108 1.726 1.726 0 0 0 0-.108 1.716 1.716 0 0 0 0-.108 1.732 1.732 0 0 0 0-.108 1.716 1.716 0 0 0 0-.108 1.763 1.763 0 0 0 0-.11 1.727 1.727 0 0 0 0-.108 1.726 1.726 0 0 0 0-.108 1.721 1.721 0 0 0 0-.108 1.727 1.727 0 0 0 0-.108 1.721 1.721 0 0 0 0-.108 1.727 1.727 0 0 0 0-.108 1.721 1.721 0 0 0 0-.109 1.727 1.727 0 0 0 0-.108 1.726 1.726 0 0 0 0-.108 1.716 1.716 0 0 0 0-.108 1.763 1.763 0 0 0 0-.11 1.721 1.721 0 0 0 0-.107 1.726 1.726 0 0 0 0-.108 1.727 1.727 0 0 0 0-.109 1.727 1.727 0 0 0 0-.108 1.721 1.721 0 0 0 0-.108 1.721 1.721 0 0 0 0-.108 1.721 1.721 0 0 0 0-.108 1.732 1.732 0 0 0 0-.108 1.758 1.758 0 0 0 0-.11 1.727 1.727 0 0 0 0-.108v-.108c.023-.87-.531-1.743-1.683-2.407C8.826.445 7.35.119 5.874.119c-1.473 0-2.943.323-4.066.97"/><path id="H" d="M1.808 1.09c-2.247 1.298-2.243 3.402.009 4.704 2.252 1.3 5.9 1.302 8.147.004 2.247-1.297 2.242-3.403-.01-4.703C8.826.445 7.35.119 5.874.119c-1.473 0-2.943.323-4.066.97"/><linearGradient id="I" x1="205.729%" x2="19.628%" y1="45.217%" y2="50.933%"><stop offset="0%" stop-color="#00C6FB"/><stop offset="100%" stop-color="#005BEA"/></linearGradient><path id="K" d="M3.727.136c-.99.657-1.83 1.42-2.498 2.269-.22.277-.418.564-.592.852-.246.406-.475.784-.584 1.234-.01.035-.005.069-.011.103l.002.009-.002.01.002.01-.002.008.002.009-.002.01.002.01-.002.008.002.009-.002.01.002.01-.002.008.002.009-.002.01.002.01-.002.01.002.008-.002.01.002.009-.002.01.002.008-.002.01.002.009-.002.01.002.008-.002.01.002.009-.002.01.002.008-.002.01.002.009-.002.01.002.009-.002.01.002.008-.002.01.002.009-.002.01.002.008-.002.01.002.009-.002.01.002.009-.002.01.002.008-.002.01.002.009-.002.01.002.01-.002.008.002.009-.002.01.002.01-.002.008.002.009-.002.01.002.01-.002.008.002.009-.002.011.002.009-.002.008c-.011.08.014.164.03.247.008.046-.002.088.015.134.324.959 2.245 2.112 4.506 2.708 2.498.66 5.17.662 6.874.017l-.011-.015.01-.004c-.004-.004-.006-.01-.01-.015a.068.068 0 0 1 .01-.003l-.01-.016.01-.003c-.004-.004-.006-.011-.01-.015a.136.136 0 0 1 .01-.004l-.01-.015.01-.003-.01-.015a.068.068 0 0 1 .01-.004l-.01-.015a.094.094 0 0 1 .01-.003c-.004-.005-.006-.011-.01-.015.003-.003.006-.003.01-.005-.004-.004-.006-.01-.01-.015l.01-.002-.01-.016.01-.004c-.004-.004-.006-.01-.01-.015l.01-.002c-.004-.006-.006-.012-.01-.016l.01-.004-.01-.015c.003 0 .006-.003.01-.003l-.01-.015.01-.004-.01-.016.01-.002-.01-.015.01-.005c-.004-.004-.006-.01-.01-.015l.01-.002-.01-.015.01-.005c-.004-.004-.006-.01-.01-.015l.01-.002-.01-.015c.003-.003.006-.003.01-.005-.004-.004-.006-.01-.01-.015l.01-.002-.01-.016.01-.004c-.004-.004-.006-.01-.01-.015l.01-.002-.01-.017a.136.136 0 0 1 .01-.003c-.004-.004-.006-.01-.01-.015l.01-.004-.01-.015a.136.136 0 0 1 .01-.003c-.004-.004-.006-.011-.01-.015l.01-.004-.01-.015.01-.003c-.004-.004-.006-.011-.01-.016a.136.136 0 0 1 .01-.003l-.01-.015a.09.09 0 0 1 .01-.003l-.01-.016.01-.003c-.013-.015-.017-.031-.029-.047l-.002-.004c-.079-.105-.135-.214-.193-.323l-.005-.005c-.041-.079-.087-.155-.118-.234v-.004a1.955 1.955 0 0 1-.105-.367l-.002-.007c-.007-.038-.027-.076-.033-.116l.01-.032c-.01-.083-.04-.166-.04-.25V5.193a.362.362 0 0 1 0-.045.332.332 0 0 1 0-.044.344.344 0 0 1 0-.045.344.344 0 0 1 0-.045.327.327 0 0 1 0-.043.362.362 0 0 1 0-.046.327.327 0 0 1 0-.044.347.347 0 0 1 0-.045.344.344 0 0 1 0-.045.345.345 0 0 1 0-.044.344.344 0 0 1 0-.045.33.33 0 0 1 0-.044.344.344 0 0 1 0-.045.345.345 0 0 1 0-.044.347.347 0 0 1 0-.045.347.347 0 0 1 0-.045.327.327 0 0 1 0-.044.362.362 0 0 1 0-.046.327.327 0 0 1 0-.043.347.347 0 0 1 0-.045.344.344 0 0 1 0-.045v-.032c-.917-.23-1.82-.517-2.64-.905a11.157 11.157 0 0 1-1.622-.926C5.726 1.723 5.068.997 4.784.288 4.732.16 4.558.058 4.335.026a1.044 1.044 0 0 0-.152-.011.835.835 0 0 0-.456.121"/><linearGradient id="L" x1="1.733%" x2="97.536%" y1="50%" y2="50%"><stop offset="0%" stop-color="#3EFFFF"/><stop offset="100%" stop-color="#6FECC9"/></linearGradient><path id="N" d="M3.727.136c-.99.657-1.83 1.42-2.498 2.269-.22.277-.418.564-.592.852-.246.406-.475.784-.584 1.234-.01.035-.005.069-.011.103-.153 1.016 1.983 2.412 4.551 3.089 2.498.66 5.17.662 6.874.016-.016-.018-.024-.038-.039-.058-.044-.061-.081-.122-.12-.183v-.003a2.302 2.302 0 0 1-.204-.4c-.002-.002-.003-.006-.004-.01a2.043 2.043 0 0 1-.14-.664c0-.023-.011-.046-.011-.07V5.192a.362.362 0 0 1 0-.045.332.332 0 0 1 0-.044.344.344 0 0 1 0-.045.344.344 0 0 1 0-.045.327.327 0 0 1 0-.043.362.362 0 0 1 0-.046.327.327 0 0 1 0-.044.347.347 0 0 1 0-.045.344.344 0 0 1 0-.045.345.345 0 0 1 0-.044.344.344 0 0 1 0-.045.33.33 0 0 1 0-.044.344.344 0 0 1 0-.045.345.345 0 0 1 0-.044.347.347 0 0 1 0-.045.347.347 0 0 1 0-.045.327.327 0 0 1 0-.044.362.362 0 0 1 0-.046.327.327 0 0 1 0-.043.347.347 0 0 1 0-.045.344.344 0 0 1 0-.045v-.032c-.917-.23-1.82-.517-2.64-.905a11.157 11.157 0 0 1-1.622-.926C5.726 1.723 5.068.997 4.784.288 4.732.16 4.558.058 4.335.026a1.044 1.044 0 0 0-.152-.011.835.835 0 0 0-.456.121"/><linearGradient id="O" x1="1.733%" x2="97.536%" y1="50%" y2="50%"><stop offset="0%" stop-color="#21B2B2"/><stop offset="100%" stop-color="#6FECC9"/></linearGradient><path id="Q" d="M.984.452v.423a.202.202 0 0 1 0 .037.181.181 0 0 1 0 .036.206.206 0 0 1 0 .037.18.18 0 0 1 0 .035.204.204 0 0 1 0 .037.181.181 0 0 1 0 .035.202.202 0 0 1 0 .037.192.192 0 0 1 0 .036.193.193 0 0 1 0 .036.192.192 0 0 1 0 .036.192.192 0 0 1 0 .036.19.19 0 0 1 0 .036.195.195 0 0 1 0 .036.192.192 0 0 1 0 .036.192.192 0 0 1 0 .036.192.192 0 0 1 0 .036.192.192 0 0 1 0 .036.192.192 0 0 1 0 .036.192.192 0 0 1 0 .036.193.193 0 0 1 0 .037.192.192 0 0 1 0 .036.192.192 0 0 1 0 .036.192.192 0 0 1 0 .036.204.204 0 0 1 0 .037.181.181 0 0 1 0 .035.202.202 0 0 1 0 .037.181.181 0 0 1 0 .035.204.204 0 0 1 0 .037.181.181 0 0 1 0 .035.202.202 0 0 1 0 .037c.002.1-.032.201-.046.302.002.014.01.028.013.043-.01.057-.033.113-.046.168v.003c-.017.06-.028.122-.05.183l-.002.003a2.339 2.339 0 0 1-.25.495c-.03.048-.067.096-.103.144l-.002.003c-.081.109-.184.211-.284.314-.066.067-.116.135-.19.2l-.013.014c.006 0 .01.003.016.003l-.016.017c.006 0 .01.002.016.003l-.016.017c.006 0 .01.002.016.003L.01 3.89c.006 0 .01.002.017.005L.01 3.91a.073.073 0 0 1 .016.004c-.005.004-.01.011-.016.015a.073.073 0 0 1 .016.005l-.016.015a.065.065 0 0 1 .016.005l-.016.015a.059.059 0 0 1 .016.004c-.005.005-.01.011-.016.015a.073.073 0 0 1 .016.005l-.016.015a.083.083 0 0 1 .016.004l-.016.016a.059.059 0 0 1 .016.004c-.005.004-.01.011-.016.015.006.001.01.004.017.005l-.017.015a.132.132 0 0 0 .016.004l-.016.016a.111.111 0 0 0 .016.004c-.005.004-.01.011-.016.015a.129.129 0 0 0 .016.005l-.016.015a.163.163 0 0 0 .016.004c-.005.005-.01.012-.016.016a.174.174 0 0 0 .016.004l-.016.015a.08.08 0 0 0 .016.005l-.016.015a.136.136 0 0 0 .016.004l-.016.016c.006.002.01.004.017.004-.006.006-.01.011-.017.016.006.001.01.004.016.004a.103.103 0 0 1-.016.016c.006.001.01.003.016.003a.104.104 0 0 1-.016.017c.006 0 .01.003.016.003a.098.098 0 0 1-.016.016c.006.002.01.004.016.004a.1.1 0 0 1-.016.016c.006.001.01.003.016.003a.097.097 0 0 1-.016.017c.006.001.01.003.016.003a.097.097 0 0 1-.016.016c.006.002.01.004.016.004a.103.103 0 0 1-.016.016c.006.001.01.003.017.003l-.017.018c.006 0 .01.002.016.003l-.016.016c.006 0 .01.003.016.004l-.016.016c.006 0 .01.002.016.004l-.016.016a15.08 15.08 0 0 1 3.617 1.155 11.2 11.2 0 0 1 1.62.929c.961.666 1.62 1.394 1.905 2.102.051.126.22.224.437.26.351-.176.705-.35 1.038-.543.302-.174.572-.359.848-.541a9.938 9.938 0 0 0 1.23-1.291c.22-.28.42-.566.593-.854.245-.406.475-.785.585-1.235.008-.035.004-.068.01-.102l-.002-.008.001-.012c.001-.002-.001-.004-.001-.008l.001-.012c.001-.002-.001-.004-.001-.007l.001-.012c.001-.002-.001-.005-.001-.008l.001-.012c.001-.002-.001-.005-.001-.009l.001-.01c.001-.003-.001-.006-.001-.01l.001-.01c.001-.002-.001-.006-.001-.01l.001-.01c.001-.002-.001-.006-.001-.009l.001-.01c.001-.003-.001-.006-.001-.01l.001-.01c.001-.003-.001-.006-.001-.01l.001-.01c.001-.002-.001-.005-.001-.009l.001-.01c.001-.003-.001-.006-.001-.01l.001-.01c.001-.003-.001-.007-.001-.009l.001-.01c.001-.004-.001-.008-.001-.01l.001-.01c.001-.004-.001-.007-.001-.01l.001-.01c.001-.003-.001-.007-.001-.009l.001-.01c.001-.004-.001-.008-.001-.01l.001-.01c.001-.004-.001-.007-.001-.01l.001-.01c.001-.004-.001-.007-.001-.009l.001-.01c.001-.004-.001-.007-.001-.01l.001-.012c.001-.003-.001-.005-.001-.007l.001-.012c.001-.004-.001-.006-.001-.008l.001-.012c.001-.003-.001-.005-.001-.008l.001-.012c.001-.003-.001-.005-.001-.007l.001-.012c.001-.003-.001-.006-.001-.008l.001-.012c.001-.003-.001-.005-.001-.008l.001-.012c.001-.003-.001-.005-.001-.007l.001-.012c.001-.004-.001-.006-.001-.008l.001-.013c.001-.002-.001-.004-.001-.008l.001-.012c.001-.002-.001-.004-.001-.007l.001-.012c.001-.003-.001-.005-.001-.008l.001-.012C12.046 2.695 9.91 1.3 7.342.622A14.787 14.787 0 0 0 3.619.13c-.97 0-1.872.108-2.635.322"/><linearGradient id="R" x1="1.733%" x2="97.536%" y1="50%" y2="50%"><stop offset="0%" stop-color="#3DFFFF"/><stop offset="100%" stop-color="#6FECC9"/></linearGradient><path id="T" d="M.984.452v.423a.202.202 0 0 1 0 .037.181.181 0 0 1 0 .036.206.206 0 0 1 0 .037.18.18 0 0 1 0 .035.204.204 0 0 1 0 .037.181.181 0 0 1 0 .035.202.202 0 0 1 0 .037.192.192 0 0 1 0 .036.193.193 0 0 1 0 .036.192.192 0 0 1 0 .036.192.192 0 0 1 0 .036.19.19 0 0 1 0 .036.195.195 0 0 1 0 .036.192.192 0 0 1 0 .036.192.192 0 0 1 0 .036.192.192 0 0 1 0 .036.192.192 0 0 1 0 .036.192.192 0 0 1 0 .036.192.192 0 0 1 0 .036.193.193 0 0 1 0 .037.192.192 0 0 1 0 .036.192.192 0 0 1 0 .036.192.192 0 0 1 0 .036.204.204 0 0 1 0 .037.181.181 0 0 1 0 .035.202.202 0 0 1 0 .037.181.181 0 0 1 0 .035.204.204 0 0 1 0 .037.181.181 0 0 1 0 .035.202.202 0 0 1 0 .037c.001.03-.013.061-.013.092-.006.144-.03.286-.068.428-.012.048-.015.096-.03.144l-.003.004c-.061.18-.153.356-.266.53-.03.047-.066.09-.1.138a3.25 3.25 0 0 1-.398.442.008.008 0 0 0-.005.004c-.028.025-.049.05-.077.076H.023l-.013.014c1.256.234 2.5.63 3.617 1.156.594.28 1.14.593 1.62.928.961.666 1.62 1.394 1.905 2.103.051.128.226.23.449.263.221.03.457-.01.607-.112.99-.657 1.83-1.42 2.498-2.267.22-.28.42-.566.592-.854.245-.405.475-.784.585-1.234.008-.035.004-.068.01-.103C12.045 2.695 9.91 1.3 7.341.622A14.787 14.787 0 0 0 3.619.13c-.97 0-1.872.108-2.635.322"/><linearGradient id="U" x1="1.733%" x2="97.536%" y1="50%" y2="50%"><stop offset="0%" stop-color="#21B2B2"/><stop offset="100%" stop-color="#6FECC9"/></linearGradient><path id="W" d="M7.196 1.268a19.56 19.56 0 0 1-2.2.345c-1.478.145-2.896.109-4.101-.105a.951.951 0 0 0-.619.091.321.321 0 0 0-.154.188c-.003.006.001.011 0 .018-.003.007.001.013 0 .02-.003.006.001.013 0 .02-.003.006.001.012 0 .019-.003.006.001.013 0 .02-.003.006.001.013 0 .02-.003.006.001.011 0 .018-.003.006.001.013 0 .02-.003.006.001.012 0 .018-.003.007.001.013 0 .02-.003.006.001.013 0 .02-.003.006.001.012 0 .02-.003.006.001.012 0 .019-.003.006.001.013 0 .02-.003.006.001.011 0 .018-.003.006.001.013 0 .02-.003.006.001.012 0 .018-.003.007.001.013 0 .02-.003.006.001.013 0 .02-.003.006.001.012 0 .02-.003.006.001.012 0 .019-.003.006.001.013 0 .02-.003.006.001.012 0 .018-.003.007.001.013 0 .02-.003.006.001.012 0 .018-.003.007.001.013 0 .02-.003.007.001.013 0 .02-.003.006.001.013 0 .02-.003.006.001.012 0 .019-.003.006.001.013 0 .02a.208.208 0 0 0 .018.192c.365.612.861 1.212 1.476 1.792.296.198.59.397.913.583 1.417.819 3.005 1.476 4.696 1.98a14.23 14.23 0 0 0 4.669-.999c2.23-.918 3.562-2.251 3.444-3.426-.002-.007 0-.013 0-.02-.002-.006 0-.013 0-.02-.002-.006 0-.013 0-.019-.002-.007 0-.013 0-.02-.002-.006 0-.013 0-.02-.002-.006 0-.012 0-.018-.002-.007 0-.013 0-.02-.002-.006 0-.012 0-.018-.002-.007 0-.013 0-.02-.002-.006 0-.013 0-.02-.002-.006 0-.013 0-.02-.002-.006 0-.012 0-.019-.002-.006 0-.013 0-.02-.002-.006 0-.013 0-.018-.002-.006 0-.013 0-.02-.002-.006 0-.012 0-.018-.002-.007 0-.014 0-.02-.002-.007 0-.013 0-.02-.002-.006 0-.013 0-.02-.002-.006 0-.012 0-.019-.002-.006 0-.013 0-.02-.002-.006 0-.013 0-.018-.002-.007 0-.013 0-.02-.002-.007 0-.012 0-.018-.002-.007 0-.014 0-.02-.002-.007 0-.013 0-.02-.002-.006 0-.013 0-.02-.002-.006 0-.012 0-.019-.002-.007 0-.013 0-.02-.002-.006 0-.013 0-.018-.002-.007 0-.013 0-.02-1.28-.073-2.526-.392-3.508-.958A4.2 4.2 0 0 1 10.731.04c-.975.51-2.192.934-3.535 1.229"/><linearGradient id="X" x1="1.733%" x2="97.536%" y1="50%" y2="50%"><stop offset="0%" stop-color="#48FFFF"/><stop offset="100%" stop-color="#6FECC9"/></linearGradient><path id="Z" d="M7.196 1.268a19.56 19.56 0 0 1-2.2.345c-1.478.145-2.896.109-4.101-.105a.951.951 0 0 0-.619.091c-.16.097-.212.235-.136.361.493.825 1.22 1.628 2.16 2.388.307.249.638.493.982.723.487.327.942.631 1.562.913.046.022.1.037.149.055 1.446.587 4.604.22 6.9-.723 2.23-.918 3.563-2.252 3.445-3.427-1.28-.073-2.526-.392-3.508-.958A4.2 4.2 0 0 1 10.731.04c-.975.51-2.192.934-3.535 1.229"/><linearGradient id="aa" x1="1.733%" x2="97.536%" y1="50%" y2="50%"><stop offset="0%" stop-color="#21B2B2"/><stop offset="100%" stop-color="#6FECC9"/></linearGradient><path id="ac" d="M7.38.451c-1.223.706-2.863 1.023-4.464.96l.004.019h-.004l.004.02h-.004l.004.019h-.004l.004.02h-.004l.004.02h-.004l.004.019h-.004l.004.019h-.004l.004.02h-.004l.004.018h-.004l.004.02h-.004l.004.02h-.004l.004.019h-.004l.004.02h-.004l.004.019h-.004l.004.019h-.004l.004.02h-.004l.004.018h-.004l.004.02h-.004l.004.02h-.004l.004.019h-.004l.004.02h-.004l.004.02h-.004l.004.018h-.004l.004.02h-.004l.004.018h-.004l.004.02h-.004l.004.02h-.004l.004.019h-.004l.004.02h-.004l.004.02h-.004l.004.018h-.004c.12.32.186.656.212 1a4 4 0 0 1-.131.786 4.7 4.7 0 0 1-.576 1.271c-.519.813-1.279 1.504-2.198 1.999a.35.35 0 0 0-.173.183c-.002.006.002.013 0 .02-.002.006.002.013 0 .019s.002.013 0 .02c-.002.005.002.012 0 .018-.002.006.002.013 0 .02-.002.006.002.013 0 .02-.002.006.002.012 0 .019-.002.006.002.013 0 .02-.002.006.002.013 0 .02-.002.005.002.012 0 .018-.002.006.002.013 0 .02-.002.005.002.012 0 .018 3.558.36 7.253.135 10.621-.68a3.563 3.563 0 0 0 .782-2.123v-.579a3.275 3.275 0 0 0-.043-.62C11.145 1.904 9.806.567 7.982.036a4.787 4.787 0 0 1-.602.415"/><linearGradient id="ad" x1="1.733%" x2="97.536%" y1="50%" y2="50%"><stop offset="0%" stop-color="#41FFFF"/><stop offset="100%" stop-color="#6FECC9"/></linearGradient><path id="af" d="M7.38.451c-1.223.706-2.863 1.023-4.464.96.28.745.31 1.565.081 2.387a4.7 4.7 0 0 1-.576 1.271c-.519.813-1.279 1.504-2.198 1.999-.169.09-.234.228-.17.356.012.026.047.044.07.065 3.21.318 6.524.156 9.613-.482 1.197-.677 1.907-2.15 1.674-3.526C11.145 1.904 9.806.567 7.982.036a4.787 4.787 0 0 1-.602.415"/><linearGradient id="ag" x1="1.733%" x2="97.536%" y1="50%" y2="50%"><stop offset="0%" stop-color="#21B2B2"/><stop offset="100%" stop-color="#6FECC9"/></linearGradient></defs><g fill="none" fill-rule="evenodd"><g transform="translate(3 18.01)"><mask id="c" fill="#fff"><use xlink:href="#a"/></mask><path fill="url(#b)" d="M32.108 2.471L4.018 18.69c-2.71 1.566-4.044 3.622-4.01 5.67v5.427c-.04 2.05 1.285 4.103 3.988 5.662L32.021 51.63c5.337 3.08 14 3.076 19.348-.013l28.09-16.218c2.66-1.535 3.998-3.545 4.016-5.555h.004V24.25h-.002c.016-2.032-1.313-4.064-3.993-5.612L51.457 2.459C48.794.92 45.301.151 41.805.151c-3.507 0-7.018.774-9.697 2.32" mask="url(#c)"/></g><path fill="#0073EE" d="M6.996 52.815l28.025 16.181c5.337 3.082 14 3.076 19.348-.013l28.09-16.218c2.716-1.568 4.05-3.628 4.012-5.68v.647c.037 2.051-1.296 4.111-4.012 5.68L54.37 69.63c-5.349 3.088-14.011 3.095-19.348.013L6.996 53.463c-2.707-1.563-4.033-3.62-3.989-5.672V47.145c-.044 2.05 1.282 4.109 3.989 5.67"/><path fill="#17FFF6" d="M6.996 47.813l28.025 16.18c5.337 3.083 14 3.076 19.348-.012l28.09-16.218c2.716-1.569 4.05-3.629 4.012-5.68v.647c.037 2.052-1.296 4.112-4.012 5.68L54.37 64.627c-5.349 3.089-14.011 3.095-19.348.013L6.996 48.46c-2.707-1.562-4.033-3.62-3.989-5.671v-.647c-.044 2.051 1.282 4.109 3.989 5.671"/><path fill="#17FFF6" d="M82.46 50.347L54.368 66.565c-5.349 3.089-14.011 3.093-19.348.013L6.996 50.398c-2.706-1.565-4.033-3.62-3.989-5.672v.475c-.044 2.05 1.283 4.106 3.989 5.67L35.02 67.052c5.337 3.08 14 3.076 19.348-.013l28.09-16.218c2.716-1.568 4.05-3.628 4.012-5.682v-.474c.037 2.054-1.296 4.114-4.012 5.682"/><path fill="#17FFF6" d="M6.996 50.871l28.025 16.18c5.337 3.081 14 3.077 19.348-.012l28.09-16.218c2.716-1.568 4.05-3.628 4.012-5.682v.647c.037 2.053-1.296 4.113-4.012 5.682L54.37 67.685c-5.349 3.09-14.011 3.094-19.348.013L6.996 51.518c-2.707-1.564-4.033-3.62-3.989-5.67v-.647c-.044 2.05 1.282 4.106 3.989 5.67"/><g transform="translate(3 18.01)"><mask id="f" fill="#fff"><use xlink:href="#d"/></mask><path fill="url(#e)" d="M32.108 2.471L4.018 18.69C1.347 20.233.007 22.254 0 24.274v.029c.007 2.013 1.338 4.024 3.996 5.557l28.025 16.181c5.337 3.082 14 3.076 19.348-.013l28.09-16.218c5.35-3.089 5.361-8.09.025-11.171L51.457 2.459C48.794.92 45.301.151 41.805.151c-3.507 0-7.018.774-9.697 2.32" mask="url(#f)"/></g><g transform="translate(9.137 19.463)"><mask id="i" fill="#fff"><use xlink:href="#g"/></mask><path fill="url(#h)" d="M27.424 2.064L3.567 15.837c-4.544 2.624-4.551 6.87-.02 9.488l23.8 13.742c4.533 2.617 11.89 2.613 16.434-.01l23.855-13.774c4.544-2.623 4.553-6.872.02-9.487l-23.8-13.743C41.593.747 38.628.094 35.659.094c-2.979 0-5.96.657-8.235 1.97" mask="url(#i)"/></g><path fill="#17FFF6" d="M76.773 44.07L52.918 57.843c-4.543 2.624-11.9 2.628-16.433.011l-23.8-13.742c-2.114-1.22-3.227-2.796-3.366-4.395-.158 1.826.954 3.68 3.365 5.07l23.8 13.743c4.533 2.617 11.89 2.613 16.434-.01l23.855-13.774c2.425-1.4 3.546-3.264 3.386-5.094-.139 1.606-1.258 3.19-3.386 4.418"/><g transform="translate(12.851 53.055)"><mask id="l" fill="#fff"><use xlink:href="#j"/></mask><path fill="url(#k)" d="M.065 1.095c0 .937.66 2.078 1.474 2.548l12.713 7.34c.813.47 1.472.091 1.472-.846.001-.94-.659-2.08-1.473-2.55L1.538.248a1.338 1.338 0 0 0-.659-.2C.396.047.065.43.065 1.095" mask="url(#l)"/></g><g transform="translate(12.851 53.055)"><mask id="n" fill="#fff"><use xlink:href="#m"/></mask><path d="M.065 1.095c0 .937.66 2.078 1.474 2.548l12.713 7.34c.743.43 1.353.141 1.451-.628-.063-.026-.126-.05-.193-.09L2.797 2.926C1.982 2.457 1.323 1.317 1.323.38c0-.079.01-.149.02-.22A1.204 1.204 0 0 0 .877.053c-.48 0-.811.379-.811 1.041" mask="url(#n)"/></g><g transform="translate(23.995 28.022)"><mask id="q" fill="#fff"><use xlink:href="#o"/></mask><path fill="url(#p)" d="M6.143 3.57c-8.032 4.638-8.017 12.193.035 16.841 8.05 4.649 21.134 4.657 29.168.02 8.031-4.638 8.017-12.192-.035-16.84C31.28 1.262 25.986.097 20.697.097c-5.274 0-10.543 1.157-14.554 3.473" mask="url(#q)"/></g><g transform="translate(25.771 29.637)"><mask id="s" fill="#fff"><use xlink:href="#r"/></mask><path d="M5.566 3.208C.916 5.894-.784 9.644.444 13.118l-.002.007c.718 2.03 2.432 3.966 5.156 5.539 7.389 4.266 19.397 4.274 26.77.018 2.709-1.564 4.412-3.49 5.127-5.51l-.002-.007c1.227-3.48-.483-7.242-5.156-9.939C28.637 1.09 23.778.021 18.923.021c-4.84 0-9.676 1.062-13.357 3.187" mask="url(#s)"/></g><g transform="translate(45.151 34.16)"><mask id="v" fill="#fff"><use xlink:href="#t"/></mask><path fill="url(#u)" d="M3.595 1.051C1.362 1.97.03 3.302.15 4.478c.002.005 0 .012 0 .018.002.006 0 .011 0 .018.002.006 0 .012 0 .017.002.007 0 .013 0 .019.002.005 0 .012 0 .018.002.006 0 .011 0 .018.002.006 0 .012 0 .017.002.007 0 .013 0 .019.002.005 0 .012 0 .018.002.006 0 .012 0 .018.002.007 0 .012 0 .017.002.007 0 .014 0 .019.002.005 0 .012 0 .019.002.005 0 .01 0 .017.002.006 0 .012 0 .018.002.006 0 .013 0 .02.002.004 0 .01 0 .017.002.006 0 .012 0 .017.002.007 0 .013 0 .019.002.005 0 .012 0 .018.002.006 0 .011 0 .018.002.006 0 .012 0 .017.002.007 0 .013 0 .019.002.005 0 .012 0 .018.002.006 0 .011 0 .018.002.006 0 .012 0 .017.002.007 0 .014 0 .019.002.005 0 .012 0 .018.002.006 0 .011 0 .018.002.006 0 .012 0 .017.002.007 0 .013 0 .019 1.279.073 2.525.393 3.506.96.463.267.825.57 1.099.891.976-.51 2.193-.935 3.536-1.23a19.79 19.79 0 0 1 2.199-.345c1.479-.144 2.898-.107 4.102.105.22.04.46.003.619-.092a.322.322 0 0 0 .154-.185c.003-.006-.002-.011 0-.018.003-.006-.002-.012 0-.017.003-.007-.002-.013 0-.019.003-.005-.002-.012 0-.018.003-.006-.002-.011 0-.018.003-.007-.002-.012 0-.017.003-.007-.002-.013 0-.019.003-.005-.002-.012 0-.019.003-.005-.002-.01 0-.017.003-.006-.002-.012 0-.018.003-.006-.002-.012 0-.018.003-.005-.002-.012 0-.019.003-.005-.002-.01 0-.017.003-.007-.002-.012 0-.018.003-.006-.002-.013 0-.02.003-.005-.002-.01 0-.017.003-.006-.002-.012 0-.017.003-.007-.002-.013 0-.019.003-.005-.002-.012 0-.018.003-.006-.002-.011 0-.018.003-.006-.002-.012 0-.017.003-.007-.002-.013 0-.019.003-.005-.002-.012 0-.018.003-.006-.002-.011 0-.018.003-.006-.002-.012 0-.017.003-.007-.002-.013 0-.019.003-.005-.002-.012 0-.019.003-.005-.002-.01 0-.017.003-.006-.002-.012 0-.017.003-.007-.002-.014 0-.019a.211.211 0 0 0-.018-.193c-.494-.825-1.219-1.628-2.158-2.388a13.62 13.62 0 0 0-.984-.723c-.488-.328-.94-.631-1.561-.913-.047-.022-.1-.037-.149-.056C10.02.134 9.358.045 8.603.045c-1.54 0-3.468.373-5.008 1.006" mask="url(#v)"/></g><g transform="translate(45.151 34.16)"><mask id="y" fill="#fff"><use xlink:href="#w"/></mask><path fill="url(#x)" d="M3.595 1.051C1.362 1.97.03 3.302.15 4.478c1.279.073 2.525.393 3.506.96.463.266.825.57 1.099.891.976-.511 2.193-.935 3.536-1.23a19.79 19.79 0 0 1 2.199-.345c1.479-.144 2.898-.107 4.102.105.22.04.46.003.619-.092.16-.096.211-.235.136-.36-.494-.825-1.219-1.628-2.158-2.388a13.62 13.62 0 0 0-.984-.723c-.488-.328-.94-.631-1.561-.913-.047-.022-.1-.037-.149-.056C10.02.134 9.358.045 8.603.045c-1.54 0-3.468.373-5.008 1.006" mask="url(#y)"/></g><g transform="translate(36.43 32.06)"><mask id="B" fill="#fff"><use xlink:href="#z"/></mask><path fill="url(#A)" d="M6.432.19c-.529.03-1.059.073-1.577.128-.731.08-1.415.154-2.145.323-.055.013-.105.031-.16.047C1.148 1.065.189 2.468.16 3.902v.54c-.006.207.008.414.041.62.267 1.577 1.606 2.912 3.43 3.443.18-.145.376-.285.6-.415 1.224-.706 2.865-1.023 4.467-.96l-.006-.018h.006l-.006-.018h.006l-.006-.018h.006c-.002-.006-.003-.012-.006-.017h.006c-.002-.007-.003-.013-.006-.019h.006l-.006-.018h.006l-.006-.018h.006c-.002-.006-.003-.012-.006-.017h.006c-.002-.007-.003-.013-.006-.019h.006l-.006-.018h.006l-.006-.018h.006c-.002-.006-.003-.012-.006-.017h.006c-.002-.007-.003-.013-.006-.019h.006l-.006-.019h.006l-.006-.017h.006c-.002-.006-.003-.013-.006-.018h.006l-.006-.02h.006l-.006-.017h.006c-.002-.006-.003-.012-.006-.017h.006c-.002-.007-.003-.013-.006-.019h.006l-.006-.018h.006l-.006-.018h.006c-.002-.006-.003-.012-.006-.017h.006c-.002-.007-.003-.013-.006-.019h.006l-.006-.018h.006l-.006-.018h.006c-.002-.006-.003-.012-.006-.017h.006c-.002-.007-.003-.013-.006-.019h.006l-.006-.018h.006l-.006-.018h.006c-.002-.006-.003-.012-.006-.017h.006a3.685 3.685 0 0 1-.215-1.012c.02-.27.057-.543.133-.816.122-.438.317-.866.577-1.272.518-.813 1.278-1.504 2.197-1.999a.357.357 0 0 0 .173-.181c.002-.007-.002-.013 0-.019.002-.005-.002-.012 0-.018.002-.006-.002-.011 0-.018.002-.006-.002-.012 0-.017.002-.007-.002-.014 0-.019.002-.005-.002-.012 0-.018.002-.006-.002-.011 0-.018.002-.006-.002-.012 0-.017.002-.007-.002-.013 0-.019.002-.005-.002-.012 0-.019.002-.005-.002-.01 0-.017.002-.006-.002-.012 0-.017.002-.007-.002-.013 0-.019.002-.005-.002-.012 0-.019.002-.005-.002-.012 0-.017.002-.007-.002-.013 0-.019.002-.005-.002-.012 0-.018.002-.006-.002-.011 0-.018.002-.006-.002-.012 0-.017.002-.007-.002-.013 0-.019.002-.005-.002-.012 0-.018.002-.006-.002-.011 0-.018.002-.006-.002-.012 0-.017.002-.007-.002-.013 0-.019.002-.005-.002-.012 0-.018.002-.006-.002-.011 0-.018.002-.006-.002-.012 0-.017.002-.007-.002-.013 0-.019.002-.005-.002-.012 0-.018.002-.006-.002-.011 0-.018a.215.215 0 0 0-.002-.192c-.064-.127-.247-.223-.472-.25a27.23 27.23 0 0 0-3.02-.163c-.54 0-1.086.015-1.636.045" mask="url(#B)"/></g><g transform="translate(36.43 32.06)"><mask id="E" fill="#fff"><use xlink:href="#C"/></mask><path fill="url(#D)" d="M6.432.19c-.529.03-1.059.073-1.577.128-.731.08-1.415.154-2.145.323-.055.013-.105.031-.16.047C.953 1.118-.072 2.88.2 4.502.467 6.08 1.806 7.415 3.63 7.946a4.65 4.65 0 0 1 .6-.415c1.224-.706 2.865-1.024 4.467-.96-.28-.745-.311-1.566-.082-2.386.122-.438.317-.866.577-1.272C9.71 2.1 10.47 1.409 11.389.914c.168-.09.234-.228.17-.356-.063-.127-.246-.223-.471-.25a27.23 27.23 0 0 0-3.02-.163c-.54 0-1.086.015-1.636.045" mask="url(#E)"/></g><g transform="translate(38.853 36.42)"><mask id="G" fill="#fff"><use xlink:href="#F"/></mask><path d="M1.808 1.09C.661 1.752.108 2.624.135 3.493a1.191 1.191 0 0 0 0 .109 1.15 1.15 0 0 0 0 .107 1.191 1.191 0 0 0 0 .11 1.17 1.17 0 0 0 0 .107c-.001.036-.002.071 0 .108a1.167 1.167 0 0 0 0 .108 1.17 1.17 0 0 0 0 .108 1.195 1.195 0 0 0 0 .11c-.001.035-.002.07 0 .107a1.188 1.188 0 0 0 0 .109 1.146 1.146 0 0 0 0 .107 1.195 1.195 0 0 0 0 .11 1.167 1.167 0 0 0 0 .107 1.174 1.174 0 0 0 0 .109 1.167 1.167 0 0 0 0 .108c-.001.036-.002.07 0 .108a1.17 1.17 0 0 0 0 .108 1.167 1.167 0 0 0 0 .108 1.191 1.191 0 0 0 0 .11 1.146 1.146 0 0 0 0 .106 1.195 1.195 0 0 0 0 .11c-.001.034-.002.07 0 .107a1.191 1.191 0 0 0 0 .109 1.167 1.167 0 0 0 0 .108 1.17 1.17 0 0 0 0 .108 1.167 1.167 0 0 0 0 .108 1.174 1.174 0 0 0 0 .109 1.167 1.167 0 0 0 0 .108 1.167 1.167 0 0 0 0 .108 1.191 1.191 0 0 0 0 .109C.11 7.61.668 8.485 1.817 9.149c2.252 1.3 5.9 1.302 8.147.004 1.148-.661 1.7-1.534 1.673-2.403a1.726 1.726 0 0 0 0-.109 1.721 1.721 0 0 0 0-.108 1.727 1.727 0 0 0 0-.108 1.726 1.726 0 0 0 0-.108 1.716 1.716 0 0 0 0-.108 1.732 1.732 0 0 0 0-.108 1.716 1.716 0 0 0 0-.108 1.763 1.763 0 0 0 0-.11 1.727 1.727 0 0 0 0-.108 1.726 1.726 0 0 0 0-.108 1.721 1.721 0 0 0 0-.108 1.727 1.727 0 0 0 0-.108 1.721 1.721 0 0 0 0-.108 1.727 1.727 0 0 0 0-.108 1.721 1.721 0 0 0 0-.109 1.727 1.727 0 0 0 0-.108 1.726 1.726 0 0 0 0-.108 1.716 1.716 0 0 0 0-.108 1.763 1.763 0 0 0 0-.11 1.721 1.721 0 0 0 0-.107 1.726 1.726 0 0 0 0-.108 1.727 1.727 0 0 0 0-.109 1.727 1.727 0 0 0 0-.108 1.721 1.721 0 0 0 0-.108 1.721 1.721 0 0 0 0-.108 1.721 1.721 0 0 0 0-.108 1.732 1.732 0 0 0 0-.108 1.758 1.758 0 0 0 0-.11 1.727 1.727 0 0 0 0-.108v-.108c.023-.87-.531-1.743-1.683-2.407C8.826.445 7.35.119 5.874.119c-1.473 0-2.943.323-4.066.97" mask="url(#G)"/></g><g transform="translate(38.853 36.42)"><mask id="J" fill="#fff"><use xlink:href="#H"/></mask><path fill="url(#I)" d="M1.808 1.09c-2.247 1.298-2.243 3.402.009 4.704 2.252 1.3 5.9 1.302 8.147.004 2.247-1.297 2.242-3.403-.01-4.703C8.826.445 7.35.119 5.874.119c-1.473 0-2.943.323-4.066.97" mask="url(#J)"/></g><path fill="#F6F6FB" d="M47.226 40.575c1.37-.792 1.367-2.075-.005-2.868-1.374-.792-3.599-.795-4.97-.004-1.37.791-1.367 2.075.007 2.868 1.373.793 3.598.796 4.968.004"/><g transform="translate(28.032 35.613)"><mask id="M" fill="#fff"><use xlink:href="#K"/></mask><path fill="url(#L)" d="M3.727.136c-.99.657-1.83 1.42-2.498 2.269-.22.277-.418.564-.592.852-.246.406-.475.784-.584 1.234-.01.035-.005.069-.011.103l.002.009-.002.01.002.01-.002.008.002.009-.002.01.002.01-.002.008.002.009-.002.01.002.01-.002.008.002.009-.002.01.002.01-.002.01.002.008-.002.01.002.009-.002.01.002.008-.002.01.002.009-.002.01.002.008-.002.01.002.009-.002.01.002.008-.002.01.002.009-.002.01.002.009-.002.01.002.008-.002.01.002.009-.002.01.002.008-.002.01.002.009-.002.01.002.009-.002.01.002.008-.002.01.002.009-.002.01.002.01-.002.008.002.009-.002.01.002.01-.002.008.002.009-.002.01.002.01-.002.008.002.009-.002.011.002.009-.002.008c-.011.08.014.164.03.247.008.046-.002.088.015.134.324.959 2.245 2.112 4.506 2.708 2.498.66 5.17.662 6.874.017l-.011-.015.01-.004c-.004-.004-.006-.01-.01-.015a.068.068 0 0 1 .01-.003l-.01-.016.01-.003c-.004-.004-.006-.011-.01-.015a.136.136 0 0 1 .01-.004l-.01-.015.01-.003-.01-.015a.068.068 0 0 1 .01-.004l-.01-.015a.094.094 0 0 1 .01-.003c-.004-.005-.006-.011-.01-.015.003-.003.006-.003.01-.005-.004-.004-.006-.01-.01-.015l.01-.002-.01-.016.01-.004c-.004-.004-.006-.01-.01-.015l.01-.002c-.004-.006-.006-.012-.01-.016l.01-.004-.01-.015c.003 0 .006-.003.01-.003l-.01-.015.01-.004-.01-.016.01-.002-.01-.015.01-.005c-.004-.004-.006-.01-.01-.015l.01-.002-.01-.015.01-.005c-.004-.004-.006-.01-.01-.015l.01-.002-.01-.015c.003-.003.006-.003.01-.005-.004-.004-.006-.01-.01-.015l.01-.002-.01-.016.01-.004c-.004-.004-.006-.01-.01-.015l.01-.002-.01-.017a.136.136 0 0 1 .01-.003c-.004-.004-.006-.01-.01-.015l.01-.004-.01-.015a.136.136 0 0 1 .01-.003c-.004-.004-.006-.011-.01-.015l.01-.004-.01-.015.01-.003c-.004-.004-.006-.011-.01-.016a.136.136 0 0 1 .01-.003l-.01-.015a.09.09 0 0 1 .01-.003l-.01-.016.01-.003c-.013-.015-.017-.031-.029-.047l-.002-.004c-.079-.105-.135-.214-.193-.323l-.005-.005c-.041-.079-.087-.155-.118-.234v-.004a1.955 1.955 0 0 1-.105-.367l-.002-.007c-.007-.038-.027-.076-.033-.116l.01-.032c-.01-.083-.04-.166-.04-.25V5.193a.362.362 0 0 1 0-.045.332.332 0 0 1 0-.044.344.344 0 0 1 0-.045.344.344 0 0 1 0-.045.327.327 0 0 1 0-.043.362.362 0 0 1 0-.046.327.327 0 0 1 0-.044.347.347 0 0 1 0-.045.344.344 0 0 1 0-.045.345.345 0 0 1 0-.044.344.344 0 0 1 0-.045.33.33 0 0 1 0-.044.344.344 0 0 1 0-.045.345.345 0 0 1 0-.044.347.347 0 0 1 0-.045.347.347 0 0 1 0-.045.327.327 0 0 1 0-.044.362.362 0 0 1 0-.046.327.327 0 0 1 0-.043.347.347 0 0 1 0-.045.344.344 0 0 1 0-.045v-.032c-.917-.23-1.82-.517-2.64-.905a11.157 11.157 0 0 1-1.622-.926C5.726 1.723 5.068.997 4.784.288 4.732.16 4.558.058 4.335.026a1.044 1.044 0 0 0-.152-.011.835.835 0 0 0-.456.121" mask="url(#M)"/></g><g transform="translate(28.032 35.613)"><mask id="P" fill="#fff"><use xlink:href="#N"/></mask><path fill="url(#O)" d="M3.727.136c-.99.657-1.83 1.42-2.498 2.269-.22.277-.418.564-.592.852-.246.406-.475.784-.584 1.234-.01.035-.005.069-.011.103-.153 1.016 1.983 2.412 4.551 3.089 2.498.66 5.17.662 6.874.016-.016-.018-.024-.038-.039-.058-.044-.061-.081-.122-.12-.183v-.003a2.302 2.302 0 0 1-.204-.4c-.002-.002-.003-.006-.004-.01a2.043 2.043 0 0 1-.14-.664c0-.023-.011-.046-.011-.07V5.192a.362.362 0 0 1 0-.045.332.332 0 0 1 0-.044.344.344 0 0 1 0-.045.344.344 0 0 1 0-.045.327.327 0 0 1 0-.043.362.362 0 0 1 0-.046.327.327 0 0 1 0-.044.347.347 0 0 1 0-.045.344.344 0 0 1 0-.045.345.345 0 0 1 0-.044.344.344 0 0 1 0-.045.33.33 0 0 1 0-.044.344.344 0 0 1 0-.045.345.345 0 0 1 0-.044.347.347 0 0 1 0-.045.347.347 0 0 1 0-.045.327.327 0 0 1 0-.044.362.362 0 0 1 0-.046.327.327 0 0 1 0-.043.347.347 0 0 1 0-.045.344.344 0 0 1 0-.045v-.032c-.917-.23-1.82-.517-2.64-.905a11.157 11.157 0 0 1-1.622-.926C5.726 1.723 5.068.997 4.784.288 4.732.16 4.558.058 4.335.026a1.044 1.044 0 0 0-.152-.011.835.835 0 0 0-.456.121" mask="url(#P)"/></g><g transform="translate(49.512 39.973)"><mask id="S" fill="#fff"><use xlink:href="#Q"/></mask><path fill="url(#R)" d="M.984.452v.423a.202.202 0 0 1 0 .037.181.181 0 0 1 0 .036.206.206 0 0 1 0 .037.18.18 0 0 1 0 .035.204.204 0 0 1 0 .037.181.181 0 0 1 0 .035.202.202 0 0 1 0 .037.192.192 0 0 1 0 .036.193.193 0 0 1 0 .036.192.192 0 0 1 0 .036.192.192 0 0 1 0 .036.19.19 0 0 1 0 .036.195.195 0 0 1 0 .036.192.192 0 0 1 0 .036.192.192 0 0 1 0 .036.192.192 0 0 1 0 .036.192.192 0 0 1 0 .036.192.192 0 0 1 0 .036.192.192 0 0 1 0 .036.193.193 0 0 1 0 .037.192.192 0 0 1 0 .036.192.192 0 0 1 0 .036.192.192 0 0 1 0 .036.204.204 0 0 1 0 .037.181.181 0 0 1 0 .035.202.202 0 0 1 0 .037.181.181 0 0 1 0 .035.204.204 0 0 1 0 .037.181.181 0 0 1 0 .035.202.202 0 0 1 0 .037c.002.1-.032.201-.046.302.002.014.01.028.013.043-.01.057-.033.113-.046.168v.003c-.017.06-.028.122-.05.183l-.002.003a2.339 2.339 0 0 1-.25.495c-.03.048-.067.096-.103.144l-.002.003c-.081.109-.184.211-.284.314-.066.067-.116.135-.19.2l-.013.014c.006 0 .01.003.016.003l-.016.017c.006 0 .01.002.016.003l-.016.017c.006 0 .01.002.016.003L.01 3.89c.006 0 .01.002.017.005L.01 3.91a.073.073 0 0 1 .016.004c-.005.004-.01.011-.016.015a.073.073 0 0 1 .016.005l-.016.015a.065.065 0 0 1 .016.005l-.016.015a.059.059 0 0 1 .016.004c-.005.005-.01.011-.016.015a.073.073 0 0 1 .016.005l-.016.015a.083.083 0 0 1 .016.004l-.016.016a.059.059 0 0 1 .016.004c-.005.004-.01.011-.016.015.006.001.01.004.017.005l-.017.015a.132.132 0 0 0 .016.004l-.016.016a.111.111 0 0 0 .016.004c-.005.004-.01.011-.016.015a.129.129 0 0 0 .016.005l-.016.015a.163.163 0 0 0 .016.004c-.005.005-.01.012-.016.016a.174.174 0 0 0 .016.004l-.016.015a.08.08 0 0 0 .016.005l-.016.015a.136.136 0 0 0 .016.004l-.016.016c.006.002.01.004.017.004-.006.006-.01.011-.017.016.006.001.01.004.016.004a.103.103 0 0 1-.016.016c.006.001.01.003.016.003a.104.104 0 0 1-.016.017c.006 0 .01.003.016.003a.098.098 0 0 1-.016.016c.006.002.01.004.016.004a.1.1 0 0 1-.016.016c.006.001.01.003.016.003a.097.097 0 0 1-.016.017c.006.001.01.003.016.003a.097.097 0 0 1-.016.016c.006.002.01.004.016.004a.103.103 0 0 1-.016.016c.006.001.01.003.017.003l-.017.018c.006 0 .01.002.016.003l-.016.016c.006 0 .01.003.016.004l-.016.016c.006 0 .01.002.016.004l-.016.016a15.08 15.08 0 0 1 3.617 1.155 11.2 11.2 0 0 1 1.62.929c.961.666 1.62 1.394 1.905 2.102.051.126.22.224.437.26.351-.176.705-.35 1.038-.543.302-.174.572-.359.848-.541a9.938 9.938 0 0 0 1.23-1.291c.22-.28.42-.566.593-.854.245-.406.475-.785.585-1.235.008-.035.004-.068.01-.102l-.002-.008.001-.012c.001-.002-.001-.004-.001-.008l.001-.012c.001-.002-.001-.004-.001-.007l.001-.012c.001-.002-.001-.005-.001-.008l.001-.012c.001-.002-.001-.005-.001-.009l.001-.01c.001-.003-.001-.006-.001-.01l.001-.01c.001-.002-.001-.006-.001-.01l.001-.01c.001-.002-.001-.006-.001-.009l.001-.01c.001-.003-.001-.006-.001-.01l.001-.01c.001-.003-.001-.006-.001-.01l.001-.01c.001-.002-.001-.005-.001-.009l.001-.01c.001-.003-.001-.006-.001-.01l.001-.01c.001-.003-.001-.007-.001-.009l.001-.01c.001-.004-.001-.008-.001-.01l.001-.01c.001-.004-.001-.007-.001-.01l.001-.01c.001-.003-.001-.007-.001-.009l.001-.01c.001-.004-.001-.008-.001-.01l.001-.01c.001-.004-.001-.007-.001-.01l.001-.01c.001-.004-.001-.007-.001-.009l.001-.01c.001-.004-.001-.007-.001-.01l.001-.012c.001-.003-.001-.005-.001-.007l.001-.012c.001-.004-.001-.006-.001-.008l.001-.012c.001-.003-.001-.005-.001-.008l.001-.012c.001-.003-.001-.005-.001-.007l.001-.012c.001-.003-.001-.006-.001-.008l.001-.012c.001-.003-.001-.005-.001-.008l.001-.012c.001-.003-.001-.005-.001-.007l.001-.012c.001-.004-.001-.006-.001-.008l.001-.013c.001-.002-.001-.004-.001-.008l.001-.012c.001-.002-.001-.004-.001-.007l.001-.012c.001-.003-.001-.005-.001-.008l.001-.012C12.046 2.695 9.91 1.3 7.342.622A14.787 14.787 0 0 0 3.619.13c-.97 0-1.872.108-2.635.322" mask="url(#S)"/></g><g transform="translate(49.512 39.973)"><mask id="V" fill="#fff"><use xlink:href="#T"/></mask><path fill="url(#U)" d="M.984.452v.423a.202.202 0 0 1 0 .037.181.181 0 0 1 0 .036.206.206 0 0 1 0 .037.18.18 0 0 1 0 .035.204.204 0 0 1 0 .037.181.181 0 0 1 0 .035.202.202 0 0 1 0 .037.192.192 0 0 1 0 .036.193.193 0 0 1 0 .036.192.192 0 0 1 0 .036.192.192 0 0 1 0 .036.19.19 0 0 1 0 .036.195.195 0 0 1 0 .036.192.192 0 0 1 0 .036.192.192 0 0 1 0 .036.192.192 0 0 1 0 .036.192.192 0 0 1 0 .036.192.192 0 0 1 0 .036.192.192 0 0 1 0 .036.193.193 0 0 1 0 .037.192.192 0 0 1 0 .036.192.192 0 0 1 0 .036.192.192 0 0 1 0 .036.204.204 0 0 1 0 .037.181.181 0 0 1 0 .035.202.202 0 0 1 0 .037.181.181 0 0 1 0 .035.204.204 0 0 1 0 .037.181.181 0 0 1 0 .035.202.202 0 0 1 0 .037c.001.03-.013.061-.013.092-.006.144-.03.286-.068.428-.012.048-.015.096-.03.144l-.003.004c-.061.18-.153.356-.266.53-.03.047-.066.09-.1.138a3.25 3.25 0 0 1-.398.442.008.008 0 0 0-.005.004c-.028.025-.049.05-.077.076H.023l-.013.014c1.256.234 2.5.63 3.617 1.156.594.28 1.14.593 1.62.928.961.666 1.62 1.394 1.905 2.103.051.128.226.23.449.263.221.03.457-.01.607-.112.99-.657 1.83-1.42 2.498-2.267.22-.28.42-.566.592-.854.245-.405.475-.784.585-1.234.008-.035.004-.068.01-.103C12.045 2.695 9.91 1.3 7.341.622A14.787 14.787 0 0 0 3.619.13c-.97 0-1.872.108-2.635.322" mask="url(#V)"/></g><g transform="translate(28.84 43.365)"><mask id="Y" fill="#fff"><use xlink:href="#W"/></mask><path fill="url(#X)" d="M7.196 1.268a19.56 19.56 0 0 1-2.2.345c-1.478.145-2.896.109-4.101-.105a.951.951 0 0 0-.619.091.321.321 0 0 0-.154.188c-.003.006.001.011 0 .018-.003.007.001.013 0 .02-.003.006.001.013 0 .02-.003.006.001.012 0 .019-.003.006.001.013 0 .02-.003.006.001.013 0 .02-.003.006.001.011 0 .018-.003.006.001.013 0 .02-.003.006.001.012 0 .018-.003.007.001.013 0 .02-.003.006.001.013 0 .02-.003.006.001.012 0 .02-.003.006.001.012 0 .019-.003.006.001.013 0 .02-.003.006.001.011 0 .018-.003.006.001.013 0 .02-.003.006.001.012 0 .018-.003.007.001.013 0 .02-.003.006.001.013 0 .02-.003.006.001.012 0 .02-.003.006.001.012 0 .019-.003.006.001.013 0 .02-.003.006.001.012 0 .018-.003.007.001.013 0 .02-.003.006.001.012 0 .018-.003.007.001.013 0 .02-.003.007.001.013 0 .02-.003.006.001.013 0 .02-.003.006.001.012 0 .019-.003.006.001.013 0 .02a.208.208 0 0 0 .018.192c.365.612.861 1.212 1.476 1.792.296.198.59.397.913.583 1.417.819 3.005 1.476 4.696 1.98a14.23 14.23 0 0 0 4.669-.999c2.23-.918 3.562-2.251 3.444-3.426-.002-.007 0-.013 0-.02-.002-.006 0-.013 0-.02-.002-.006 0-.013 0-.019-.002-.007 0-.013 0-.02-.002-.006 0-.013 0-.02-.002-.006 0-.012 0-.018-.002-.007 0-.013 0-.02-.002-.006 0-.012 0-.018-.002-.007 0-.013 0-.02-.002-.006 0-.013 0-.02-.002-.006 0-.013 0-.02-.002-.006 0-.012 0-.019-.002-.006 0-.013 0-.02-.002-.006 0-.013 0-.018-.002-.006 0-.013 0-.02-.002-.006 0-.012 0-.018-.002-.007 0-.014 0-.02-.002-.007 0-.013 0-.02-.002-.006 0-.013 0-.02-.002-.006 0-.012 0-.019-.002-.006 0-.013 0-.02-.002-.006 0-.013 0-.018-.002-.007 0-.013 0-.02-.002-.007 0-.012 0-.018-.002-.007 0-.014 0-.02-.002-.007 0-.013 0-.02-.002-.006 0-.013 0-.02-.002-.006 0-.012 0-.019-.002-.007 0-.013 0-.02-.002-.006 0-.013 0-.018-.002-.007 0-.013 0-.02-1.28-.073-2.526-.392-3.508-.958A4.2 4.2 0 0 1 10.731.04c-.975.51-2.192.934-3.535 1.229" mask="url(#Y)"/></g><g transform="translate(28.84 43.365)"><mask id="ab" fill="#fff"><use xlink:href="#Z"/></mask><path fill="url(#aa)" d="M7.196 1.268a19.56 19.56 0 0 1-2.2.345c-1.478.145-2.896.109-4.101-.105a.951.951 0 0 0-.619.091c-.16.097-.212.235-.136.361.493.825 1.22 1.628 2.16 2.388.307.249.638.493.982.723.487.327.942.631 1.562.913.046.022.1.037.149.055 1.446.587 4.604.22 6.9-.723 2.23-.918 3.563-2.252 3.445-3.427-1.28-.073-2.526-.392-3.508-.958A4.2 4.2 0 0 1 10.731.04c-.975.51-2.192.934-3.535 1.229" mask="url(#ab)"/></g><g transform="translate(41.437 43.85)"><mask id="ae" fill="#fff"><use xlink:href="#ac"/></mask><path fill="url(#ad)" d="M7.38.451c-1.223.706-2.863 1.023-4.464.96l.004.019h-.004l.004.02h-.004l.004.019h-.004l.004.02h-.004l.004.02h-.004l.004.019h-.004l.004.019h-.004l.004.02h-.004l.004.018h-.004l.004.02h-.004l.004.02h-.004l.004.019h-.004l.004.02h-.004l.004.019h-.004l.004.019h-.004l.004.02h-.004l.004.018h-.004l.004.02h-.004l.004.02h-.004l.004.019h-.004l.004.02h-.004l.004.02h-.004l.004.018h-.004l.004.02h-.004l.004.018h-.004l.004.02h-.004l.004.02h-.004l.004.019h-.004l.004.02h-.004l.004.02h-.004l.004.018h-.004c.12.32.186.656.212 1a4 4 0 0 1-.131.786 4.7 4.7 0 0 1-.576 1.271c-.519.813-1.279 1.504-2.198 1.999a.35.35 0 0 0-.173.183c-.002.006.002.013 0 .02-.002.006.002.013 0 .019s.002.013 0 .02c-.002.005.002.012 0 .018-.002.006.002.013 0 .02-.002.006.002.013 0 .02-.002.006.002.012 0 .019-.002.006.002.013 0 .02-.002.006.002.013 0 .02-.002.005.002.012 0 .018-.002.006.002.013 0 .02-.002.005.002.012 0 .018 3.558.36 7.253.135 10.621-.68a3.563 3.563 0 0 0 .782-2.123v-.579a3.275 3.275 0 0 0-.043-.62C11.145 1.904 9.806.567 7.982.036a4.787 4.787 0 0 1-.602.415" mask="url(#ae)"/></g><g transform="translate(41.437 43.85)"><mask id="ah" fill="#fff"><use xlink:href="#af"/></mask><path fill="url(#ag)" d="M7.38.451c-1.223.706-2.863 1.023-4.464.96.28.745.31 1.565.081 2.387a4.7 4.7 0 0 1-.576 1.271c-.519.813-1.279 1.504-2.198 1.999-.169.09-.234.228-.17.356.012.026.047.044.07.065 3.21.318 6.524.156 9.613-.482 1.197-.677 1.907-2.15 1.674-3.526C11.145 1.904 9.806.567 7.982.036a4.787 4.787 0 0 1-.602.415" mask="url(#ah)"/></g></g></svg>