<svg xmlns="http://www.w3.org/2000/svg" xmlns:xlink="http://www.w3.org/1999/xlink" width="90" height="90" viewBox="0 0 90 90"><title>3</title><defs><path id="a" d="M40.563.158c-4.597.005-9.186 1.018-12.689 3.04L5.265 16.252c-3.528 2.036-5.28 4.71-5.262 7.384H.001v7.37h.002c.017 2.654 1.78 5.308 5.294 7.337l22.66 13.082c3.528 2.036 8.15 3.056 12.768 3.058h.018c4.604-.001 9.202-1.015 12.711-3.041L76.062 38.39c3.53-2.039 5.281-4.71 5.264-7.384h.003v-7.37h-.003c-.017-2.654-1.78-5.308-5.294-7.338L53.372 3.215C49.853 1.182 45.242.163 40.633.158h-.07z"/><linearGradient id="b" x1="205.729%" x2="19.628%" y1="43.597%" y2="51.249%"><stop offset="0%" stop-color="#00C6FB"/><stop offset="100%" stop-color="#005BEA"/></linearGradient><path id="d" d="M40.563.158c-4.597.005-9.186 1.018-12.689 3.04L5.265 16.252c-7.032 4.06-7.018 10.652.032 14.722l22.66 13.08c7.05 4.071 18.465 4.08 25.497.018L76.062 31.02c7.035-4.059 7.02-10.651-.03-14.722L53.372 3.215C49.853 1.182 45.242.163 40.633.158h-.07z"/><linearGradient id="e" x1="205.729%" x2="19.628%" y1="45.217%" y2="50.933%"><stop offset="0%" stop-color="#00C6FB"/><stop offset="100%" stop-color="#005BEA"/></linearGradient><path id="g" d="M21.616 2.532L4.121 12.633c-5.442 3.141-5.43 8.242.023 11.391L21.68 34.15c5.455 3.149 14.29 3.155 19.73.014l17.495-10.101c5.443-3.144 5.433-8.242-.023-11.394L41.347 2.543C38.616.967 35.037.178 31.462.178c-3.567 0-7.129.784-9.846 2.354"/><linearGradient id="h" x1="205.729%" x2="19.628%" y1="45.216%" y2="50.933%"><stop offset="0%" stop-color="#6AE0FF"/><stop offset="100%" stop-color="#116DFF"/></linearGradient><path id="j" d="M21.616 2.532L4.121 12.633C.754 14.576-.521 17.271.285 19.787c.495-1.54 1.772-3.014 3.836-4.206L21.616 5.48c5.44-3.144 14.276-3.138 19.73.011l17.536 10.127c2.08 1.2 3.363 2.683 3.86 4.235.81-2.522-.473-5.228-3.86-7.185L41.347 2.543C38.616.967 35.037.178 31.462.178c-3.567 0-7.129.784-9.846 2.354"/><path id="l" d="M.178 1.402c0 1.235.868 2.74 1.942 3.36l16.754 9.672c1.07.619 1.94.118 1.94-1.117 0-1.235-.87-2.737-1.942-3.356L2.12.288c-.313-.18-.61-.266-.87-.266C.614.022.178.527.178 1.402"/><linearGradient id="m" x1="1.733%" x2="97.536%" y1="50%" y2="50%"><stop offset="0%" stop-color="#21B2B2"/><stop offset="100%" stop-color="#6FECC9"/></linearGradient><path id="o" d="M.178 1.402c0 1.235.868 2.74 1.942 3.36l16.754 9.672c.98.564 1.782.187 1.913-.826-.085-.037-.168-.07-.255-.118L3.778 3.818c-1.074-.62-1.942-2.125-1.942-3.36 0-.104.015-.196.028-.288a1.592 1.592 0 0 0-.617-.138C.613.032.178.53.178 1.402"/></defs><g fill="none" fill-rule="evenodd"><g transform="translate(4 17.203)"><mask id="c" fill="#fff"><use xlink:href="#a"/></mask><path fill="url(#b)" fill-rule="nonzero" d="M40.563.158c-4.597.005-9.186 1.018-12.689 3.04L5.265 16.252c-3.528 2.036-5.28 4.71-5.262 7.384H.001v7.37h.002c.017 2.654 1.78 5.308 5.294 7.337l22.66 13.082c3.528 2.036 8.15 3.056 12.768 3.058h.018c4.604-.001 9.202-1.015 12.711-3.041L76.062 38.39c3.53-2.039 5.281-4.71 5.264-7.384h.003v-7.37h-.003c-.017-2.654-1.78-5.308-5.294-7.338L53.372 3.215C49.853 1.182 45.242.163 40.633.158h-.07z" mask="url(#c)"/></g><g fill-rule="nonzero"><path fill="#3BFFD8" d="M80.062 48.197L57.454 61.249c-7.032 4.062-18.448 4.053-25.497-.017L9.297 48.148c-3.337-1.926-5.078-4.416-5.26-6.938-.204 2.813 1.536 5.666 5.26 7.813l22.66 13.083c7.05 4.071 18.465 4.08 25.497.018l22.608-13.052c3.705-2.139 5.434-4.98 5.23-7.784-.182 2.513-1.91 4.991-5.23 6.909"/><path fill="#0070ED" d="M80.062 54.717L57.454 67.769c-7.032 4.062-18.448 4.053-25.497-.017L9.297 54.67c-3.337-1.929-5.078-4.419-5.26-6.938-.204 2.81 1.536 5.663 5.26 7.813l22.66 13.08c7.05 4.071 18.465 4.08 25.497.018l22.608-13.052c3.705-2.139 5.434-4.98 5.23-7.784-.182 2.513-1.91 4.995-5.23 6.909"/><path fill="#41FFEA" d="M80.062 51.948L57.454 65c-7.032 4.061-18.448 4.053-25.497-.018L9.297 51.9c-3.337-1.926-5.078-4.416-5.26-6.938-.204 2.813 1.536 5.665 5.26 7.813l22.66 13.083c7.05 4.07 18.465 4.08 25.497.018l22.608-13.052c3.705-2.139 5.434-4.98 5.23-7.784-.182 2.513-1.91 4.991-5.23 6.909"/><path fill="#6AFEFF" d="M9.297 51.899l22.66 13.083c7.05 4.07 18.465 4.08 25.498.018l22.607-13.052c3.287-1.897 5.008-4.347 5.22-6.834a6.09 6.09 0 0 0 .01-.827c-.182 2.51-1.91 4.992-5.23 6.91l-22.607 13.05c-7.033 4.06-18.449 4.054-25.498-.017L9.297 51.147c-3.337-1.925-5.078-4.418-5.26-6.937a6.2 6.2 0 0 0 .012.829c.213 2.493 1.946 4.954 5.248 6.86"/></g><g transform="translate(4 17.203)"><mask id="f" fill="#fff"><use xlink:href="#d"/></mask><path fill="url(#e)" fill-rule="nonzero" d="M40.563.158c-4.597.005-9.186 1.018-12.689 3.04L5.265 16.252c-7.032 4.06-7.018 10.652.032 14.722l22.66 13.08c7.05 4.071 18.465 4.08 25.497.018L76.062 31.02c7.035-4.059 7.02-10.651-.03-14.722L53.372 3.215C49.853 1.182 45.242.163 40.633.158h-.07z" mask="url(#f)"/></g><g transform="translate(13.151 19.544)"><mask id="i" fill="#fff"><use xlink:href="#g"/></mask><path fill="url(#h)" fill-rule="nonzero" d="M21.616 2.532L4.121 12.633c-5.442 3.141-5.43 8.242.023 11.391L21.68 34.15c5.455 3.149 14.29 3.155 19.73.014l17.495-10.101c5.443-3.144 5.433-8.242-.023-11.394L41.347 2.543C38.616.967 35.037.178 31.462.178c-3.567 0-7.129.784-9.846 2.354" mask="url(#i)"/></g><path fill="#70FEFB" fill-rule="nonzero" d="M17.272 32.254l17.496-10.101c5.44-3.143 14.275-3.138 19.73.012l17.536 10.124c2.514 1.454 3.856 3.32 4.057 5.216.238-2.225-1.105-4.502-4.057-6.206L54.498 21.174c-5.455-3.149-14.29-3.155-19.73-.011L17.272 31.261c-2.935 1.696-4.268 3.959-4.034 6.178.201-1.888 1.537-3.742 4.034-5.185"/><g transform="translate(13.151 19.544)"><mask id="k" fill="#fff"><use xlink:href="#j"/></mask><path d="M21.616 2.532L4.121 12.633C.754 14.576-.521 17.271.285 19.787c.495-1.54 1.772-3.014 3.836-4.206L21.616 5.48c5.44-3.144 14.276-3.138 19.73.011l17.536 10.127c2.08 1.2 3.363 2.683 3.86 4.235.81-2.522-.473-5.228-3.86-7.185L41.347 2.543C38.616.967 35.037.178 31.462.178c-3.567 0-7.129.784-9.846 2.354" mask="url(#k)"/></g><g transform="translate(11.449 51.893)"><mask id="n" fill="#fff"><use xlink:href="#l"/></mask><path fill="url(#m)" fill-rule="nonzero" d="M.178 1.402c0 1.235.868 2.74 1.942 3.36l16.754 9.672c1.07.619 1.94.118 1.94-1.117 0-1.235-.87-2.737-1.942-3.356L2.12.288c-.313-.18-.61-.266-.87-.266C.614.022.178.527.178 1.402" mask="url(#n)"/></g><g transform="translate(11.449 51.893)"><mask id="p" fill="#fff"><use xlink:href="#o"/></mask><path d="M.178 1.402c0 1.235.868 2.74 1.942 3.36l16.754 9.672c.98.564 1.782.187 1.913-.826-.085-.037-.168-.07-.255-.118L3.778 3.818c-1.074-.62-1.942-2.125-1.942-3.36 0-.104.015-.196.028-.288a1.592 1.592 0 0 0-.617-.138C.613.032.178.53.178 1.402" mask="url(#p)"/></g><g fill="#43FFEB" fill-rule="nonzero"><path d="M23.61 36.276l5.016 2.899 16.15-9.324-5.018-2.9-16.148 9.325zm6.2 3.581l5.018 2.896 10.41-6.01-5.017-2.897-10.41 6.011zm31.816 3.112l-13.214 7.628 5.018 2.897 13.213-7.629-5.017-2.896zm-19.414 4.047l5.016 2.897 16.15-9.322-5.018-2.899-16.148 9.324zm-6.2-3.578l5.015 2.896 6.608-3.814-5.017-2.899-6.607 3.817z"/><path d="M23.61 36.276l5.016 2.899 2.43-1.405-5.017-2.896-2.43 1.402zm6.2 3.581l5.018 2.896 2.43-1.402-5.018-2.896-2.43 1.402zm21.032 9.339l-2.43 1.401 5.018 2.897 2.43-1.402-5.018-2.896zm-8.63-2.18l5.016 2.896 2.43-1.402-5.017-2.895-2.43 1.402zm-6.2-3.578l5.015 2.896 2.431-1.402-5.017-2.898-2.43 1.404z"/></g></g></svg>