<?xml version="1.0" encoding="UTF-8"?>
<svg width="25px" height="25px" viewBox="0 0 25 25" version="1.1" xmlns="http://www.w3.org/2000/svg" xmlns:xlink="http://www.w3.org/1999/xlink">
    <title>主机</title>
    <g id="页面-1" stroke="none" stroke-width="1" fill="none" fill-rule="evenodd">
        <g id="故障定位" transform="translate(-393.000000, -904.000000)" fill-rule="nonzero">
            <g id="主机" transform="translate(393.000000, 904.000000)">
                <path d="M11.6736831,1 L11.6736831,3.27368608 L2.8947384,7.88420632 L2.8947384,18.1157937 L11.6736831,22.7263139 L11.6736831,25 L1,19.3789625 L1,6.62103752 L11.6736831,1 Z M14.3263169,1 L25,6.62103752 L25,19.3789625 L14.3263169,25 L14.3263169,22.7263139 L23.1052616,18.1157937 L23.1052616,7.88420632 L14.3263169,3.27368608 L14.3263169,1 Z M21.5263228,14.3263169 L21.5263228,17.1684245 L13.6947473,20.9579013 L13.6947473,17.9263198 L21.5263228,14.3263169 Z M4.4736772,14.3263169 L12.3052527,17.9263198 L12.3052527,20.9579013 L4.4736772,17.1684245 L4.4736772,14.3263169 Z M10.0947443,17.6736979 C9.65261896,17.5473722 9.27367128,17.8631718 9.27367128,18.3052675 C9.27367128,18.7473633 9.65261896,19.1894886 10.0947443,19.2526367 C10.5368401,19.3789625 10.9157878,19.0631925 10.9157878,18.6210671 C10.9157878,18.1789418 10.5368697,17.8000237 10.0947443,17.6736979 Z M21.5263228,9.8420928 L21.5263228,12.9368519 L13.6947473,16.663151 L13.6947473,13.4420958 L21.5263228,9.8420928 Z M4.4736772,9.8420928 L12.3052527,13.4420958 L12.3052527,16.600003 L4.4736772,12.9368519 L4.4736772,9.8420928 Z M10.0947443,13.2526219 C9.65261896,13.1263258 9.27367128,13.4421254 9.27367128,13.8842211 C9.27367128,14.3263169 9.65261896,14.7684126 10.0947443,14.8315903 C10.5368401,14.9578865 10.9157878,14.6420869 10.9157878,14.1999911 C10.9157878,13.7578954 10.5368697,13.3789181 10.0947443,13.2526219 Z M13,4.72629912 L21.1473751,8.76842744 L13,12.2421046 L4.85262488,8.76842744 L13,4.72629912 Z" id="形状结合" fill="#0063FF"></path>
                <path d="M10.6736831,0 L10.6736831,2.27368608 L1.8947384,6.88420632 L1.8947384,17.1157937 L10.6736831,21.7263139 L10.6736831,24 L0,18.3789625 L0,5.62103752 L10.6736831,0 Z M13.3263169,0 L24,5.62103752 L24,18.3789625 L13.3263169,24 L13.3263169,21.7263139 L22.1052616,17.1157937 L22.1052616,6.88420632 L13.3263169,2.27368608 L13.3263169,0 Z M3.4736772,13.3263169 L11.3052527,16.9263198 L11.3052527,19.9579013 L3.4736772,16.1684245 L3.4736772,13.3263169 Z M9.09474432,16.6736979 C8.65261896,16.5473722 8.27367128,16.8631718 8.27367128,17.3052675 C8.27367128,17.7473633 8.65261896,18.1894886 9.09474432,18.2526367 C9.53684008,18.3789625 9.91578776,18.0631925 9.91578776,17.6210671 C9.91578776,17.1789418 9.53686968,16.8000237 9.09474432,16.6736979 Z M3.4736772,8.8420928 L11.3052527,12.4420958 L11.3052527,15.600003 L3.4736772,11.9368519 L3.4736772,8.8420928 Z M9.09474432,12.2526219 C8.65261896,12.1263258 8.27367128,12.4421254 8.27367128,12.8842211 C8.27367128,13.3263169 8.65261896,13.7684126 9.09474432,13.8315903 C9.53684008,13.9578865 9.91578776,13.6420869 9.91578776,13.1999911 C9.91578776,12.7578954 9.53686968,12.3789181 9.09474432,12.2526219 Z" id="形状结合" fill="#D3E4FF"></path>
                <polygon id="路径" fill="#FFFFFF" points="12 3.72629912 3.85262488 7.76842744 12 11.2421046 20.1473751 7.76842744"></polygon>
                <polygon id="路径" fill="#FFFFFF" points="20.5263228 8.8420928 12.6947473 12.4420958 12.6947473 15.663151 20.5263228 11.9368519"></polygon>
                <polygon id="路径" fill="#FFFFFF" points="20.5263228 13.3263169 12.6947473 16.9263198 12.6947473 19.9579013 20.5263228 16.1684245"></polygon>
            </g>
        </g>
    </g>
</svg>