<?xml version="1.0" encoding="UTF-8"?>
<svg width="26px" height="26px" viewBox="0 0 26 26" version="1.1" xmlns="http://www.w3.org/2000/svg" xmlns:xlink="http://www.w3.org/1999/xlink">
    <title>业务系统</title>
    <g id="页面-1" stroke="none" stroke-width="1" fill="none" fill-rule="evenodd">
        <g id="故障定位" transform="translate(-391.000000, -208.000000)" fill-rule="nonzero">
            <g id="yewu" transform="translate(391.000000, 208.000000)">
                <path d="M23.8181818,16.1818182 L26,16.1818182 L26,26 L2,26 L2,16.1818182 L4.18181819,16.1818182 L4.18181819,4.18181819 L8.54545454,4.18181819 L8.54545454,2 L23.8181818,2 L23.8181818,16.1818182 Z M21.6363636,16.1818182 L21.6363636,4.18181819 L10.7272727,4.18181819 L10.7272727,16.1818182 L11.8181818,16.1818182 L11.8181818,18.3636364 L16.1818182,18.3636364 L16.1818182,16.1818182 L21.6363636,16.1818182 Z M8.54545454,16.1818182 L8.54545454,6.36363635 L6.36363635,6.36363635 L6.36363635,16.1818182 L8.54545454,16.1818182 Z M12.9090909,6.36363635 L19.4545455,6.36363635 L19.4545455,8.54545454 L12.9090909,8.54545454 L12.9090909,6.36363635 L12.9090909,6.36363635 Z M12.9090909,10.7272727 L19.4545455,10.7272727 L19.4545455,12.9090909 L12.9090909,12.9090909 L12.9090909,10.7272727 L12.9090909,10.7272727 Z" id="形状" fill="#0063FF"></path>
                <path d="M21.8181818,14.1818182 L24,14.1818182 L24,24 L0,24 L0,14.1818182 L2.18181819,14.1818182 L2.18181819,2.18181819 L6.54545454,2.18181819 L6.54545454,0 L21.8181818,0 L21.8181818,14.1818182 Z M19.6363636,14.1818182 L19.6363636,2.18181819 L8.72727273,2.18181819 L8.72727273,14.1818182 L9.81818181,14.1818182 L9.81818181,16.3636364 L14.1818182,16.3636364 L14.1818182,14.1818182 L19.6363636,14.1818182 Z M6.54545454,14.1818182 L6.54545454,4.36363635 L4.36363635,4.36363635 L4.36363635,14.1818182 L6.54545454,14.1818182 Z" id="形状" fill="#D3E4FF"></path>
                <polygon id="路径" fill="#FFFFFF" points="10.9090909 8.72727273 17.4545455 8.72727273 17.4545455 10.9090909 10.9090909 10.9090909 10.9090909 8.72727273"></polygon>
                <polygon id="路径" fill="#FFFFFF" points="10.9090909 4.36363635 17.4545455 4.36363635 17.4545455 6.54545454 10.9090909 6.54545454 10.9090909 4.36363635"></polygon>
            </g>
        </g>
    </g>
</svg>