<?xml version="1.0" encoding="UTF-8"?>
<svg width="22px" height="24px" viewBox="0 0 22 24" version="1.1" xmlns="http://www.w3.org/2000/svg" xmlns:xlink="http://www.w3.org/1999/xlink">
    <title>服务</title>
    <g id="页面-1" stroke="none" stroke-width="1" fill="none" fill-rule="evenodd">
        <g id="故障定位" transform="translate(-395.000000, -434.000000)" fill-rule="nonzero">
            <g id="编组-6" transform="translate(395.000000, 434.000000)">
                <path d="M1,2 L1,8.30290179 L22,8.30290179 L22,2 L1,2 Z M18.128125,5.9359375 L14.0795673,5.9359375 L14.0795673,4.36696429 L18.130649,4.36696429 L18.130649,5.9359375 L18.128125,5.9359375 Z M1,24 L22,24 L22,17.6970982 L1,17.6970982 L1,24 Z M14.0795673,20.0640625 L18.130649,20.0640625 L18.130649,21.6330357 L14.0795673,21.6330357 L14.0795673,20.0640625 Z M1,16.0544643 L22,16.0544643 L22,9.74910714 L1,9.74910714 L1,16.0544643 L1,16.0544643 Z M14.0795673,12.1160714 L18.130649,12.1160714 L18.130649,13.6875 L14.0795673,13.6875 L14.0795673,12.1160714 Z" id="形状" fill="#0063FF"></path>
                <path d="M0,0 L0,6.30290179 L21,6.30290179 L21,0 L0,0 Z M17.128125,3.9359375 L13.0795673,3.9359375 L13.0795673,2.36696429 L17.130649,2.36696429 L17.130649,3.9359375 L17.128125,3.9359375 Z M0,22 L21,22 L21,15.6970982 L0,15.6970982 L0,22 Z M13.0795673,18.0640625 L17.130649,18.0640625 L17.130649,19.6330357 L13.0795673,19.6330357 L13.0795673,18.0640625 Z" id="形状" fill="#D3E4FF"></path>
                <path d="M21,7.74910714 L21,14.0544643 L0,14.0544643 L0,7.74910714 L21,7.74910714 Z M17.130649,10.1160714 L13.0795673,10.1160714 L13.0795673,11.6875 L17.130649,11.6875 L17.130649,10.1160714 Z" id="形状结合" fill="#FFFFFF"></path>
            </g>
        </g>
    </g>
</svg>