<?xml version="1.0" encoding="UTF-8"?>
<svg width="24px" height="24px" viewBox="0 0 24 24" version="1.1" xmlns="http://www.w3.org/2000/svg" xmlns:xlink="http://www.w3.org/1999/xlink">
    <title>进程</title>
    <g id="页面-1" stroke="none" stroke-width="1" fill="none" fill-rule="evenodd">
        <g id="故障定位" transform="translate(-393.000000, -665.000000)" fill-rule="nonzero">
            <g id="进程" transform="translate(393.000000, 665.000000)">
                <path d="M10.7443239,11.5736988 C10.2761436,10.0435283 8.83301644,8.92630124 7.12750252,8.92630124 C5.42198859,8.92630124 3.97886142,10.0435283 3.51068113,11.5736988 L1,11.5736988 L1,14.360433 L3.77821273,14.360433 C4.40845543,15.5511285 5.67408567,16.3643482 7.12750252,16.3643482 C8.58091936,16.3643482 9.8465496,15.5511285 10.4767923,14.360433 L24,14.360433 L24,11.5736988 L10.7443239,11.5736988 Z M17.8596354,9.43804698 C19.4416732,9.43804698 20.7999105,8.47535698 21.3606979,7.1123906 L23.9974276,7.1123906 L23.9974276,4.32565638 L21.3606979,4.32565638 C20.7999105,2.96269 19.4416732,2 17.8596354,2 C16.2775976,2 14.9193603,2.96269 14.3585729,4.32565638 L1.00257242,4.32565638 L1.00257242,7.1123906 L14.3585729,7.1123906 C14.9193603,8.47282358 16.2775976,9.43804698 17.8596354,9.43804698 L17.8596354,9.43804698 Z M17.8596354,16.561953 C16.2775976,16.561953 14.9193603,17.524643 14.3585729,18.8876094 L1.00514484,18.8876094 L1.00514484,21.6743436 L14.3585729,21.6743436 C14.9193603,23.03731 16.2775976,24 17.8596354,24 C19.4416732,24 20.7999105,23.03731 21.3606979,21.6743436 L23.9974276,21.6743436 L23.9974276,18.8876094 L21.3606979,18.8876094 C20.7999105,17.524643 19.4416732,16.561953 17.8596354,16.561953 L17.8596354,16.561953 Z" id="形状" fill="#0063FF"></path>
                <path d="M16.8596354,7.43804698 C18.4416732,7.43804698 19.7999105,6.47535698 20.3606979,5.1123906 L22.9974276,5.1123906 L22.9974276,2.32565638 L20.3606979,2.32565638 C19.7999105,0.962690005 18.4416732,0 16.8596354,0 C15.2775976,0 13.9193603,0.962690005 13.3585729,2.32565638 L0.00257241919,2.32565638 L0.00257241919,5.1123906 L13.3585729,5.1123906 C13.9193603,6.47282358 15.2775976,7.43804698 16.8596354,7.43804698 L16.8596354,7.43804698 Z M16.8596354,14.561953 C15.2775976,14.561953 13.9193603,15.524643 13.3585729,16.8876094 L0.00514483838,16.8876094 L0.00514483838,19.6743436 L13.3585729,19.6743436 C13.9193603,21.03731 15.2775976,22 16.8596354,22 C18.4416732,22 19.7999105,21.03731 20.3606979,19.6743436 L22.9974276,19.6743436 L22.9974276,16.8876094 L20.3606979,16.8876094 C19.7999105,15.524643 18.4416732,14.561953 16.8596354,14.561953 L16.8596354,14.561953 Z" id="形状" fill="#D3E4FF"></path>
                <path d="M9.7443239,9.57369876 C9.27614361,8.04352833 7.83301644,6.92630124 6.12750252,6.92630124 C4.42198859,6.92630124 2.97886142,8.04352833 2.51068113,9.57369876 L0,9.57369876 L0,12.360433 L2.77821273,12.360433 C3.40845543,13.5511285 4.67408567,14.3643482 6.12750252,14.3643482 C7.58091936,14.3643482 8.8465496,13.5511285 9.47679231,12.360433 L23,12.360433 L23,9.57369876 L9.7443239,9.57369876 Z" id="路径" fill="#FFFFFF"></path>
            </g>
        </g>
    </g>
</svg>