<?xml version="1.0" encoding="UTF-8"?>
<svg width="25px" height="24px" viewBox="0 0 25 24" version="1.1" xmlns="http://www.w3.org/2000/svg" xmlns:xlink="http://www.w3.org/1999/xlink">
    <title>shouqi</title>
    <g id="页面-1" stroke="none" stroke-width="1" fill="none" fill-rule="evenodd">
        <g id="故障定位" transform="translate(-1835.000000, -162.000000)" fill-rule="nonzero">
            <g id="shouqi" transform="translate(1847.500000, 174.000000) scale(-1, 1) translate(-1847.500000, -174.000000) translate(1835.000000, 162.000000)">
                <path d="M0.40957835,11.2596364 L5.59343234,6.86072772 C5.69987263,6.77045128 5.84798228,6.75099967 5.9734344,6.81082111 C6.09888651,6.87064254 6.17909785,6.99894351 6.17909785,7.14000042 L6.17909785,16.4963632 C6.17909785,16.6374202 6.09888651,16.7657211 5.9734344,16.8255426 C5.84798228,16.885364 5.69987263,16.8659124 5.59343234,16.775636 L0.40957835,12.3767272 C0.246853281,12.2385489 0.152778195,12.0339338 0.152778195,11.8181818 C0.152778195,11.6024299 0.246853281,11.3978147 0.40957835,11.2596364 L0.40957835,11.2596364 Z" id="路径" fill="#FFFFFF"></path>
                <path d="M23.9276197,21.8181805 C24.5074623,21.817612 24.9825146,22.2868962 24.9995302,22.8770766 C25.0165457,23.4672569 24.5693484,23.964111 23.9904716,23.9981808 L23.9276197,23.9999995 L1.07238029,23.9999995 C0.492537666,24.000568 0.0174854226,23.5312837 0.000469843048,22.9411034 C-0.0165457365,22.350923 0.430651624,21.854069 1.00952838,21.8199992 L1.07238029,21.8181805 L23.9276197,21.8181805 Z M23.9276197,10.9090905 C24.5074623,10.908522 24.9825146,11.3778063 24.9995302,11.9679866 C25.0165457,12.5581669 24.5693484,13.055021 23.9904716,13.0890908 L23.9276197,13.0909095 L10.3573213,13.0909095 C9.77747868,13.091478 9.30242643,12.6221937 9.28541086,12.0320134 C9.26839528,11.4418331 9.71559264,10.944979 10.2944694,10.9109092 L10.3573213,10.9090905 L23.9276197,10.9090905 Z M23.9276197,5.15981355e-07 C24.5074623,-0.000567989626 24.9825146,0.468716295 24.9995302,1.05889663 C25.0165457,1.64907696 24.5693484,2.14593104 23.9904716,2.18000085 L23.9276197,2.18181954 L1.07238029,2.18181954 C0.492537666,2.18238805 0.0174854226,1.71310376 0.000469843048,1.12292343 C-0.0165457365,0.532743095 0.430651624,0.0358890226 1.00952838,0.00181921456 L1.07238029,5.15981355e-07 L23.9276197,5.15981355e-07 L23.9276197,5.15981355e-07 Z" id="形状" fill="#00FFFC"></path>
            </g>
        </g>
    </g>
</svg>