{
    "asset" : {
        "generator" : "Khronos glTF Blender I/O v1.8.19",
        "version" : "2.0"
    },
    "scene" : 0,
    "scenes" : [
        {
            "name" : "Scene",
            "nodes" : [
                0,
                3
            ]
        }
    ],
    "nodes" : [
        {
            "mesh" : 0,
            "name" : "\u7acb\u65b9\u4f53",
            "translation" : [
                43.7873649597168,
                -1.257955551147461,
                -30.340595245361328
            ]
        },
        {
            "mesh" : 1,
            "name" : "Blades",
            "translation" : [
                -0.076507568359375,
                9.89202880859375,
                2.0526559352874756
            ]
        },
        {
            "mesh" : 2,
            "name" : "Nose (2)",
            "translation" : [
                -0.06884765625,
                9.794570922851562,
                2.038167715072632
            ]
        },
        {
            "children" : [
                1,
                2
            ],
            "mesh" : 3,
            "name" : "Nacelle",
            "rotation" : [
                0.7071068286895752,
                0,
                0,
                0.7071067094802856
            ],
            "scale" : [
                0.13319724798202515,
                0.13319724798202515,
                0.13319724798202515
            ],
            "translation" : [
                43.787349700927734,
                16.40702247619629,
                -30.78671646118164
            ]
        }
    ],
    "materials" : [
        {
            "doubleSided" : true,
            "name" : "\u6750\u8d28",
            "pbrMetallicRoughness" : {
                "baseColorFactor" : [
                    0.8000000715255737,
                    0.24380381405353546,
                    0,
                    1
                ],
                "metallicFactor" : 0,
                "roughnessFactor" : 0.5
            }
        },
        {
            "doubleSided" : true,
            "name" : "\u6750\u8d28.001",
            "pbrMetallicRoughness" : {
                "baseColorFactor" : [
                    0.800000011920929,
                    0.800000011920929,
                    0.800000011920929,
                    1
                ],
                "metallicFactor" : 0,
                "roughnessFactor" : 0.5
            }
        },
        {
            "doubleSided" : true,
            "name" : "White_032Painted_032Metal",
            "pbrMetallicRoughness" : {
                "baseColorFactor" : [
                    0.5,
                    0.5,
                    0.5,
                    1
                ],
                "metallicFactor" : 0,
                "roughnessFactor" : 0
            }
        }
    ],
    "meshes" : [
        {
            "name" : "\u7acb\u65b9\u4f53",
            "primitives" : [
                {
                    "attributes" : {
                        "POSITION" : 0,
                        "NORMAL" : 1,
                        "TEXCOORD_0" : 2
                    },
                    "indices" : 3,
                    "material" : 0
                },
                {
                    "attributes" : {
                        "POSITION" : 4,
                        "NORMAL" : 5,
                        "TEXCOORD_0" : 6
                    },
                    "indices" : 7,
                    "material" : 1
                }
            ]
        },
        {
            "name" : "Blades",
            "primitives" : [
                {
                    "attributes" : {
                        "POSITION" : 8,
                        "NORMAL" : 9,
                        "TEXCOORD_0" : 10
                    },
                    "indices" : 11,
                    "material" : 2
                }
            ]
        },
        {
            "name" : "Nose (2)",
            "primitives" : [
                {
                    "attributes" : {
                        "POSITION" : 12,
                        "NORMAL" : 13,
                        "TEXCOORD_0" : 14
                    },
                    "indices" : 15,
                    "material" : 2
                }
            ]
        },
        {
            "name" : "Nacelle",
            "primitives" : [
                {
                    "attributes" : {
                        "POSITION" : 16,
                        "NORMAL" : 17,
                        "TEXCOORD_0" : 18
                    },
                    "indices" : 19,
                    "material" : 2
                }
            ]
        }
    ],
    "accessors" : [
        {
            "bufferView" : 0,
            "componentType" : 5126,
            "count" : 680,
            "max" : [
                0.7898145318031311,
                3.4646596908569336,
                0.7898144721984863
            ],
            "min" : [
                -0.7898143529891968,
                -0.05980163812637329,
                -0.7898144721984863
            ],
            "type" : "VEC3"
        },
        {
            "bufferView" : 1,
            "componentType" : 5126,
            "count" : 680,
            "type" : "VEC3"
        },
        {
            "bufferView" : 2,
            "componentType" : 5126,
            "count" : 680,
            "type" : "VEC2"
        },
        {
            "bufferView" : 3,
            "componentType" : 5123,
            "count" : 2124,
            "type" : "SCALAR"
        },
        {
            "bufferView" : 4,
            "componentType" : 5126,
            "count" : 131,
            "max" : [
                0.3435443341732025,
                17.123748779296875,
                0.34354424476623535
            ],
            "min" : [
                -0.3435478210449219,
                3.4646596908569336,
                -0.34354424476623535
            ],
            "type" : "VEC3"
        },
        {
            "bufferView" : 5,
            "componentType" : 5126,
            "count" : 131,
            "type" : "VEC3"
        },
        {
            "bufferView" : 6,
            "componentType" : 5126,
            "count" : 131,
            "type" : "VEC2"
        },
        {
            "bufferView" : 7,
            "componentType" : 5123,
            "count" : 474,
            "type" : "SCALAR"
        },
        {
            "bufferView" : 8,
            "componentType" : 5126,
            "count" : 12822,
            "max" : [
                40.578514099121094,
                1.1957534551620483,
                55.52204513549805
            ],
            "min" : [
                -68.3093032836914,
                -1.1959474086761475,
                -62.85116958618164
            ],
            "type" : "VEC3"
        },
        {
            "bufferView" : 9,
            "componentType" : 5126,
            "count" : 12822,
            "type" : "VEC3"
        },
        {
            "bufferView" : 10,
            "componentType" : 5126,
            "count" : 12822,
            "type" : "VEC2"
        },
        {
            "bufferView" : 11,
            "componentType" : 5123,
            "count" : 31104,
            "type" : "SCALAR"
        },
        {
            "bufferView" : 12,
            "componentType" : 5126,
            "count" : 2786,
            "max" : [
                2.3191287517547607,
                3.061829090118408,
                2.7978744506835938
            ],
            "min" : [
                -2.5379812717437744,
                -1.93095064163208,
                -2.7728271484375
            ],
            "type" : "VEC3"
        },
        {
            "bufferView" : 13,
            "componentType" : 5126,
            "count" : 2786,
            "type" : "VEC3"
        },
        {
            "bufferView" : 14,
            "componentType" : 5126,
            "count" : 2786,
            "type" : "VEC2"
        },
        {
            "bufferView" : 15,
            "componentType" : 5123,
            "count" : 16176,
            "type" : "SCALAR"
        },
        {
            "bufferView" : 16,
            "componentType" : 5126,
            "count" : 12145,
            "max" : [
                2.358229160308838,
                7.860224723815918,
                4.411827087402344
            ],
            "min" : [
                -2.5113110542297363,
                -4.994065284729004,
                -2.1192703247070312
            ],
            "type" : "VEC3"
        },
        {
            "bufferView" : 17,
            "componentType" : 5126,
            "count" : 12145,
            "type" : "VEC3"
        },
        {
            "bufferView" : 18,
            "componentType" : 5126,
            "count" : 12145,
            "type" : "VEC2"
        },
        {
            "bufferView" : 19,
            "componentType" : 5123,
            "count" : 50994,
            "type" : "SCALAR"
        }
    ],
    "bufferViews" : [
        {
            "buffer" : 0,
            "byteLength" : 8160,
            "byteOffset" : 0
        },
        {
            "buffer" : 0,
            "byteLength" : 8160,
            "byteOffset" : 8160
        },
        {
            "buffer" : 0,
            "byteLength" : 5440,
            "byteOffset" : 16320
        },
        {
            "buffer" : 0,
            "byteLength" : 4248,
            "byteOffset" : 21760
        },
        {
            "buffer" : 0,
            "byteLength" : 1572,
            "byteOffset" : 26008
        },
        {
            "buffer" : 0,
            "byteLength" : 1572,
            "byteOffset" : 27580
        },
        {
            "buffer" : 0,
            "byteLength" : 1048,
            "byteOffset" : 29152
        },
        {
            "buffer" : 0,
            "byteLength" : 948,
            "byteOffset" : 30200
        },
        {
            "buffer" : 0,
            "byteLength" : 153864,
            "byteOffset" : 31148
        },
        {
            "buffer" : 0,
            "byteLength" : 153864,
            "byteOffset" : 185012
        },
        {
            "buffer" : 0,
            "byteLength" : 102576,
            "byteOffset" : 338876
        },
        {
            "buffer" : 0,
            "byteLength" : 62208,
            "byteOffset" : 441452
        },
        {
            "buffer" : 0,
            "byteLength" : 33432,
            "byteOffset" : 503660
        },
        {
            "buffer" : 0,
            "byteLength" : 33432,
            "byteOffset" : 537092
        },
        {
            "buffer" : 0,
            "byteLength" : 22288,
            "byteOffset" : 570524
        },
        {
            "buffer" : 0,
            "byteLength" : 32352,
            "byteOffset" : 592812
        },
        {
            "buffer" : 0,
            "byteLength" : 145740,
            "byteOffset" : 625164
        },
        {
            "buffer" : 0,
            "byteLength" : 145740,
            "byteOffset" : 770904
        },
        {
            "buffer" : 0,
            "byteLength" : 97160,
            "byteOffset" : 916644
        },
        {
            "buffer" : 0,
            "byteLength" : 101988,
            "byteOffset" : 1013804
        }
    ],
    "buffers" : [
        {
            "byteLength" : 1115792,
            "uri" : "data:application/octet-stream;base64,"
        }
    ]
}
