{
  "accessors": [
    {
      "bufferView": 3,
      "componentType": 5126,
      "count": 448,
      "max": [
        6.826542854309082,
        2.126333475112915,
        9.3011054992675781
      ],
      "min": [
        -7.7552871704101562,
        -2.126333475112915,
        -9.3011054992675781
      ],
      "type": "VEC3"
    },
    {
      "bufferView": 3,
      "byteOffset": 5376,
      "componentType": 5126,
      "count": 448,
      "max": [
        1,
        1,
        1
      ],
      "min": [
        -1,
        -1,
        -1
      ],
      "type": "VEC3"
    },
    {
      "bufferView": 4,
      "componentType": 5126,
      "count": 448,
      "max": [
        1,
        1,
        0.70710694789886475,
        1
      ],
      "min": [
        -1,
        -1,
        -0.7071068286895752,
        1
      ],
      "type": "VEC4"
    },
    {
      "bufferView": 2,
      "componentType": 5126,
      "count": 448,
      "max": [
        0.68391215801239014,
        1.0000002384185791
      ],
      "min": [
        0.0023176670074462891,
        0.10834604501724243
      ],
      "type": "VEC2"
    },
    {
      "bufferView": 1,
      "componentType": 5125,
      "count": 1260,
      "max": [
        447
      ],
      "min": [
        0
      ],
      "type": "SCALAR"
    },
    {
      "bufferView": 3,
      "byteOffset": 10752,
      "componentType": 5126,
      "count": 381,
      "max": [
        6.1797480583190918,
        1.490129797332429e-08,
        8.5355672836303711
      ],
      "min": [
        -7.2450957298278809,
        -1.659831166267395,
        -8.5355672836303711
      ],
      "type": "VEC3"
    },
    {
      "bufferView": 3,
      "byteOffset": 15324,
      "componentType": 5126,
      "count": 381,
      "max": [
        0.98919349908828735,
        1,
        1
      ],
      "min": [
        -5.2114014579274226e-06,
        -3.3900969356182031e-06,
        -1
      ],
      "type": "VEC3"
    },
    {
      "bufferView": 4,
      "byteOffset": 7168,
      "componentType": 5126,
      "count": 381,
      "max": [
        1,
        0.049221228808164597,
        0.36549744009971619,
        1
      ],
      "min": [
        -1,
        -0.65321677923202515,
        -1,
        -1
      ],
      "type": "VEC4"
    },
    {
      "bufferView": 2,
      "byteOffset": 3584,
      "componentType": 5126,
      "count": 381,
      "max": [
        1.0000001192092896,
        0.63135981559753418
      ],
      "min": [
        0.0023176670074462891,
        0.16854977607727051
      ],
      "type": "VEC2"
    },
    {
      "bufferView": 1,
      "byteOffset": 5040,
      "componentType": 5125,
      "count": 1212,
      "max": [
        380
      ],
      "min": [
        0
      ],
      "type": "SCALAR"
    },
    {
      "bufferView": 3,
      "byteOffset": 19896,
      "componentType": 5126,
      "count": 368,
      "max": [
        6.1797480583190918,
        1.659831166267395,
        8.5355672836303711
      ],
      "min": [
        -7.2450957298278809,
        3.227125233706829e-09,
        -8.5355672836303711
      ],
      "type": "VEC3"
    },
    {
      "bufferView": 3,
      "byteOffset": 24312,
      "componentType": 5126,
      "count": 368,
      "max": [
        0.98919355869293213,
        6.4531691350566689e-06,
        1
      ],
      "min": [
        -5.2114014579274226e-06,
        -1,
        -1
      ],
      "type": "VEC3"
    },
    {
      "bufferView": 4,
      "byteOffset": 13264,
      "componentType": 5126,
      "count": 368,
      "max": [
        1,
        0.03705456480383873,
        0.36548501253128052,
        1
      ],
      "min": [
        -1,
        -0.65321677923202515,
        -1,
        1
      ],
      "type": "VEC4"
    },
    {
      "bufferView": 2,
      "byteOffset": 6632,
      "componentType": 5126,
      "count": 368,
      "max": [
        0.9950297474861145,
        0.99844950437545776
      ],
      "min": [
        0.0023176670074462891,
        0.13242971897125244
      ],
      "type": "VEC2"
    },
    {
      "bufferView": 1,
      "byteOffset": 9888,
      "componentType": 5125,
      "count": 1212,
      "max": [
        367
      ],
      "min": [
        0
      ],
      "type": "SCALAR"
    },
    {
      "bufferView": 5,
      "componentType": 5126,
      "count": 5,
      "max": [
        1,
        0.0099999997764825821,
        0,
        0,
        1.2037153808550179e-41,
        1,
        0.0099999997764825821,
        0,
        0.0099999997764825821,
        1.5099580474853269e-09,
        1,
        0,
        1.246504321983366e-08,
        0.06970958411693573,
        0,
        1
      ],
      "min": [
        1.5099580474853269e-09,
        -0.0099999997764825821,
        -0.0099999997764825821,
        0,
        0,
        6.1232339527331096e-19,
        -0.0099999997764825821,
        0,
        0,
        -1.7881391922713874e-09,
        9.245826367012985e-26,
        0,
        -1.030779461785869e-08,
        0,
        -0.06970958411693573,
        1
      ],
      "type": "MAT4"
    },
    {
      "bufferView": 0,
      "componentType": 5123,
      "count": 448,
      "max": [
        3,
        3,
        3,
        3
      ],
      "min": [
        1,
        1,
        3,
        3
      ],
      "type": "VEC4"
    },
    {
      "bufferView": 4,
      "byteOffset": 19152,
      "componentType": 5126,
      "count": 448,
      "max": [
        1,
        0.5,
        0,
        0
      ],
      "min": [
        0.5,
        0,
        0,
        0
      ],
      "type": "VEC4"
    },
    {
      "bufferView": 0,
      "byteOffset": 3584,
      "componentType": 5123,
      "count": 381,
      "max": [
        2,
        2,
        1,
        1
      ],
      "min": [
        1,
        1,
        1,
        1
      ],
      "type": "VEC4"
    },
    {
      "bufferView": 4,
      "byteOffset": 26320,
      "componentType": 5126,
      "count": 381,
      "max": [
        1,
        0.47117620706558228,
        0,
        0
      ],
      "min": [
        0.5288238525390625,
        0,
        0,
        0
      ],
      "type": "VEC4"
    },
    {
      "bufferView": 0,
      "byteOffset": 6632,
      "componentType": 5123,
      "count": 368,
      "max": [
        3,
        3,
        3,
        3
      ],
      "min": [
        2,
        2,
        3,
        3
      ],
      "type": "VEC4"
    },
    {
      "bufferView": 4,
      "byteOffset": 32416,
      "componentType": 5126,
      "count": 368,
      "max": [
        1,
        0.46364021301269531,
        0,
        0
      ],
      "min": [
        0.53635978698730469,
        0,
        0,
        0
      ],
      "type": "VEC4"
    },
    {
      "bufferView": 6,
      "componentType": 5126,
      "count": 292,
      "max": [
        10.375
      ],
      "min": [
        0
      ],
      "type": "SCALAR"
    },
    {
      "bufferView": 7,
      "componentType": 5126,
      "count": 292,
      "max": [
        8.8817841970012523e-16,
        0.036943249404430389,
        1.3877787807814457e-17
      ],
      "min": [
        8.8817841970012523e-16,
        0.036943249404430389,
        -2.7755575615628914e-17
      ],
      "type": "VEC3"
    },
    {
      "bufferView": 6,
      "byteOffset": 1168,
      "componentType": 5126,
      "count": 348,
      "max": [
        10.375
      ],
      "min": [
        0
      ],
      "type": "SCALAR"
    },
    {
      "bufferView": 8,
      "componentType": 5126,
      "count": 348,
      "max": [
        -3.7748968395590055e-08,
        1.2082145417480206e-07,
        -5.6190927466559515e-09,
        1
      ],
      "min": [
        -0.7071068286895752,
        8.1460370893182699e-08,
        -8.9406974268513295e-08,
        0.70710670948028564
      ],
      "type": "VEC4"
    },
    {
      "bufferView": 6,
      "byteOffset": 2560,
      "componentType": 5126,
      "count": 348,
      "max": [
        10.375
      ],
      "min": [
        0
      ],
      "type": "SCALAR"
    },
    {
      "bufferView": 8,
      "byteOffset": 5568,
      "componentType": 5126,
      "count": 348,
      "max": [
        -3.7748950632021661e-08,
        7.5497908369470679e-08,
        1.1106629926871392e-07,
        1
      ],
      "min": [
        -0.7071068286895752,
        -4.2160883673147964e-09,
        8.1460356682327983e-08,
        0.70710670948028564
      ],
      "type": "VEC4"
    }
  ],
  "animations": [
    {
      "channels": [
        {
          "sampler": 0,
          "target": {
            "node": 13,
            "path": "translation"
          }
        },
        {
          "sampler": 1,
          "target": {
            "node": 13,
            "path": "rotation"
          }
        },
        {
          "sampler": 2,
          "target": {
            "node": 12,
            "path": "rotation"
          }
        }
      ],
      "name": "armature_book|armature_bookAction",
      "samplers": [
        {
          "input": 22,
          "interpolation": "LINEAR",
          "output": 23
        },
        {
          "input": 24,
          "interpolation": "LINEAR",
          "output": 25
        },
        {
          "input": 26,
          "interpolation": "LINEAR",
          "output": 27
        }
      ]
    }
  ],
  "asset": {
    "extras": {
      "author": "zoging (https://sketchfab.com/zoging)",
      "license": "CC-BY-4.0 (http://creativecommons.org/licenses/by/4.0/)",
      "source": "https://sketchfab.com/3d-models/book-616e0dd72bf04503a350d774f48a6e6c",
      "title": "Book"
    },
    "generator": "Sketchfab-6.4.0",
    "version": "2.0"
  },
  "bufferViews": [
    {
      "buffer": 0,
      "byteLength": 9576,
      "byteOffset": 0,
      "byteStride": 8,
      "name": "shortBufferViews",
      "target": 34962
    },
    {
      "buffer": 0,
      "byteLength": 14736,
      "byteOffset": 9576,
      "name": "floatBufferViews",
      "target": 34963
    },
    {
      "buffer": 0,
      "byteLength": 9576,
      "byteOffset": 24312,
      "byteStride": 8,
      "name": "floatBufferViews",
      "target": 34962
    },
    {
      "buffer": 0,
      "byteLength": 28728,
      "byteOffset": 33888,
      "byteStride": 12,
      "name": "floatBufferViews",
      "target": 34962
    },
    {
      "buffer": 0,
      "byteLength": 38304,
      "byteOffset": 62616,
      "byteStride": 16,
      "name": "floatBufferViews",
      "target": 34962
    },
    {
      "buffer": 0,
      "byteLength": 320,
      "byteOffset": 100920,
      "byteStride": 64,
      "name": "floatBufferViews"
    },
    {
      "buffer": 0,
      "byteLength": 3952,
      "byteOffset": 101240,
      "name": "floatBufferViews"
    },
    {
      "buffer": 0,
      "byteLength": 3504,
      "byteOffset": 105192,
      "byteStride": 12,
      "name": "floatBufferViews"
    },
    {
      "buffer": 0,
      "byteLength": 11136,
      "byteOffset": 108696,
      "byteStride": 16,
      "name": "floatBufferViews"
    }
  ],
  "buffers": [
    {
      "byteLength": 119832,
      "uri": "scene.bin"
    }
  ],
  "images": [
    {
      "uri": "textures/book_baseColor.png"
    },
    {
      "uri": "textures/book_metallicRoughness.png"
    },
    {
      "uri": "textures/book_normal.png"
    }
  ],
  "materials": [
    {
      "doubleSided": true,
      "emissiveFactor": [
        0,
        0,
        0
      ],
      "name": "book",
      "normalTexture": {
        "index": 2,
        "scale": 1,
        "texCoord": 0
      },
      "pbrMetallicRoughness": {
        "baseColorFactor": [
          1,
          1,
          1,
          1
        ],
        "baseColorTexture": {
          "index": 0,
          "texCoord": 0
        },
        "metallicFactor": 1,
        "metallicRoughnessTexture": {
          "index": 1,
          "texCoord": 0
        },
        "roughnessFactor": 1
      }
    }
  ],
  "meshes": [
    {
      "name": "book_book_0",
      "primitives": [
        {
          "attributes": {
            "JOINTS_0": 16,
            "NORMAL": 1,
            "POSITION": 0,
            "TANGENT": 2,
            "TEXCOORD_0": 3,
            "TEXCOORD_1": 3,
            "TEXCOORD_2": 3,
            "WEIGHTS_0": 17
          },
          "indices": 4,
          "material": 0,
          "mode": 4
        }
      ]
    },
    {
      "name": "pages_book_0",
      "primitives": [
        {
          "attributes": {
            "JOINTS_0": 18,
            "NORMAL": 6,
            "POSITION": 5,
            "TANGENT": 7,
            "TEXCOORD_0": 8,
            "TEXCOORD_1": 8,
            "TEXCOORD_2": 8,
            "WEIGHTS_0": 19
          },
          "indices": 9,
          "material": 0,
          "mode": 4
        }
      ]
    },
    {
      "name": "pages.001_book_0",
      "primitives": [
        {
          "attributes": {
            "JOINTS_0": 20,
            "NORMAL": 11,
            "POSITION": 10,
            "TANGENT": 12,
            "TEXCOORD_0": 13,
            "TEXCOORD_1": 13,
            "TEXCOORD_2": 13,
            "WEIGHTS_0": 21
          },
          "indices": 14,
          "material": 0,
          "mode": 4
        }
      ]
    }
  ],
  "nodes": [
    {
      "children": [
        1
      ],
      "name": "RootNode (gltf orientation matrix)",
      "rotation": [
        -0.70710678118654746,
        -0,
        -0,
        0.70710678118654757
      ]
    },
    {
      "children": [
        2
      ],
      "name": "RootNode (model correction matrix)"
    },
    {
      "children": [
        3
      ],
      "matrix": [
        1,
        0,
        0,
        0,
        0,
        0,
        1,
        0,
        0,
        -1,
        0,
        0,
        0,
        0,
        0,
        1
      ],
      "name": "f8b38bc6583940feb476e7dda518f97b.fbx"
    },
    {
      "children": [
        4
      ],
      "name": ""
    },
    {
      "children": [
        5,
        6,
        19,
        20
      ],
      "name": "RootNode"
    },
    {
      "name": "book"
    },
    {
      "children": [
        7
      ],
      "name": "armature_book",
      "rotation": [
        -0.7071068286895752,
        0,
        0,
        0.70710670948028564
      ],
      "scale": [
        100,
        100,
        100
      ]
    },
    {
      "children": [
        8,
        10,
        16,
        18,
        9,
        15,
        17
      ],
      "name": ""
    },
    {
      "children": [
        11
      ],
      "name": "_rootJoint"
    },
    {
      "matrix": [
        0.99999997764825821,
        0,
        0,
        0,
        0,
        0.99999997764828097,
        -6.1638994147510118e-15,
        0,
        0,
        6.1638994147510118e-15,
        0.99999997764828097,
        0,
        0,
        1.4901202938233382e-08,
        9.8215299825302194e-15,
        1
      ],
      "name": ""
    },
    {
      "mesh": 0,
      "name": "",
      "skin": 0
    },
    {
      "children": [
        12
      ],
      "name": "back_00",
      "rotation": [
        -0.70710676908493042,
        0.7071068286895752,
        5.3385075915457492e-08,
        5.338507946817117e-08
      ],
      "translation": [
        0.068265438079833984,
        -4.1359030627651384e-25,
        -0.018261972814798355
      ]
    },
    {
      "children": [
        13
      ],
      "name": "spine_01",
      "rotation": [
        -3.7748950632021661e-08,
        7.5497894158615964e-08,
        8.1460342471473268e-08,
        1
      ],
      "scale": [
        1,
        0.9999997615814209,
        0.9999997615814209
      ],
      "translation": [
        2.481541837659083e-24,
        0.13797502219676971,
        0
      ]
    },
    {
      "children": [
        14
      ],
      "name": "front_02",
      "rotation": [
        -3.7748961290162697e-08,
        8.1460356682327983e-08,
        -8.9406952952231222e-08,
        1
      ],
      "translation": [
        -1.3322676295501878e-15,
        0.036943249404430389,
        -1.2611574007337367e-09
      ]
    },
    {
      "name": "front_end_03",
      "rotation": [
        -1.4766680973944878e-23,
        0,
        -3.3087224502121107e-23,
        1
      ],
      "translation": [
        3.3087224502121107e-24,
        0.13797502219676971,
        3.4694469519536142e-18
      ]
    },
    {
      "matrix": [
        0.99999997764825821,
        0,
        0,
        0,
        0,
        0.99999997764828097,
        -6.1638994147510118e-15,
        0,
        0,
        6.1638994147510118e-15,
        0.99999997764828097,
        0,
        0,
        1.4901202938233382e-08,
        9.8215299825302194e-15,
        1
      ],
      "name": ""
    },
    {
      "mesh": 1,
      "name": "",
      "skin": 0
    },
    {
      "matrix": [
        0.99999997764825821,
        0,
        0,
        0,
        0,
        0.99999997764828097,
        -6.1638994147510118e-15,
        0,
        0,
        6.1638994147510118e-15,
        0.99999997764828097,
        0,
        0,
        1.4901202938233382e-08,
        9.8215299825302194e-15,
        1
      ],
      "name": ""
    },
    {
      "mesh": 2,
      "name": "",
      "skin": 0
    },
    {
      "name": "pages"
    },
    {
      "name": "pages.001"
    }
  ],
  "samplers": [
    {
      "magFilter": 9729,
      "minFilter": 9987,
      "wrapS": 10497,
      "wrapT": 10497
    }
  ],
  "scene": 0,
  "scenes": [
    {
      "name": "OSG_Scene",
      "nodes": [
        0
      ]
    }
  ],
  "skins": [
    {
      "inverseBindMatrices": 15,
      "joints": [
        8,
        11,
        12,
        13,
        14
      ],
      "skeleton": 8
    }
  ],
  "textures": [
    {
      "sampler": 0,
      "source": 0
    },
    {
      "sampler": 0,
      "source": 1
    },
    {
      "sampler": 0,
      "source": 2
    }
  ]
}

